<?xml version="1.0" encoding="UTF-8" standalone="no"?>
<!DOCTYPE svg PUBLIC "-//W3C//DTD SVG 1.1//EN"
 "http://www.w3.org/Graphics/SVG/1.1/DTD/svg11.dtd">
<!-- Generated by graphviz version 2.36.0 (20140111.2315)
 -->
<!-- Title: hFramework::hSensor_simple Pages: 1 -->
<svg width="1080pt" height="266pt"
 viewBox="0.00 0.00 1080.00 266.00" xmlns="http://www.w3.org/2000/svg" xmlns:xlink="http://www.w3.org/1999/xlink">
<g id="graph0" class="graph" transform="scale(1 1) rotate(0) translate(4 262)">
<title>hFramework::hSensor_simple</title>
<polygon fill="white" stroke="none" points="-4,4 -4,-262 1076,-262 1076,4 -4,4"/>
<!-- Node1 -->
<g id="node1" class="node"><title>Node1</title>
<polygon fill="#bfbfbf" stroke="black" points="952,-175 952,-205 1072,-205 1072,-175 952,-175"/>
<text text-anchor="start" x="960" y="-193" font-family="Helvetica,sans-Serif" font-size="10.00">hFramework::hSensor</text>
<text text-anchor="middle" x="1012" y="-182" font-family="Helvetica,sans-Serif" font-size="10.00">_simple</text>
</g>
<!-- Node2 -->
<g id="node2" class="node"><title>Node2</title>
<g id="a_node2"><a xlink:href="classh_framework_1_1h_sensor.html" target="_top" xlink:title="base implementation for on&#45;board hSensor port. ">
<polygon fill="white" stroke="black" points="794,-136.5 794,-155.5 914,-155.5 914,-136.5 794,-136.5"/>
<text text-anchor="middle" x="854" y="-143.5" font-family="Helvetica,sans-Serif" font-size="10.00">hFramework::hSensor</text>
</a>
</g>
</g>
<!-- Node2&#45;&gt;Node1 -->
<g id="edge1" class="edge"><title>Node2&#45;&gt;Node1</title>
<path fill="none" stroke="midnightblue" d="M898.651,-158.312C916.937,-163.469 938.371,-169.515 957.586,-174.935"/>
<polygon fill="midnightblue" stroke="midnightblue" points="899.424,-154.893 888.85,-155.547 897.524,-161.631 899.424,-154.893"/>
</g>
<!-- Node3 -->
<g id="node3" class="node"><title>Node3</title>
<g id="a_node3"><a xlink:href="classh_framework_1_1interfaces_1_1_i_sensor.html" target="_top" xlink:title="Interface to hSensor port. ">
<polygon fill="white" stroke="black" points="575,-169 575,-199 703,-199 703,-169 575,-169"/>
<text text-anchor="start" x="583" y="-187" font-family="Helvetica,sans-Serif" font-size="10.00">hFramework::interfaces</text>
<text text-anchor="middle" x="639" y="-176" font-family="Helvetica,sans-Serif" font-size="10.00">::ISensor</text>
</a>
</g>
</g>
<!-- Node3&#45;&gt;Node1 -->
<g id="edge17" class="edge"><title>Node3&#45;&gt;Node1</title>
<path fill="none" stroke="midnightblue" d="M713.413,-185.187C783.307,-186.318 887.167,-187.997 951.888,-189.044"/>
<polygon fill="midnightblue" stroke="midnightblue" points="713.411,-181.687 703.356,-185.025 713.298,-188.686 713.411,-181.687"/>
</g>
<!-- Node3&#45;&gt;Node2 -->
<g id="edge2" class="edge"><title>Node3&#45;&gt;Node2</title>
<path fill="none" stroke="midnightblue" d="M712.925,-170.99C741.324,-165.923 773.272,-160.224 799.478,-155.549"/>
<polygon fill="midnightblue" stroke="midnightblue" points="712.272,-167.551 703.042,-172.753 713.502,-174.442 712.272,-167.551"/>
</g>
<!-- Node4 -->
<g id="node4" class="node"><title>Node4</title>
<g id="a_node4"><a xlink:href="classh_framework_1_1h_g_p_i_o.html" target="_top" xlink:title="Implementation of on&#45;board General Purpose Input&#45;Output pin (GPIO). ">
<polygon fill="white" stroke="black" points="175,-105.5 175,-124.5 285,-124.5 285,-105.5 175,-105.5"/>
<text text-anchor="middle" x="230" y="-112.5" font-family="Helvetica,sans-Serif" font-size="10.00">hFramework::hGPIO</text>
</a>
</g>
</g>
<!-- Node4&#45;&gt;Node1 -->
<g id="edge18" class="edge"><title>Node4&#45;&gt;Node1</title>
<path fill="none" stroke="#9a32cd" stroke-dasharray="5,2" d="M243.758,-133.447C268.854,-167.321 328.218,-236 397,-236 397,-236 397,-236 855,-236 899.613,-236 948.581,-218.478 979.533,-205.062"/>
<polygon fill="#9a32cd" stroke="#9a32cd" points="246.291,-130.975 237.609,-124.902 240.609,-135.063 246.291,-130.975"/>
<text text-anchor="middle" x="639" y="-250" font-family="Helvetica,sans-Serif" font-size="10.00"> pin1</text>
<text text-anchor="middle" x="639" y="-239" font-family="Helvetica,sans-Serif" font-size="10.00">pin2</text>
</g>
<!-- Node4&#45;&gt;Node2 -->
<g id="edge3" class="edge"><title>Node4&#45;&gt;Node2</title>
<path fill="none" stroke="#9a32cd" stroke-dasharray="5,2" d="M295.468,-121.696C301.056,-122.177 306.626,-122.621 312,-123 486.891,-135.344 694.088,-141.91 793.699,-144.564"/>
<polygon fill="#9a32cd" stroke="#9a32cd" points="295.7,-118.203 285.428,-120.797 295.076,-125.175 295.7,-118.203"/>
<text text-anchor="middle" x="516" y="-139" font-family="Helvetica,sans-Serif" font-size="10.00"> currentSrcPin</text>
</g>
<!-- Node7 -->
<g id="node7" class="node"><title>Node7</title>
<g id="a_node7"><a xlink:href="classh_framework_1_1h_g_p_i_o__adc.html" target="_top" xlink:title="Implementation of on&#45;board General Purpose Input&#45;Output pin (GPIO) with ADC capability. ">
<polygon fill="white" stroke="black" points="332,-54.5 332,-73.5 464,-73.5 464,-54.5 332,-54.5"/>
<text text-anchor="middle" x="398" y="-61.5" font-family="Helvetica,sans-Serif" font-size="10.00">hFramework::hGPIO_adc</text>
</a>
</g>
</g>
<!-- Node4&#45;&gt;Node7 -->
<g id="edge7" class="edge"><title>Node4&#45;&gt;Node7</title>
<path fill="none" stroke="midnightblue" d="M270.205,-102.353C288.887,-96.3848 311.566,-89.2227 332,-83 342.347,-79.849 353.652,-76.5089 363.89,-73.5226"/>
<polygon fill="midnightblue" stroke="midnightblue" points="269.012,-99.0603 260.556,-105.443 271.147,-105.727 269.012,-99.0603"/>
</g>
<!-- Node9 -->
<g id="node9" class="node"><title>Node9</title>
<g id="a_node9"><a xlink:href="classh_framework_1_1h_g_p_i_o__int.html" target="_top" xlink:title="Implementation of on&#45;board General Purpose Input&#45;Output pin (GPIO) with interrupt capability...">
<polygon fill="white" stroke="black" points="334.5,-92.5 334.5,-111.5 461.5,-111.5 461.5,-92.5 334.5,-92.5"/>
<text text-anchor="middle" x="398" y="-99.5" font-family="Helvetica,sans-Serif" font-size="10.00">hFramework::hGPIO_int</text>
</a>
</g>
</g>
<!-- Node4&#45;&gt;Node9 -->
<g id="edge11" class="edge"><title>Node4&#45;&gt;Node9</title>
<path fill="none" stroke="midnightblue" d="M295.47,-109.951C308.281,-108.948 321.712,-107.896 334.457,-106.898"/>
<polygon fill="midnightblue" stroke="midnightblue" points="295.051,-106.473 285.355,-110.743 295.597,-113.452 295.051,-106.473"/>
</g>
<!-- Node5 -->
<g id="node5" class="node"><title>Node5</title>
<g id="a_node5"><a xlink:href="classh_framework_1_1interfaces_1_1_i_g_p_i_o.html" target="_top" xlink:title="Interface for General Purpose Input&#45;Output pin (GPIO). ">
<polygon fill="white" stroke="black" points="0,-50 0,-80 128,-80 128,-50 0,-50"/>
<text text-anchor="start" x="8" y="-68" font-family="Helvetica,sans-Serif" font-size="10.00">hFramework::interfaces</text>
<text text-anchor="middle" x="64" y="-57" font-family="Helvetica,sans-Serif" font-size="10.00">::IGPIO</text>
</a>
</g>
</g>
<!-- Node5&#45;&gt;Node4 -->
<g id="edge4" class="edge"><title>Node5&#45;&gt;Node4</title>
<path fill="none" stroke="midnightblue" d="M123.902,-82.9579C148.719,-90.524 176.609,-99.027 197.419,-105.372"/>
<polygon fill="midnightblue" stroke="midnightblue" points="124.791,-79.5701 114.205,-80.0016 122.75,-86.2658 124.791,-79.5701"/>
</g>
<!-- Node8 -->
<g id="node8" class="node"><title>Node8</title>
<g id="a_node8"><a xlink:href="classh_framework_1_1interfaces_1_1_i_g_p_i_o__adc.html" target="_top" xlink:title="Interface for General Purpose Input&#45;Output pin (GPIO) with ADC capability. ">
<polygon fill="white" stroke="black" points="166,-0 166,-30 294,-30 294,-0 166,-0"/>
<text text-anchor="start" x="174" y="-18" font-family="Helvetica,sans-Serif" font-size="10.00">hFramework::interfaces</text>
<text text-anchor="middle" x="230" y="-7" font-family="Helvetica,sans-Serif" font-size="10.00">::IGPIO_adc</text>
</a>
</g>
</g>
<!-- Node5&#45;&gt;Node8 -->
<g id="edge9" class="edge"><title>Node5&#45;&gt;Node8</title>
<path fill="none" stroke="midnightblue" d="M123.857,-47.0558C142.101,-41.4937 162.009,-35.4242 179.546,-30.0774"/>
<polygon fill="midnightblue" stroke="midnightblue" points="122.75,-43.7342 114.205,-49.9984 124.791,-50.4299 122.75,-43.7342"/>
</g>
<!-- Node10 -->
<g id="node10" class="node"><title>Node10</title>
<g id="a_node10"><a xlink:href="classh_framework_1_1interfaces_1_1_i_g_p_i_o__int.html" target="_top" xlink:title="Interface for General Purpose Input&#45;Output pin (GPIO) with interrupt capability. ">
<polygon fill="white" stroke="black" points="166,-50 166,-80 294,-80 294,-50 166,-50"/>
<text text-anchor="start" x="174" y="-68" font-family="Helvetica,sans-Serif" font-size="10.00">hFramework::interfaces</text>
<text text-anchor="middle" x="230" y="-57" font-family="Helvetica,sans-Serif" font-size="10.00">::IGPIO_int</text>
</a>
</g>
</g>
<!-- Node5&#45;&gt;Node10 -->
<g id="edge13" class="edge"><title>Node5&#45;&gt;Node10</title>
<path fill="none" stroke="midnightblue" d="M138.57,-65C147.645,-65 156.859,-65 165.762,-65"/>
<polygon fill="midnightblue" stroke="midnightblue" points="138.407,-61.5001 128.407,-65 138.407,-68.5001 138.407,-61.5001"/>
</g>
<!-- Node6 -->
<g id="node6" class="node"><title>Node6</title>
<g id="a_node6"><a xlink:href="classh_framework_1_1h_g_p_i_o__super.html" target="_top" xlink:title="Implementation of on&#45;board General Purpose Input&#45;Output pin (GPIO) with interrupt and ADC capability...">
<polygon fill="white" stroke="black" points="568,-72.5 568,-91.5 710,-91.5 710,-72.5 568,-72.5"/>
<text text-anchor="middle" x="639" y="-79.5" font-family="Helvetica,sans-Serif" font-size="10.00">hFramework::hGPIO_super</text>
</a>
</g>
</g>
<!-- Node6&#45;&gt;Node2 -->
<g id="edge5" class="edge"><title>Node6&#45;&gt;Node2</title>
<path fill="none" stroke="#9a32cd" stroke-dasharray="5,2" d="M696.339,-93.7456C721.016,-99.383 750.176,-106.717 776,-115 795.211,-121.162 816.439,-129.856 831.732,-136.469"/>
<polygon fill="#9a32cd" stroke="#9a32cd" points="696.939,-90.2932 686.415,-91.5141 695.403,-97.1227 696.939,-90.2932"/>
<text text-anchor="middle" x="752" y="-118" font-family="Helvetica,sans-Serif" font-size="10.00"> pinIntAdc</text>
</g>
<!-- Node7&#45;&gt;Node6 -->
<g id="edge6" class="edge"><title>Node7&#45;&gt;Node6</title>
<path fill="none" stroke="midnightblue" d="M474.659,-69.6982C504.463,-71.9428 538.491,-74.5056 567.746,-76.7089"/>
<polygon fill="midnightblue" stroke="midnightblue" points="474.542,-66.1796 464.308,-68.9186 474.017,-73.1598 474.542,-66.1796"/>
</g>
<!-- Node8&#45;&gt;Node7 -->
<g id="edge8" class="edge"><title>Node8&#45;&gt;Node7</title>
<path fill="none" stroke="midnightblue" d="M291.798,-32.9464C316.431,-40.2175 343.879,-48.3197 364.561,-54.4246"/>
<polygon fill="midnightblue" stroke="midnightblue" points="292.742,-29.5757 282.16,-30.1014 290.76,-36.2894 292.742,-29.5757"/>
</g>
<!-- Node11 -->
<g id="node11" class="node"><title>Node11</title>
<g id="a_node11"><a xlink:href="classh_framework_1_1interfaces_1_1_i_g_p_i_o__super.html" target="_top" xlink:title="Interface for General Purpose Input&#45;Output pin (GPIO) with interrupt and ADC capability. ">
<polygon fill="white" stroke="black" points="334,-5 334,-35 462,-35 462,-5 334,-5"/>
<text text-anchor="start" x="342" y="-23" font-family="Helvetica,sans-Serif" font-size="10.00">hFramework::interfaces</text>
<text text-anchor="middle" x="398" y="-12" font-family="Helvetica,sans-Serif" font-size="10.00">::IGPIO_super</text>
</a>
</g>
</g>
<!-- Node8&#45;&gt;Node11 -->
<g id="edge16" class="edge"><title>Node8&#45;&gt;Node11</title>
<path fill="none" stroke="midnightblue" d="M304.595,-3.47343C307.77,-3.53622 310.916,-3.70547 314,-4 320.428,-4.61389 327.098,-5.48941 333.737,-6.5185"/>
<polygon fill="midnightblue" stroke="midnightblue" points="304.34,0.0235288 294.388,-3.61214 304.435,-6.97582 304.34,0.0235288"/>
</g>
<!-- Node9&#45;&gt;Node6 -->
<g id="edge10" class="edge"><title>Node9&#45;&gt;Node6</title>
<path fill="none" stroke="midnightblue" d="M471.908,-95.8989C502.313,-93.3546 537.489,-90.411 567.62,-87.8895"/>
<polygon fill="midnightblue" stroke="midnightblue" points="471.468,-92.4234 461.794,-96.7452 472.052,-99.399 471.468,-92.4234"/>
</g>
<!-- Node10&#45;&gt;Node9 -->
<g id="edge12" class="edge"><title>Node10&#45;&gt;Node9</title>
<path fill="none" stroke="midnightblue" d="M304.217,-81.3194C321.325,-85.1328 338.996,-89.0714 354.267,-92.4751"/>
<polygon fill="midnightblue" stroke="midnightblue" points="304.753,-77.8531 294.231,-79.0937 303.23,-84.6854 304.753,-77.8531"/>
</g>
<!-- Node10&#45;&gt;Node11 -->
<g id="edge15" class="edge"><title>Node10&#45;&gt;Node11</title>
<path fill="none" stroke="midnightblue" d="M296.389,-47.274C311.283,-43.2366 326.97,-38.9841 341.41,-35.0697"/>
<polygon fill="midnightblue" stroke="midnightblue" points="295.473,-43.8959 286.737,-49.8905 297.305,-50.6521 295.473,-43.8959"/>
</g>
<!-- Node11&#45;&gt;Node6 -->
<g id="edge14" class="edge"><title>Node11&#45;&gt;Node6</title>
<path fill="none" stroke="midnightblue" d="M466.55,-37.5234C510.205,-48.8483 565.347,-63.1527 601.127,-72.4346"/>
<polygon fill="midnightblue" stroke="midnightblue" points="467.414,-34.1317 456.855,-35.0085 465.656,-40.9074 467.414,-34.1317"/>
</g>
</g>
</svg>
