<?xml version="1.0" encoding="UTF-8" standalone="no"?>
<!DOCTYPE svg PUBLIC "-//W3C//DTD SVG 1.1//EN"
 "http://www.w3.org/Graphics/SVG/1.1/DTD/svg11.dtd">
<!-- Generated by graphviz version 2.36.0 (20140111.2315)
 -->
<!-- Title: hFramework::PlatformUi Pages: 1 -->
<svg width="212pt" height="254pt"
 viewBox="0.00 0.00 212.00 254.00" xmlns="http://www.w3.org/2000/svg" xmlns:xlink="http://www.w3.org/1999/xlink">
<g id="graph0" class="graph" transform="scale(1 1) rotate(0) translate(4 250)">
<title>hFramework::PlatformUi</title>
<polygon fill="white" stroke="none" points="-4,4 -4,-250 208,-250 208,4 -4,4"/>
<!-- Node1 -->
<g id="node1" class="node"><title>Node1</title>
<polygon fill="#bfbfbf" stroke="black" points="-0.5,-0.5 -0.5,-19.5 130.5,-19.5 130.5,-0.5 -0.5,-0.5"/>
<text text-anchor="middle" x="65" y="-7.5" font-family="Helvetica,sans-Serif" font-size="10.00">hFramework::PlatformUi</text>
</g>
<!-- Node2 -->
<g id="node2" class="node"><title>Node2</title>
<g id="a_node2"><a xlink:href="structh_framework_1_1_ui_video.html" target="_top" xlink:title="hFramework::UiVideo">
<polygon fill="white" stroke="black" points="78.5,-68.5 78.5,-87.5 195.5,-87.5 195.5,-68.5 78.5,-68.5"/>
<text text-anchor="middle" x="137" y="-75.5" font-family="Helvetica,sans-Serif" font-size="10.00">hFramework::UiVideo</text>
</a>
</g>
</g>
<!-- Node2&#45;&gt;Node1 -->
<g id="edge1" class="edge"><title>Node2&#45;&gt;Node1</title>
<path fill="none" stroke="#9a32cd" stroke-dasharray="5,2" d="M119.995,-61.4122C105.851,-48.4468 86.2247,-30.4559 74.6449,-19.8411"/>
<polygon fill="#9a32cd" stroke="#9a32cd" points="117.851,-64.1944 127.587,-68.3717 122.581,-59.0343 117.851,-64.1944"/>
<text text-anchor="middle" x="122.5" y="-41.5" font-family="Helvetica,sans-Serif" font-size="10.00"> video</text>
</g>
<!-- Node3 -->
<g id="node3" class="node"><title>Node3</title>
<g id="a_node3"><a xlink:href="structh_framework_1_1___ui_widget.html" target="_top" xlink:title="hFramework::_UiWidget">
<polygon fill="white" stroke="black" points="76,-158.5 76,-177.5 204,-177.5 204,-158.5 76,-158.5"/>
<text text-anchor="middle" x="140" y="-165.5" font-family="Helvetica,sans-Serif" font-size="10.00">hFramework::_UiWidget</text>
</a>
</g>
</g>
<!-- Node3&#45;&gt;Node2 -->
<g id="edge2" class="edge"><title>Node3&#45;&gt;Node2</title>
<path fill="none" stroke="midnightblue" d="M139.971,-148.134C139.882,-136.077 139.638,-120.112 139,-106 138.72,-99.8019 138.197,-92.8171 137.756,-87.5048"/>
<polygon fill="midnightblue" stroke="midnightblue" points="136.471,-148.323 140.015,-158.308 143.471,-148.293 136.471,-148.323"/>
</g>
<!-- Node4 -->
<g id="node4" class="node"><title>Node4</title>
<g id="a_node4"><a xlink:href="structh_framework_1_1h_id.html" target="_top" xlink:title="hFramework::hId">
<polygon fill="white" stroke="black" points="21.5,-226.5 21.5,-245.5 116.5,-245.5 116.5,-226.5 21.5,-226.5"/>
<text text-anchor="middle" x="69" y="-233.5" font-family="Helvetica,sans-Serif" font-size="10.00">hFramework::hId</text>
</a>
</g>
</g>
<!-- Node4&#45;&gt;Node1 -->
<g id="edge4" class="edge"><title>Node4&#45;&gt;Node1</title>
<path fill="none" stroke="#9a32cd" stroke-dasharray="5,2" d="M59.8391,-217.379C50.7046,-198.738 37.2941,-168.181 32,-140 23.3783,-94.1065 48.9091,-40.3207 60.0636,-19.6719"/>
<polygon fill="#9a32cd" stroke="#9a32cd" points="56.7688,-219.064 64.3952,-226.419 63.0197,-215.913 56.7688,-219.064"/>
<text text-anchor="middle" x="83.5" y="-131.5" font-family="Helvetica,sans-Serif" font-size="10.00"> onConsoleWrite</text>
<text text-anchor="middle" x="83.5" y="-120.5" font-family="Helvetica,sans-Serif" font-size="10.00">onValueChangeEvent</text>
<text text-anchor="middle" x="83.5" y="-109.5" font-family="Helvetica,sans-Serif" font-size="10.00">onButtonEvent</text>
</g>
<!-- Node4&#45;&gt;Node3 -->
<g id="edge3" class="edge"><title>Node4&#45;&gt;Node3</title>
<path fill="none" stroke="#9a32cd" stroke-dasharray="5,2" d="M85.7687,-219.412C99.7164,-206.447 119.07,-188.456 130.489,-177.841"/>
<polygon fill="#9a32cd" stroke="#9a32cd" points="83.2233,-217 78.282,-226.372 87.9893,-222.127 83.2233,-217"/>
<text text-anchor="middle" x="117" y="-199.5" font-family="Helvetica,sans-Serif" font-size="10.00"> id</text>
</g>
</g>
</svg>
