<?xml version="1.0" encoding="UTF-8" standalone="no"?>
<!DOCTYPE svg PUBLIC "-//W3C//DTD SVG 1.1//EN"
 "http://www.w3.org/Graphics/SVG/1.1/DTD/svg11.dtd">
<!-- Generated by graphviz version 2.36.0 (20140111.2315)
 -->
<!-- Title: hFramework::hSensor_serial Pages: 1 -->
<svg width="1352pt" height="297pt"
 viewBox="0.00 0.00 1352.00 297.00" xmlns="http://www.w3.org/2000/svg" xmlns:xlink="http://www.w3.org/1999/xlink">
<g id="graph0" class="graph" transform="scale(1 1) rotate(0) translate(4 293)">
<title>hFramework::hSensor_serial</title>
<polygon fill="white" stroke="none" points="-4,4 -4,-293 1348,-293 1348,4 -4,4"/>
<!-- Node1 -->
<g id="node1" class="node"><title>Node1</title>
<polygon fill="#bfbfbf" stroke="black" points="1224,-106 1224,-136 1344,-136 1344,-106 1224,-106"/>
<text text-anchor="start" x="1232" y="-124" font-family="Helvetica,sans-Serif" font-size="10.00">hFramework::hSensor</text>
<text text-anchor="middle" x="1284" y="-113" font-family="Helvetica,sans-Serif" font-size="10.00">_serial</text>
</g>
<!-- Node2 -->
<g id="node2" class="node"><title>Node2</title>
<g id="a_node2"><a xlink:href="classh_framework_1_1h_sensor.html" target="_top" xlink:title="base implementation for on&#45;board hSensor port. ">
<polygon fill="white" stroke="black" points="1062,-155.5 1062,-174.5 1182,-174.5 1182,-155.5 1062,-155.5"/>
<text text-anchor="middle" x="1122" y="-162.5" font-family="Helvetica,sans-Serif" font-size="10.00">hFramework::hSensor</text>
</a>
</g>
</g>
<!-- Node2&#45;&gt;Node1 -->
<g id="edge1" class="edge"><title>Node2&#45;&gt;Node1</title>
<path fill="none" stroke="midnightblue" d="M1167.51,-152.76C1186.32,-147.587 1208.42,-141.51 1228.22,-136.065"/>
<polygon fill="midnightblue" stroke="midnightblue" points="1166.43,-149.426 1157.72,-155.453 1168.29,-156.176 1166.43,-149.426"/>
</g>
<!-- Node3 -->
<g id="node3" class="node"><title>Node3</title>
<g id="a_node3"><a xlink:href="classh_framework_1_1interfaces_1_1_i_sensor.html" target="_top" xlink:title="Interface to hSensor port. ">
<polygon fill="white" stroke="black" points="839,-218 839,-248 967,-248 967,-218 839,-218"/>
<text text-anchor="start" x="847" y="-236" font-family="Helvetica,sans-Serif" font-size="10.00">hFramework::interfaces</text>
<text text-anchor="middle" x="903" y="-225" font-family="Helvetica,sans-Serif" font-size="10.00">::ISensor</text>
</a>
</g>
</g>
<!-- Node3&#45;&gt;Node2 -->
<g id="edge2" class="edge"><title>Node3&#45;&gt;Node2</title>
<path fill="none" stroke="midnightblue" d="M969.286,-215.202C991.788,-208.823 1017.09,-201.378 1040,-194 1058.77,-187.956 1079.72,-180.435 1095.61,-174.567"/>
<polygon fill="midnightblue" stroke="midnightblue" points="968.173,-211.879 959.497,-217.96 970.071,-218.616 968.173,-211.879"/>
</g>
<!-- Node12 -->
<g id="node12" class="node"><title>Node12</title>
<g id="a_node12"><a xlink:href="classh_framework_1_1interfaces_1_1_i_sensor__serial.html" target="_top" xlink:title="Interface to Serial capable hSensor port. ">
<polygon fill="white" stroke="black" points="1058,-206 1058,-236 1186,-236 1186,-206 1058,-206"/>
<text text-anchor="start" x="1066" y="-224" font-family="Helvetica,sans-Serif" font-size="10.00">hFramework::interfaces</text>
<text text-anchor="middle" x="1122" y="-213" font-family="Helvetica,sans-Serif" font-size="10.00">::ISensor_serial</text>
</a>
</g>
</g>
<!-- Node3&#45;&gt;Node12 -->
<g id="edge18" class="edge"><title>Node3&#45;&gt;Node12</title>
<path fill="none" stroke="midnightblue" d="M977.282,-228.948C1003.4,-227.503 1032.58,-225.889 1057.79,-224.496"/>
<polygon fill="midnightblue" stroke="midnightblue" points="976.848,-225.466 967.057,-229.513 977.235,-232.455 976.848,-225.466"/>
</g>
<!-- Node4 -->
<g id="node4" class="node"><title>Node4</title>
<g id="a_node4"><a xlink:href="classh_framework_1_1h_g_p_i_o.html" target="_top" xlink:title="Implementation of on&#45;board General Purpose Input&#45;Output pin (GPIO). ">
<polygon fill="white" stroke="black" points="413,-151.5 413,-170.5 523,-170.5 523,-151.5 413,-151.5"/>
<text text-anchor="middle" x="468" y="-158.5" font-family="Helvetica,sans-Serif" font-size="10.00">hFramework::hGPIO</text>
</a>
</g>
</g>
<!-- Node4&#45;&gt;Node1 -->
<g id="edge19" class="edge"><title>Node4&#45;&gt;Node1</title>
<path fill="none" stroke="#9a32cd" stroke-dasharray="5,2" d="M495.033,-146.841C531.174,-128.541 599.102,-99 661,-99 661,-99 661,-99 1123,-99 1156.65,-99 1193.91,-103.834 1224,-108.97"/>
<polygon fill="#9a32cd" stroke="#9a32cd" points="493.405,-143.743 486.133,-151.448 496.623,-149.959 493.405,-143.743"/>
<text text-anchor="middle" x="903" y="-113" font-family="Helvetica,sans-Serif" font-size="10.00"> pin1</text>
<text text-anchor="middle" x="903" y="-102" font-family="Helvetica,sans-Serif" font-size="10.00">pin2</text>
</g>
<!-- Node4&#45;&gt;Node2 -->
<g id="edge3" class="edge"><title>Node4&#45;&gt;Node2</title>
<path fill="none" stroke="#9a32cd" stroke-dasharray="5,2" d="M533.504,-161.396C660.197,-162.173 939.805,-163.888 1061.96,-164.638"/>
<polygon fill="#9a32cd" stroke="#9a32cd" points="533.21,-157.894 523.189,-161.332 533.167,-164.894 533.21,-157.894"/>
<text text-anchor="middle" x="780" y="-167" font-family="Helvetica,sans-Serif" font-size="10.00"> currentSrcPin</text>
</g>
<!-- Node7 -->
<g id="node7" class="node"><title>Node7</title>
<g id="a_node7"><a xlink:href="classh_framework_1_1h_g_p_i_o__adc.html" target="_top" xlink:title="Implementation of on&#45;board General Purpose Input&#45;Output pin (GPIO) with ADC capability. ">
<polygon fill="white" stroke="black" points="596,-177.5 596,-196.5 728,-196.5 728,-177.5 596,-177.5"/>
<text text-anchor="middle" x="662" y="-184.5" font-family="Helvetica,sans-Serif" font-size="10.00">hFramework::hGPIO_adc</text>
</a>
</g>
</g>
<!-- Node4&#45;&gt;Node7 -->
<g id="edge7" class="edge"><title>Node4&#45;&gt;Node7</title>
<path fill="none" stroke="midnightblue" d="M533.279,-169.704C553.462,-172.438 575.753,-175.456 595.987,-178.196"/>
<polygon fill="midnightblue" stroke="midnightblue" points="533.629,-166.22 523.25,-168.346 532.689,-173.157 533.629,-166.22"/>
</g>
<!-- Node9 -->
<g id="node9" class="node"><title>Node9</title>
<g id="a_node9"><a xlink:href="classh_framework_1_1h_g_p_i_o__int.html" target="_top" xlink:title="Implementation of on&#45;board General Purpose Input&#45;Output pin (GPIO) with interrupt capability...">
<polygon fill="white" stroke="black" points="598.5,-215.5 598.5,-234.5 725.5,-234.5 725.5,-215.5 598.5,-215.5"/>
<text text-anchor="middle" x="662" y="-222.5" font-family="Helvetica,sans-Serif" font-size="10.00">hFramework::hGPIO_int</text>
</a>
</g>
</g>
<!-- Node4&#45;&gt;Node9 -->
<g id="edge11" class="edge"><title>Node4&#45;&gt;Node9</title>
<path fill="none" stroke="midnightblue" d="M504.202,-174.071C529.593,-183.353 564.755,-195.907 596,-206 606.069,-209.253 617.092,-212.567 627.154,-215.497"/>
<polygon fill="midnightblue" stroke="midnightblue" points="505.233,-170.722 494.639,-170.562 502.821,-177.293 505.233,-170.722"/>
</g>
<!-- Node13 -->
<g id="node13" class="node"><title>Node13</title>
<g id="a_node13"><a xlink:href="classh_framework_1_1h_serial.html" target="_top" xlink:title="Serial port (UART) interface. ">
<polygon fill="white" stroke="black" points="605.5,-43.5 605.5,-62.5 718.5,-62.5 718.5,-43.5 605.5,-43.5"/>
<text text-anchor="middle" x="662" y="-50.5" font-family="Helvetica,sans-Serif" font-size="10.00">hFramework::hSerial</text>
</a>
</g>
</g>
<!-- Node4&#45;&gt;Node13 -->
<g id="edge25" class="edge"><title>Node4&#45;&gt;Node13</title>
<path fill="none" stroke="#9a32cd" stroke-dasharray="5,2" d="M478.485,-142.179C491.255,-119.065 516.319,-80.748 550,-63 566.69,-54.2055 586.768,-50.6593 605.232,-49.6395"/>
<polygon fill="#9a32cd" stroke="#9a32cd" points="475.227,-140.851 473.635,-151.326 481.412,-144.13 475.227,-140.851"/>
<text text-anchor="middle" x="564" y="-77" font-family="Helvetica,sans-Serif" font-size="10.00"> pinTx</text>
<text text-anchor="middle" x="564" y="-66" font-family="Helvetica,sans-Serif" font-size="10.00">pinRx</text>
</g>
<!-- Node5 -->
<g id="node5" class="node"><title>Node5</title>
<g id="a_node5"><a xlink:href="classh_framework_1_1interfaces_1_1_i_g_p_i_o.html" target="_top" xlink:title="Interface for General Purpose Input&#45;Output pin (GPIO). ">
<polygon fill="white" stroke="black" points="237,-209 237,-239 365,-239 365,-209 237,-209"/>
<text text-anchor="start" x="245" y="-227" font-family="Helvetica,sans-Serif" font-size="10.00">hFramework::interfaces</text>
<text text-anchor="middle" x="301" y="-216" font-family="Helvetica,sans-Serif" font-size="10.00">::IGPIO</text>
</a>
</g>
</g>
<!-- Node5&#45;&gt;Node4 -->
<g id="edge4" class="edge"><title>Node5&#45;&gt;Node4</title>
<path fill="none" stroke="midnightblue" d="M350.925,-205.319C380.728,-193.94 417.58,-179.87 441.658,-170.676"/>
<polygon fill="midnightblue" stroke="midnightblue" points="349.615,-202.073 341.522,-208.91 352.112,-208.613 349.615,-202.073"/>
</g>
<!-- Node8 -->
<g id="node8" class="node"><title>Node8</title>
<g id="a_node8"><a xlink:href="classh_framework_1_1interfaces_1_1_i_g_p_i_o__adc.html" target="_top" xlink:title="Interface for General Purpose Input&#45;Output pin (GPIO) with ADC capability. ">
<polygon fill="white" stroke="black" points="404,-209 404,-239 532,-239 532,-209 404,-209"/>
<text text-anchor="start" x="412" y="-227" font-family="Helvetica,sans-Serif" font-size="10.00">hFramework::interfaces</text>
<text text-anchor="middle" x="468" y="-216" font-family="Helvetica,sans-Serif" font-size="10.00">::IGPIO_adc</text>
</a>
</g>
</g>
<!-- Node5&#45;&gt;Node8 -->
<g id="edge9" class="edge"><title>Node5&#45;&gt;Node8</title>
<path fill="none" stroke="midnightblue" d="M375.498,-224C384.957,-224 394.575,-224 403.848,-224"/>
<polygon fill="midnightblue" stroke="midnightblue" points="375.321,-220.5 365.321,-224 375.321,-227.5 375.321,-220.5"/>
</g>
<!-- Node10 -->
<g id="node10" class="node"><title>Node10</title>
<g id="a_node10"><a xlink:href="classh_framework_1_1interfaces_1_1_i_g_p_i_o__int.html" target="_top" xlink:title="Interface for General Purpose Input&#45;Output pin (GPIO) with interrupt capability. ">
<polygon fill="white" stroke="black" points="404,-259 404,-289 532,-289 532,-259 404,-259"/>
<text text-anchor="start" x="412" y="-277" font-family="Helvetica,sans-Serif" font-size="10.00">hFramework::interfaces</text>
<text text-anchor="middle" x="468" y="-266" font-family="Helvetica,sans-Serif" font-size="10.00">::IGPIO_int</text>
</a>
</g>
</g>
<!-- Node5&#45;&gt;Node10 -->
<g id="edge13" class="edge"><title>Node5&#45;&gt;Node10</title>
<path fill="none" stroke="midnightblue" d="M361.216,-241.944C379.571,-247.506 399.6,-253.576 417.245,-258.923"/>
<polygon fill="midnightblue" stroke="midnightblue" points="362.091,-238.552 351.505,-239.002 360.061,-245.251 362.091,-238.552"/>
</g>
<!-- Node6 -->
<g id="node6" class="node"><title>Node6</title>
<g id="a_node6"><a xlink:href="classh_framework_1_1h_g_p_i_o__super.html" target="_top" xlink:title="Implementation of on&#45;board General Purpose Input&#45;Output pin (GPIO) with interrupt and ADC capability...">
<polygon fill="white" stroke="black" points="832,-178.5 832,-197.5 974,-197.5 974,-178.5 832,-178.5"/>
<text text-anchor="middle" x="903" y="-185.5" font-family="Helvetica,sans-Serif" font-size="10.00">hFramework::hGPIO_super</text>
</a>
</g>
</g>
<!-- Node6&#45;&gt;Node2 -->
<g id="edge5" class="edge"><title>Node6&#45;&gt;Node2</title>
<path fill="none" stroke="#9a32cd" stroke-dasharray="5,2" d="M984.273,-179.492C1010.02,-176.762 1038.06,-173.791 1061.99,-171.254"/>
<polygon fill="#9a32cd" stroke="#9a32cd" points="983.729,-176.03 974.154,-180.564 984.467,-182.991 983.729,-176.03"/>
<text text-anchor="middle" x="1016" y="-182" font-family="Helvetica,sans-Serif" font-size="10.00"> pinIntAdc</text>
</g>
<!-- Node7&#45;&gt;Node6 -->
<g id="edge6" class="edge"><title>Node7&#45;&gt;Node6</title>
<path fill="none" stroke="midnightblue" d="M738.659,-187.317C768.463,-187.441 802.491,-187.584 831.746,-187.706"/>
<polygon fill="midnightblue" stroke="midnightblue" points="738.322,-183.815 728.308,-187.273 738.293,-190.815 738.322,-183.815"/>
</g>
<!-- Node8&#45;&gt;Node7 -->
<g id="edge8" class="edge"><title>Node8&#45;&gt;Node7</title>
<path fill="none" stroke="midnightblue" d="M541.958,-209.94C565.196,-205.462 590.347,-200.615 611.518,-196.536"/>
<polygon fill="midnightblue" stroke="midnightblue" points="541.291,-206.504 532.134,-211.834 542.616,-213.378 541.291,-206.504"/>
</g>
<!-- Node11 -->
<g id="node11" class="node"><title>Node11</title>
<g id="a_node11"><a xlink:href="classh_framework_1_1interfaces_1_1_i_g_p_i_o__super.html" target="_top" xlink:title="Interface for General Purpose Input&#45;Output pin (GPIO) with interrupt and ADC capability. ">
<polygon fill="white" stroke="black" points="598,-254 598,-284 726,-284 726,-254 598,-254"/>
<text text-anchor="start" x="606" y="-272" font-family="Helvetica,sans-Serif" font-size="10.00">hFramework::interfaces</text>
<text text-anchor="middle" x="662" y="-261" font-family="Helvetica,sans-Serif" font-size="10.00">::IGPIO_super</text>
</a>
</g>
</g>
<!-- Node8&#45;&gt;Node11 -->
<g id="edge16" class="edge"><title>Node8&#45;&gt;Node11</title>
<path fill="none" stroke="midnightblue" d="M541.925,-241.092C560.333,-245.406 579.945,-250.003 597.828,-254.194"/>
<polygon fill="midnightblue" stroke="midnightblue" points="542.669,-237.671 532.134,-238.797 541.071,-244.487 542.669,-237.671"/>
</g>
<!-- Node9&#45;&gt;Node6 -->
<g id="edge10" class="edge"><title>Node9&#45;&gt;Node6</title>
<path fill="none" stroke="midnightblue" d="M735.887,-213.998C760.681,-210.228 788.553,-205.962 814,-202 823.171,-200.572 832.878,-199.044 842.364,-197.542"/>
<polygon fill="midnightblue" stroke="midnightblue" points="735.19,-210.563 725.829,-215.525 736.241,-217.484 735.19,-210.563"/>
</g>
<!-- Node10&#45;&gt;Node9 -->
<g id="edge12" class="edge"><title>Node10&#45;&gt;Node9</title>
<path fill="none" stroke="midnightblue" d="M537.969,-256.399C566.877,-249.021 599.345,-240.735 623.666,-234.528"/>
<polygon fill="midnightblue" stroke="midnightblue" points="536.735,-253.101 527.911,-258.965 538.466,-259.884 536.735,-253.101"/>
</g>
<!-- Node10&#45;&gt;Node11 -->
<g id="edge15" class="edge"><title>Node10&#45;&gt;Node11</title>
<path fill="none" stroke="midnightblue" d="M542.087,-285.332C554.085,-286.055 566.388,-286.109 578,-285 584.428,-284.386 591.098,-283.511 597.737,-282.482"/>
<polygon fill="midnightblue" stroke="midnightblue" points="542.338,-281.842 532.102,-284.579 541.811,-288.822 542.338,-281.842"/>
</g>
<!-- Node11&#45;&gt;Node6 -->
<g id="edge14" class="edge"><title>Node11&#45;&gt;Node6</title>
<path fill="none" stroke="midnightblue" d="M733.415,-251.074C759.363,-243.322 788.606,-233.201 814,-221 822.666,-216.836 823.3,-213.093 832,-209 841.644,-204.463 852.496,-200.642 862.724,-197.557"/>
<polygon fill="midnightblue" stroke="midnightblue" points="732.263,-247.764 723.646,-253.929 734.227,-254.483 732.263,-247.764"/>
</g>
<!-- Node12&#45;&gt;Node1 -->
<g id="edge17" class="edge"><title>Node12&#45;&gt;Node1</title>
<path fill="none" stroke="midnightblue" d="M1158.07,-200.777C1167.21,-195.405 1177.02,-189.551 1186,-184 1211.79,-168.06 1240.91,-149.006 1260.45,-136.057"/>
<polygon fill="midnightblue" stroke="midnightblue" points="1156.08,-197.89 1149.21,-205.96 1159.61,-203.933 1156.08,-197.89"/>
</g>
<!-- Node13&#45;&gt;Node1 -->
<g id="edge20" class="edge"><title>Node13&#45;&gt;Node1</title>
<path fill="none" stroke="#9a32cd" stroke-dasharray="5,2" d="M729.098,-48.8369C832.607,-44.1017 1038.44,-41.9025 1206,-85 1223.86,-89.595 1242.64,-98.2857 1257.18,-105.977"/>
<polygon fill="#9a32cd" stroke="#9a32cd" points="728.622,-45.3557 718.802,-49.332 728.958,-52.3476 728.622,-45.3557"/>
<text text-anchor="middle" x="1016" y="-60" font-family="Helvetica,sans-Serif" font-size="10.00"> serial</text>
</g>
<!-- Node14 -->
<g id="node14" class="node"><title>Node14</title>
<g id="a_node14"><a xlink:href="classh_framework_1_1interfaces_1_1_i_serial.html" target="_top" xlink:title="Interface to the serial port. This is a restricted version of hSerial. ">
<polygon fill="white" stroke="black" points="404,-14 404,-44 532,-44 532,-14 404,-14"/>
<text text-anchor="start" x="412" y="-32" font-family="Helvetica,sans-Serif" font-size="10.00">hFramework::interfaces</text>
<text text-anchor="middle" x="468" y="-21" font-family="Helvetica,sans-Serif" font-size="10.00">::ISerial</text>
</a>
</g>
</g>
<!-- Node14&#45;&gt;Node13 -->
<g id="edge21" class="edge"><title>Node14&#45;&gt;Node13</title>
<path fill="none" stroke="midnightblue" d="M542.254,-38.1567C563.157,-40.7696 585.586,-43.5732 605.26,-46.0325"/>
<polygon fill="midnightblue" stroke="midnightblue" points="542.491,-34.6592 532.134,-36.8917 541.623,-41.6051 542.491,-34.6592"/>
</g>
<!-- Node15 -->
<g id="node15" class="node"><title>Node15</title>
<g id="a_node15"><a xlink:href="classh_framework_1_1h_printf_dev.html" target="_top" xlink:title="Provides printf and vprintf methods as extension to hStreamDev. ">
<polygon fill="white" stroke="black" points="236,-19.5 236,-38.5 366,-38.5 366,-19.5 236,-19.5"/>
<text text-anchor="middle" x="301" y="-26.5" font-family="Helvetica,sans-Serif" font-size="10.00">hFramework::hPrintfDev</text>
</a>
</g>
</g>
<!-- Node15&#45;&gt;Node14 -->
<g id="edge22" class="edge"><title>Node15&#45;&gt;Node14</title>
<path fill="none" stroke="midnightblue" d="M376.54,-29C385.712,-29 395.016,-29 403.993,-29"/>
<polygon fill="midnightblue" stroke="midnightblue" points="376.266,-25.5001 366.266,-29 376.266,-32.5001 376.266,-25.5001"/>
</g>
<!-- Node16 -->
<g id="node16" class="node"><title>Node16</title>
<g id="a_node16"><a xlink:href="classh_framework_1_1h_stream_dev.html" target="_top" xlink:title="Stream device interface. ">
<polygon fill="white" stroke="black" points="0.5,-38.5 0.5,-57.5 141.5,-57.5 141.5,-38.5 0.5,-38.5"/>
<text text-anchor="middle" x="71" y="-45.5" font-family="Helvetica,sans-Serif" font-size="10.00">hFramework::hStreamDev</text>
</a>
</g>
</g>
<!-- Node16&#45;&gt;Node15 -->
<g id="edge23" class="edge"><title>Node16&#45;&gt;Node15</title>
<path fill="none" stroke="midnightblue" d="M151.647,-41.3627C179.192,-39.0674 209.687,-36.526 235.83,-34.3475"/>
<polygon fill="midnightblue" stroke="midnightblue" points="151.321,-37.8777 141.646,-42.1961 151.903,-44.8535 151.321,-37.8777"/>
</g>
<!-- Node17 -->
<g id="node17" class="node"><title>Node17</title>
<g id="a_node17"><a xlink:href="classh_framework_1_1h_mutex.html" target="_top" xlink:title="Mutex class. ">
<polygon fill="white" stroke="black" points="13,-0.5 13,-19.5 129,-19.5 129,-0.5 13,-0.5"/>
<text text-anchor="middle" x="71" y="-7.5" font-family="Helvetica,sans-Serif" font-size="10.00">hFramework::hMutex</text>
</a>
</g>
</g>
<!-- Node17&#45;&gt;Node15 -->
<g id="edge24" class="edge"><title>Node17&#45;&gt;Node15</title>
<path fill="none" stroke="#9a32cd" stroke-dasharray="5,2" d="M139.228,-15.4809C163.991,-17.5117 192.272,-19.8446 218,-22 223.838,-22.4891 229.909,-23.001 235.989,-23.516"/>
<polygon fill="#9a32cd" stroke="#9a32cd" points="139.46,-11.9884 129.208,-14.66 138.889,-18.965 139.46,-11.9884"/>
<text text-anchor="middle" x="189" y="-25" font-family="Helvetica,sans-Serif" font-size="10.00"> printfMutex</text>
</g>
</g>
</svg>
