<?xml version="1.0" encoding="UTF-8" standalone="no"?>
<!DOCTYPE svg PUBLIC "-//W3C//DTD SVG 1.1//EN"
 "http://www.w3.org/Graphics/SVG/1.1/DTD/svg11.dtd">
<!-- Generated by graphviz version 2.36.0 (20140111.2315)
 -->
<!-- Title: hFramework::hGPIO_adc Pages: 1 -->
<svg width="264pt" height="164pt"
 viewBox="0.00 0.00 264.00 164.00" xmlns="http://www.w3.org/2000/svg" xmlns:xlink="http://www.w3.org/1999/xlink">
<g id="graph0" class="graph" transform="scale(1 1) rotate(0) translate(4 160)">
<title>hFramework::hGPIO_adc</title>
<polygon fill="white" stroke="none" points="-4,4 -4,-160 260,-160 260,4 -4,4"/>
<!-- Node1 -->
<g id="node1" class="node"><title>Node1</title>
<polygon fill="#bfbfbf" stroke="black" points="57,-0.5 57,-19.5 189,-19.5 189,-0.5 57,-0.5"/>
<text text-anchor="middle" x="123" y="-7.5" font-family="Helvetica,sans-Serif" font-size="10.00">hFramework::hGPIO_adc</text>
</g>
<!-- Node2 -->
<g id="node2" class="node"><title>Node2</title>
<g id="a_node2"><a xlink:href="classh_framework_1_1h_g_p_i_o.html" target="_top" xlink:title="Implementation of on&#45;board General Purpose Input&#45;Output pin (GPIO). ">
<polygon fill="white" stroke="black" points="0,-62.5 0,-81.5 110,-81.5 110,-62.5 0,-62.5"/>
<text text-anchor="middle" x="55" y="-69.5" font-family="Helvetica,sans-Serif" font-size="10.00">hFramework::hGPIO</text>
</a>
</g>
</g>
<!-- Node2&#45;&gt;Node1 -->
<g id="edge1" class="edge"><title>Node2&#45;&gt;Node1</title>
<path fill="none" stroke="midnightblue" d="M72.5433,-55.5206C85.5076,-44.0815 102.679,-28.9305 113.275,-19.5806"/>
<polygon fill="midnightblue" stroke="midnightblue" points="69.9255,-53.1628 64.7427,-62.4035 74.5568,-58.4117 69.9255,-53.1628"/>
</g>
<!-- Node3 -->
<g id="node3" class="node"><title>Node3</title>
<g id="a_node3"><a xlink:href="classh_framework_1_1interfaces_1_1_i_g_p_i_o.html" target="_top" xlink:title="Interface for General Purpose Input&#45;Output pin (GPIO). ">
<polygon fill="white" stroke="black" points="59,-125 59,-155 187,-155 187,-125 59,-125"/>
<text text-anchor="start" x="67" y="-143" font-family="Helvetica,sans-Serif" font-size="10.00">hFramework::interfaces</text>
<text text-anchor="middle" x="123" y="-132" font-family="Helvetica,sans-Serif" font-size="10.00">::IGPIO</text>
</a>
</g>
</g>
<!-- Node3&#45;&gt;Node2 -->
<g id="edge2" class="edge"><title>Node3&#45;&gt;Node2</title>
<path fill="none" stroke="midnightblue" d="M100.858,-117.509C88.3734,-105.392 73.4499,-90.9072 64.0958,-81.8283"/>
<polygon fill="midnightblue" stroke="midnightblue" points="98.6315,-120.226 108.245,-124.679 103.507,-115.203 98.6315,-120.226"/>
</g>
<!-- Node4 -->
<g id="node4" class="node"><title>Node4</title>
<g id="a_node4"><a xlink:href="classh_framework_1_1interfaces_1_1_i_g_p_i_o__adc.html" target="_top" xlink:title="Interface for General Purpose Input&#45;Output pin (GPIO) with ADC capability. ">
<polygon fill="white" stroke="black" points="128,-57 128,-87 256,-87 256,-57 128,-57"/>
<text text-anchor="start" x="136" y="-75" font-family="Helvetica,sans-Serif" font-size="10.00">hFramework::interfaces</text>
<text text-anchor="middle" x="192" y="-64" font-family="Helvetica,sans-Serif" font-size="10.00">::IGPIO_adc</text>
</a>
</g>
</g>
<!-- Node3&#45;&gt;Node4 -->
<g id="edge4" class="edge"><title>Node3&#45;&gt;Node4</title>
<path fill="none" stroke="midnightblue" d="M145.492,-117.485C155.843,-107.585 167.84,-96.1092 177.057,-87.2931"/>
<polygon fill="midnightblue" stroke="midnightblue" points="142.779,-115.237 137.972,-124.679 147.618,-120.296 142.779,-115.237"/>
</g>
<!-- Node4&#45;&gt;Node1 -->
<g id="edge3" class="edge"><title>Node4&#45;&gt;Node1</title>
<path fill="none" stroke="midnightblue" d="M167.76,-49.9216C155.836,-39.5533 142.114,-27.6209 133.04,-19.7305"/>
<polygon fill="midnightblue" stroke="midnightblue" points="165.805,-52.8601 175.648,-56.7808 170.399,-47.5779 165.805,-52.8601"/>
</g>
</g>
</svg>
