<?xml version="1.0" encoding="UTF-8" standalone="no"?>
<!DOCTYPE svg PUBLIC "-//W3C//DTD SVG 1.1//EN"
 "http://www.w3.org/Graphics/SVG/1.1/DTD/svg11.dtd">
<!-- Generated by graphviz version 2.36.0 (20140111.2315)
 -->
<!-- Title: hFramework::hSensor_i2c Pages: 1 -->
<svg width="1140pt" height="283pt"
 viewBox="0.00 0.00 1140.00 283.00" xmlns="http://www.w3.org/2000/svg" xmlns:xlink="http://www.w3.org/1999/xlink">
<g id="graph0" class="graph" transform="scale(1 1) rotate(0) translate(4 279)">
<title>hFramework::hSensor_i2c</title>
<polygon fill="white" stroke="none" points="-4,4 -4,-279 1136,-279 1136,4 -4,4"/>
<!-- Node1 -->
<g id="node1" class="node"><title>Node1</title>
<polygon fill="#bfbfbf" stroke="black" points="992.5,-97.5 992.5,-116.5 1131.5,-116.5 1131.5,-97.5 992.5,-97.5"/>
<text text-anchor="middle" x="1062" y="-104.5" font-family="Helvetica,sans-Serif" font-size="10.00">hFramework::hSensor_i2c</text>
</g>
<!-- Node2 -->
<g id="node2" class="node"><title>Node2</title>
<g id="a_node2"><a xlink:href="classh_framework_1_1h_sensor.html" target="_top" xlink:title="base implementation for on&#45;board hSensor port. ">
<polygon fill="white" stroke="black" points="830,-141.5 830,-160.5 950,-160.5 950,-141.5 830,-141.5"/>
<text text-anchor="middle" x="890" y="-148.5" font-family="Helvetica,sans-Serif" font-size="10.00">hFramework::hSensor</text>
</a>
</g>
</g>
<!-- Node2&#45;&gt;Node1 -->
<g id="edge1" class="edge"><title>Node2&#45;&gt;Node1</title>
<path fill="none" stroke="midnightblue" d="M937.602,-138.938C964.867,-131.882 998.805,-123.098 1024.18,-116.529"/>
<polygon fill="midnightblue" stroke="midnightblue" points="936.691,-135.559 927.887,-141.453 938.445,-142.335 936.691,-135.559"/>
</g>
<!-- Node3 -->
<g id="node3" class="node"><title>Node3</title>
<g id="a_node3"><a xlink:href="classh_framework_1_1interfaces_1_1_i_sensor.html" target="_top" xlink:title="Interface to hSensor port. ">
<polygon fill="white" stroke="black" points="607,-204 607,-234 735,-234 735,-204 607,-204"/>
<text text-anchor="start" x="615" y="-222" font-family="Helvetica,sans-Serif" font-size="10.00">hFramework::interfaces</text>
<text text-anchor="middle" x="671" y="-211" font-family="Helvetica,sans-Serif" font-size="10.00">::ISensor</text>
</a>
</g>
</g>
<!-- Node3&#45;&gt;Node2 -->
<g id="edge2" class="edge"><title>Node3&#45;&gt;Node2</title>
<path fill="none" stroke="midnightblue" d="M737.286,-201.202C759.788,-194.823 785.088,-187.378 808,-180 826.767,-173.956 847.716,-166.435 863.607,-160.567"/>
<polygon fill="midnightblue" stroke="midnightblue" points="736.173,-197.879 727.497,-203.96 738.071,-204.616 736.173,-197.879"/>
</g>
<!-- Node12 -->
<g id="node12" class="node"><title>Node12</title>
<g id="a_node12"><a xlink:href="classh_framework_1_1interfaces_1_1_i_sensor__i2c.html" target="_top" xlink:title="Interface to I2C capable hSensor port. ">
<polygon fill="white" stroke="black" points="826,-192 826,-222 954,-222 954,-192 826,-192"/>
<text text-anchor="start" x="834" y="-210" font-family="Helvetica,sans-Serif" font-size="10.00">hFramework::interfaces</text>
<text text-anchor="middle" x="890" y="-199" font-family="Helvetica,sans-Serif" font-size="10.00">::ISensor_i2c</text>
</a>
</g>
</g>
<!-- Node3&#45;&gt;Node12 -->
<g id="edge18" class="edge"><title>Node3&#45;&gt;Node12</title>
<path fill="none" stroke="midnightblue" d="M745.282,-214.948C771.404,-213.503 800.582,-211.889 825.786,-210.496"/>
<polygon fill="midnightblue" stroke="midnightblue" points="744.848,-211.466 735.057,-215.513 745.235,-218.455 744.848,-211.466"/>
</g>
<!-- Node4 -->
<g id="node4" class="node"><title>Node4</title>
<g id="a_node4"><a xlink:href="classh_framework_1_1h_g_p_i_o.html" target="_top" xlink:title="Implementation of on&#45;board General Purpose Input&#45;Output pin (GPIO). ">
<polygon fill="white" stroke="black" points="175,-128.5 175,-147.5 285,-147.5 285,-128.5 175,-128.5"/>
<text text-anchor="middle" x="230" y="-135.5" font-family="Helvetica,sans-Serif" font-size="10.00">hFramework::hGPIO</text>
</a>
</g>
</g>
<!-- Node4&#45;&gt;Node1 -->
<g id="edge19" class="edge"><title>Node4&#45;&gt;Node1</title>
<path fill="none" stroke="#9a32cd" stroke-dasharray="5,2" d="M261.729,-124.407C300.087,-108.703 368.078,-85 429,-85 429,-85 429,-85 891,-85 932.515,-85 979.265,-91.5327 1013.22,-97.4784"/>
<polygon fill="#9a32cd" stroke="#9a32cd" points="260.055,-121.313 252.182,-128.402 262.758,-127.77 260.055,-121.313"/>
<text text-anchor="middle" x="671" y="-99" font-family="Helvetica,sans-Serif" font-size="10.00"> pin1</text>
<text text-anchor="middle" x="671" y="-88" font-family="Helvetica,sans-Serif" font-size="10.00">pin2</text>
</g>
<!-- Node4&#45;&gt;Node2 -->
<g id="edge3" class="edge"><title>Node4&#45;&gt;Node2</title>
<path fill="none" stroke="#9a32cd" stroke-dasharray="5,2" d="M295.137,-139.267C422.656,-141.787 706.361,-147.392 829.762,-149.83"/>
<polygon fill="#9a32cd" stroke="#9a32cd" points="295.194,-135.768 285.127,-139.069 295.055,-142.766 295.194,-135.768"/>
<text text-anchor="middle" x="548" y="-148" font-family="Helvetica,sans-Serif" font-size="10.00"> currentSrcPin</text>
</g>
<!-- Node7 -->
<g id="node7" class="node"><title>Node7</title>
<g id="a_node7"><a xlink:href="classh_framework_1_1h_g_p_i_o__adc.html" target="_top" xlink:title="Implementation of on&#45;board General Purpose Input&#45;Output pin (GPIO) with ADC capability. ">
<polygon fill="white" stroke="black" points="364,-163.5 364,-182.5 496,-182.5 496,-163.5 364,-163.5"/>
<text text-anchor="middle" x="430" y="-170.5" font-family="Helvetica,sans-Serif" font-size="10.00">hFramework::hGPIO_adc</text>
</a>
</g>
</g>
<!-- Node4&#45;&gt;Node7 -->
<g id="edge7" class="edge"><title>Node4&#45;&gt;Node7</title>
<path fill="none" stroke="midnightblue" d="M294.94,-149.303C320.833,-153.88 350.401,-159.106 375.168,-163.484"/>
<polygon fill="midnightblue" stroke="midnightblue" points="295.299,-145.812 284.843,-147.518 294.081,-152.705 295.299,-145.812"/>
</g>
<!-- Node9 -->
<g id="node9" class="node"><title>Node9</title>
<g id="a_node9"><a xlink:href="classh_framework_1_1h_g_p_i_o__int.html" target="_top" xlink:title="Implementation of on&#45;board General Purpose Input&#45;Output pin (GPIO) with interrupt capability...">
<polygon fill="white" stroke="black" points="366.5,-201.5 366.5,-220.5 493.5,-220.5 493.5,-201.5 366.5,-201.5"/>
<text text-anchor="middle" x="430" y="-208.5" font-family="Helvetica,sans-Serif" font-size="10.00">hFramework::hGPIO_int</text>
</a>
</g>
</g>
<!-- Node4&#45;&gt;Node9 -->
<g id="edge11" class="edge"><title>Node4&#45;&gt;Node9</title>
<path fill="none" stroke="midnightblue" d="M270.248,-150.835C278.182,-153.672 286.413,-156.794 294,-160 302.239,-163.481 303.908,-165.19 312,-169 334.863,-179.765 340.265,-183.325 364,-192 373.386,-195.431 383.705,-198.678 393.303,-201.485"/>
<polygon fill="midnightblue" stroke="midnightblue" points="271.378,-147.522 260.783,-147.528 269.069,-154.13 271.378,-147.522"/>
</g>
<!-- Node13 -->
<g id="node13" class="node"><title>Node13</title>
<g id="a_node13"><a xlink:href="classh_framework_1_1h_i2_c.html" target="_top" xlink:title="Implementation of on&#45;board I2C interface. ">
<polygon fill="white" stroke="black" points="379.5,-29.5 379.5,-48.5 480.5,-48.5 480.5,-29.5 379.5,-29.5"/>
<text text-anchor="middle" x="430" y="-36.5" font-family="Helvetica,sans-Serif" font-size="10.00">hFramework::hI2C</text>
</a>
</g>
</g>
<!-- Node4&#45;&gt;Node13 -->
<g id="edge22" class="edge"><title>Node4&#45;&gt;Node13</title>
<path fill="none" stroke="#9a32cd" stroke-dasharray="5,2" d="M241.714,-119.606C255.153,-98.4566 280.325,-64.6479 312,-49 332.563,-38.8419 357.648,-35.6806 379.309,-35.3283"/>
<polygon fill="#9a32cd" stroke="#9a32cd" points="238.615,-117.965 236.384,-128.322 244.587,-121.617 238.615,-117.965"/>
<text text-anchor="middle" x="329" y="-63" font-family="Helvetica,sans-Serif" font-size="10.00"> pinScl</text>
<text text-anchor="middle" x="329" y="-52" font-family="Helvetica,sans-Serif" font-size="10.00">pinSda</text>
</g>
<!-- Node5 -->
<g id="node5" class="node"><title>Node5</title>
<g id="a_node5"><a xlink:href="classh_framework_1_1interfaces_1_1_i_g_p_i_o.html" target="_top" xlink:title="Interface for General Purpose Input&#45;Output pin (GPIO). ">
<polygon fill="white" stroke="black" points="0,-170 0,-200 128,-200 128,-170 0,-170"/>
<text text-anchor="start" x="8" y="-188" font-family="Helvetica,sans-Serif" font-size="10.00">hFramework::interfaces</text>
<text text-anchor="middle" x="64" y="-177" font-family="Helvetica,sans-Serif" font-size="10.00">::IGPIO</text>
</a>
</g>
</g>
<!-- Node5&#45;&gt;Node4 -->
<g id="edge4" class="edge"><title>Node5&#45;&gt;Node4</title>
<path fill="none" stroke="midnightblue" d="M127.16,-167.186C150.45,-160.511 176.011,-153.186 195.699,-147.543"/>
<polygon fill="midnightblue" stroke="midnightblue" points="125.99,-163.88 117.342,-170 127.919,-170.609 125.99,-163.88"/>
</g>
<!-- Node8 -->
<g id="node8" class="node"><title>Node8</title>
<g id="a_node8"><a xlink:href="classh_framework_1_1interfaces_1_1_i_g_p_i_o__adc.html" target="_top" xlink:title="Interface for General Purpose Input&#45;Output pin (GPIO) with ADC capability. ">
<polygon fill="white" stroke="black" points="166,-170 166,-200 294,-200 294,-170 166,-170"/>
<text text-anchor="start" x="174" y="-188" font-family="Helvetica,sans-Serif" font-size="10.00">hFramework::interfaces</text>
<text text-anchor="middle" x="230" y="-177" font-family="Helvetica,sans-Serif" font-size="10.00">::IGPIO_adc</text>
</a>
</g>
</g>
<!-- Node5&#45;&gt;Node8 -->
<g id="edge9" class="edge"><title>Node5&#45;&gt;Node8</title>
<path fill="none" stroke="midnightblue" d="M138.57,-185C147.645,-185 156.859,-185 165.762,-185"/>
<polygon fill="midnightblue" stroke="midnightblue" points="138.407,-181.5 128.407,-185 138.407,-188.5 138.407,-181.5"/>
</g>
<!-- Node10 -->
<g id="node10" class="node"><title>Node10</title>
<g id="a_node10"><a xlink:href="classh_framework_1_1interfaces_1_1_i_g_p_i_o__int.html" target="_top" xlink:title="Interface for General Purpose Input&#45;Output pin (GPIO) with interrupt capability. ">
<polygon fill="white" stroke="black" points="166,-220 166,-250 294,-250 294,-220 166,-220"/>
<text text-anchor="start" x="174" y="-238" font-family="Helvetica,sans-Serif" font-size="10.00">hFramework::interfaces</text>
<text text-anchor="middle" x="230" y="-227" font-family="Helvetica,sans-Serif" font-size="10.00">::IGPIO_int</text>
</a>
</g>
</g>
<!-- Node5&#45;&gt;Node10 -->
<g id="edge13" class="edge"><title>Node5&#45;&gt;Node10</title>
<path fill="none" stroke="midnightblue" d="M123.857,-202.944C142.101,-208.506 162.009,-214.576 179.546,-219.923"/>
<polygon fill="midnightblue" stroke="midnightblue" points="124.791,-199.57 114.205,-200.002 122.75,-206.266 124.791,-199.57"/>
</g>
<!-- Node6 -->
<g id="node6" class="node"><title>Node6</title>
<g id="a_node6"><a xlink:href="classh_framework_1_1h_g_p_i_o__super.html" target="_top" xlink:title="Implementation of on&#45;board General Purpose Input&#45;Output pin (GPIO) with interrupt and ADC capability...">
<polygon fill="white" stroke="black" points="600,-164.5 600,-183.5 742,-183.5 742,-164.5 600,-164.5"/>
<text text-anchor="middle" x="671" y="-171.5" font-family="Helvetica,sans-Serif" font-size="10.00">hFramework::hGPIO_super</text>
</a>
</g>
</g>
<!-- Node6&#45;&gt;Node2 -->
<g id="edge5" class="edge"><title>Node6&#45;&gt;Node2</title>
<path fill="none" stroke="#9a32cd" stroke-dasharray="5,2" d="M752.273,-165.492C778.024,-162.762 806.055,-159.791 829.994,-157.254"/>
<polygon fill="#9a32cd" stroke="#9a32cd" points="751.729,-162.03 742.154,-166.564 752.467,-168.991 751.729,-162.03"/>
<text text-anchor="middle" x="784" y="-168" font-family="Helvetica,sans-Serif" font-size="10.00"> pinIntAdc</text>
</g>
<!-- Node7&#45;&gt;Node6 -->
<g id="edge6" class="edge"><title>Node7&#45;&gt;Node6</title>
<path fill="none" stroke="midnightblue" d="M506.659,-173.317C536.463,-173.441 570.491,-173.584 599.746,-173.706"/>
<polygon fill="midnightblue" stroke="midnightblue" points="506.322,-169.815 496.308,-173.273 506.293,-176.815 506.322,-169.815"/>
</g>
<!-- Node8&#45;&gt;Node7 -->
<g id="edge8" class="edge"><title>Node8&#45;&gt;Node7</title>
<path fill="none" stroke="midnightblue" d="M304.237,-180.561C323.726,-179.38 344.648,-178.112 363.683,-176.959"/>
<polygon fill="midnightblue" stroke="midnightblue" points="303.963,-177.071 294.193,-181.17 304.386,-184.059 303.963,-177.071"/>
</g>
<!-- Node11 -->
<g id="node11" class="node"><title>Node11</title>
<g id="a_node11"><a xlink:href="classh_framework_1_1interfaces_1_1_i_g_p_i_o__super.html" target="_top" xlink:title="Interface for General Purpose Input&#45;Output pin (GPIO) with interrupt and ADC capability. ">
<polygon fill="white" stroke="black" points="366,-245 366,-275 494,-275 494,-245 366,-245"/>
<text text-anchor="start" x="374" y="-263" font-family="Helvetica,sans-Serif" font-size="10.00">hFramework::interfaces</text>
<text text-anchor="middle" x="430" y="-252" font-family="Helvetica,sans-Serif" font-size="10.00">::IGPIO_super</text>
</a>
</g>
</g>
<!-- Node8&#45;&gt;Node11 -->
<g id="edge16" class="edge"><title>Node8&#45;&gt;Node11</title>
<path fill="none" stroke="midnightblue" d="M280.699,-203.825C314.297,-216.552 358.067,-233.131 389.33,-244.973"/>
<polygon fill="midnightblue" stroke="midnightblue" points="281.66,-200.447 271.068,-200.177 279.18,-206.993 281.66,-200.447"/>
</g>
<!-- Node9&#45;&gt;Node6 -->
<g id="edge10" class="edge"><title>Node9&#45;&gt;Node6</title>
<path fill="none" stroke="midnightblue" d="M503.887,-199.998C528.681,-196.228 556.553,-191.962 582,-188 591.171,-186.572 600.878,-185.044 610.364,-183.542"/>
<polygon fill="midnightblue" stroke="midnightblue" points="503.19,-196.563 493.829,-201.525 504.241,-203.484 503.19,-196.563"/>
</g>
<!-- Node10&#45;&gt;Node9 -->
<g id="edge12" class="edge"><title>Node10&#45;&gt;Node9</title>
<path fill="none" stroke="midnightblue" d="M304.373,-226.106C324.759,-223.635 346.701,-220.976 366.407,-218.587"/>
<polygon fill="midnightblue" stroke="midnightblue" points="303.699,-222.662 294.193,-227.34 304.541,-229.611 303.699,-222.662"/>
</g>
<!-- Node10&#45;&gt;Node11 -->
<g id="edge15" class="edge"><title>Node10&#45;&gt;Node11</title>
<path fill="none" stroke="midnightblue" d="M266.524,-254.645C280.295,-261.216 296.467,-267.704 312,-271 329.263,-274.664 348.218,-274.595 365.751,-272.899"/>
<polygon fill="midnightblue" stroke="midnightblue" points="267.924,-251.432 257.411,-250.12 264.812,-257.702 267.924,-251.432"/>
</g>
<!-- Node11&#45;&gt;Node6 -->
<g id="edge14" class="edge"><title>Node11&#45;&gt;Node6</title>
<path fill="none" stroke="midnightblue" d="M496.908,-241.939C524.015,-233.338 555.258,-221.873 582,-208 590.76,-203.456 591.151,-199.367 600,-195 609.33,-190.395 619.864,-186.586 629.875,-183.535"/>
<polygon fill="midnightblue" stroke="midnightblue" points="495.637,-238.669 487.125,-244.977 497.713,-245.354 495.637,-238.669"/>
</g>
<!-- Node12&#45;&gt;Node1 -->
<g id="edge17" class="edge"><title>Node12&#45;&gt;Node1</title>
<path fill="none" stroke="midnightblue" d="M925.377,-186.82C934.668,-181.363 944.72,-175.457 954,-170 986.148,-151.096 1023.71,-128.971 1044.69,-116.612"/>
<polygon fill="midnightblue" stroke="midnightblue" points="923.602,-183.803 916.751,-191.885 927.147,-189.839 923.602,-183.803"/>
</g>
<!-- Node13&#45;&gt;Node1 -->
<g id="edge20" class="edge"><title>Node13&#45;&gt;Node1</title>
<path fill="none" stroke="#9a32cd" stroke-dasharray="5,2" d="M490.868,-35.965C591.935,-32.2898 802.181,-30.9049 974,-71 998.833,-76.7949 1025.71,-88.8955 1042.91,-97.4647"/>
<polygon fill="#9a32cd" stroke="#9a32cd" points="490.705,-32.4685 480.847,-36.3501 490.974,-39.4634 490.705,-32.4685"/>
<text text-anchor="middle" x="784" y="-48" font-family="Helvetica,sans-Serif" font-size="10.00"> i2c</text>
</g>
<!-- Node14 -->
<g id="node14" class="node"><title>Node14</title>
<g id="a_node14"><a xlink:href="classh_framework_1_1interfaces_1_1_i_i2_c.html" target="_top" xlink:title="Interface for I2C. ">
<polygon fill="white" stroke="black" points="166,-0 166,-30 294,-30 294,-0 166,-0"/>
<text text-anchor="start" x="174" y="-18" font-family="Helvetica,sans-Serif" font-size="10.00">hFramework::interfaces</text>
<text text-anchor="middle" x="230" y="-7" font-family="Helvetica,sans-Serif" font-size="10.00">::II2C</text>
</a>
</g>
</g>
<!-- Node14&#45;&gt;Node13 -->
<g id="edge21" class="edge"><title>Node14&#45;&gt;Node13</title>
<path fill="none" stroke="midnightblue" d="M304.353,-23.8913C329.299,-26.9151 356.579,-30.2217 379.241,-32.9686"/>
<polygon fill="midnightblue" stroke="midnightblue" points="304.541,-20.3886 294.193,-22.6597 303.699,-27.3377 304.541,-20.3886"/>
</g>
</g>
</svg>
