<?xml version="1.0" encoding="UTF-8" standalone="no"?>
<!DOCTYPE svg PUBLIC "-//W3C//DTD SVG 1.1//EN"
 "http://www.w3.org/Graphics/SVG/1.1/DTD/svg11.dtd">
<!-- Generated by graphviz version 2.36.0 (20140111.2315)
 -->
<!-- Title: hFramework::interfaces::IGPIO Pages: 1 -->
<svg width="646pt" height="126pt"
 viewBox="0.00 0.00 646.00 126.00" xmlns="http://www.w3.org/2000/svg" xmlns:xlink="http://www.w3.org/1999/xlink">
<g id="graph0" class="graph" transform="scale(1 1) rotate(0) translate(4 122)">
<title>hFramework::interfaces::IGPIO</title>
<polygon fill="white" stroke="none" points="-4,4 -4,-122 642,-122 642,4 -4,4"/>
<!-- Node1 -->
<g id="node1" class="node"><title>Node1</title>
<polygon fill="#bfbfbf" stroke="black" points="0,-49 0,-79 128,-79 128,-49 0,-49"/>
<text text-anchor="start" x="8" y="-67" font-family="Helvetica,sans-Serif" font-size="10.00">hFramework::interfaces</text>
<text text-anchor="middle" x="64" y="-56" font-family="Helvetica,sans-Serif" font-size="10.00">::IGPIO</text>
</g>
<!-- Node2 -->
<g id="node2" class="node"><title>Node2</title>
<g id="a_node2"><a xlink:href="classh_framework_1_1h_g_p_i_o.html" target="_top" xlink:title="Implementation of on&#45;board General Purpose Input&#45;Output pin (GPIO). ">
<polygon fill="white" stroke="black" points="173,-98.5 173,-117.5 283,-117.5 283,-98.5 173,-98.5"/>
<text text-anchor="middle" x="228" y="-105.5" font-family="Helvetica,sans-Serif" font-size="10.00">hFramework::hGPIO</text>
</a>
</g>
</g>
<!-- Node1&#45;&gt;Node2 -->
<g id="edge1" class="edge"><title>Node1&#45;&gt;Node2</title>
<path fill="none" stroke="midnightblue" d="M130.157,-81.6969C151.192,-87.4101 173.71,-93.5262 191.735,-98.4217"/>
<polygon fill="midnightblue" stroke="midnightblue" points="130.866,-78.2628 120.298,-79.0192 129.031,-85.018 130.866,-78.2628"/>
</g>
<!-- Node6 -->
<g id="node6" class="node"><title>Node6</title>
<g id="a_node6"><a xlink:href="classh_framework_1_1interfaces_1_1_i_g_p_i_o__adc.html" target="_top" xlink:title="Interface for General Purpose Input&#45;Output pin (GPIO) with ADC capability. ">
<polygon fill="white" stroke="black" points="164,-49 164,-79 292,-79 292,-49 164,-49"/>
<text text-anchor="start" x="172" y="-67" font-family="Helvetica,sans-Serif" font-size="10.00">hFramework::interfaces</text>
<text text-anchor="middle" x="228" y="-56" font-family="Helvetica,sans-Serif" font-size="10.00">::IGPIO_adc</text>
</a>
</g>
</g>
<!-- Node1&#45;&gt;Node6 -->
<g id="edge6" class="edge"><title>Node1&#45;&gt;Node6</title>
<path fill="none" stroke="midnightblue" d="M138.374,-64C146.865,-64 155.469,-64 163.808,-64"/>
<polygon fill="midnightblue" stroke="midnightblue" points="138.097,-60.5001 128.097,-64 138.097,-67.5001 138.097,-60.5001"/>
</g>
<!-- Node8 -->
<g id="node8" class="node"><title>Node8</title>
<g id="a_node8"><a xlink:href="classh_framework_1_1interfaces_1_1_i_g_p_i_o__int.html" target="_top" xlink:title="Interface for General Purpose Input&#45;Output pin (GPIO) with interrupt capability. ">
<polygon fill="white" stroke="black" points="164,-0 164,-30 292,-30 292,-0 164,-0"/>
<text text-anchor="start" x="172" y="-18" font-family="Helvetica,sans-Serif" font-size="10.00">hFramework::interfaces</text>
<text text-anchor="middle" x="228" y="-7" font-family="Helvetica,sans-Serif" font-size="10.00">::IGPIO_int</text>
</a>
</g>
</g>
<!-- Node1&#45;&gt;Node8 -->
<g id="edge10" class="edge"><title>Node1&#45;&gt;Node8</title>
<path fill="none" stroke="midnightblue" d="M124.884,-45.8871C142.106,-40.6778 160.698,-35.0543 177.238,-30.0516"/>
<polygon fill="midnightblue" stroke="midnightblue" points="123.486,-42.6532 114.927,-48.8986 125.512,-49.3534 123.486,-42.6532"/>
</g>
<!-- Node3 -->
<g id="node3" class="node"><title>Node3</title>
<g id="a_node3"><a xlink:href="classh_framework_1_1h_g_p_i_o__adc.html" target="_top" xlink:title="Implementation of on&#45;board General Purpose Input&#45;Output pin (GPIO) with ADC capability. ">
<polygon fill="white" stroke="black" points="328,-92.5 328,-111.5 460,-111.5 460,-92.5 328,-92.5"/>
<text text-anchor="middle" x="394" y="-99.5" font-family="Helvetica,sans-Serif" font-size="10.00">hFramework::hGPIO_adc</text>
</a>
</g>
</g>
<!-- Node2&#45;&gt;Node3 -->
<g id="edge2" class="edge"><title>Node2&#45;&gt;Node3</title>
<path fill="none" stroke="midnightblue" d="M293.376,-105.645C304.678,-105.231 316.448,-104.801 327.773,-104.386"/>
<polygon fill="midnightblue" stroke="midnightblue" points="293.02,-102.155 283.154,-106.019 293.276,-109.151 293.02,-102.155"/>
</g>
<!-- Node5 -->
<g id="node5" class="node"><title>Node5</title>
<g id="a_node5"><a xlink:href="classh_framework_1_1h_g_p_i_o__int.html" target="_top" xlink:title="Implementation of on&#45;board General Purpose Input&#45;Output pin (GPIO) with interrupt capability...">
<polygon fill="white" stroke="black" points="330.5,-54.5 330.5,-73.5 457.5,-73.5 457.5,-54.5 330.5,-54.5"/>
<text text-anchor="middle" x="394" y="-61.5" font-family="Helvetica,sans-Serif" font-size="10.00">hFramework::hGPIO_int</text>
</a>
</g>
</g>
<!-- Node2&#45;&gt;Node5 -->
<g id="edge4" class="edge"><title>Node2&#45;&gt;Node5</title>
<path fill="none" stroke="midnightblue" d="M274.304,-95.8453C300.547,-88.8045 333.107,-80.0688 357.484,-73.5287"/>
<polygon fill="midnightblue" stroke="midnightblue" points="273.337,-92.4808 264.586,-98.4527 275.151,-99.2417 273.337,-92.4808"/>
</g>
<!-- Node4 -->
<g id="node4" class="node"><title>Node4</title>
<g id="a_node4"><a xlink:href="classh_framework_1_1h_g_p_i_o__super.html" target="_top" xlink:title="Implementation of on&#45;board General Purpose Input&#45;Output pin (GPIO) with interrupt and ADC capability...">
<polygon fill="white" stroke="black" points="496,-54.5 496,-73.5 638,-73.5 638,-54.5 496,-54.5"/>
<text text-anchor="middle" x="567" y="-61.5" font-family="Helvetica,sans-Serif" font-size="10.00">hFramework::hGPIO_super</text>
</a>
</g>
</g>
<!-- Node3&#45;&gt;Node4 -->
<g id="edge3" class="edge"><title>Node3&#45;&gt;Node4</title>
<path fill="none" stroke="midnightblue" d="M448.209,-90.1757C472.317,-84.8184 500.44,-78.5689 523.16,-73.5201"/>
<polygon fill="midnightblue" stroke="midnightblue" points="447.153,-86.825 438.151,-92.411 448.672,-93.6583 447.153,-86.825"/>
</g>
<!-- Node5&#45;&gt;Node4 -->
<g id="edge5" class="edge"><title>Node5&#45;&gt;Node4</title>
<path fill="none" stroke="midnightblue" d="M467.999,-64C477.214,-64 486.626,-64 495.796,-64"/>
<polygon fill="midnightblue" stroke="midnightblue" points="467.703,-60.5001 457.703,-64 467.703,-67.5001 467.703,-60.5001"/>
</g>
<!-- Node6&#45;&gt;Node3 -->
<g id="edge7" class="edge"><title>Node6&#45;&gt;Node3</title>
<path fill="none" stroke="midnightblue" d="M302.268,-80.9768C319.153,-84.8891 336.537,-88.9171 351.513,-92.3872"/>
<polygon fill="midnightblue" stroke="midnightblue" points="302.939,-77.5395 292.407,-78.6918 301.359,-84.3588 302.939,-77.5395"/>
</g>
<!-- Node7 -->
<g id="node7" class="node"><title>Node7</title>
<g id="a_node7"><a xlink:href="classh_framework_1_1interfaces_1_1_i_g_p_i_o__super.html" target="_top" xlink:title="Interface for General Purpose Input&#45;Output pin (GPIO) with interrupt and ADC capability. ">
<polygon fill="white" stroke="black" points="330,-5 330,-35 458,-35 458,-5 330,-5"/>
<text text-anchor="start" x="338" y="-23" font-family="Helvetica,sans-Serif" font-size="10.00">hFramework::interfaces</text>
<text text-anchor="middle" x="394" y="-12" font-family="Helvetica,sans-Serif" font-size="10.00">::IGPIO_super</text>
</a>
</g>
</g>
<!-- Node6&#45;&gt;Node7 -->
<g id="edge8" class="edge"><title>Node6&#45;&gt;Node7</title>
<path fill="none" stroke="midnightblue" d="M294.984,-46.2971C308.91,-42.5608 323.477,-38.6525 336.993,-35.0262"/>
<polygon fill="midnightblue" stroke="midnightblue" points="293.732,-43.009 284.981,-48.9808 295.546,-49.7699 293.732,-43.009"/>
</g>
<!-- Node7&#45;&gt;Node4 -->
<g id="edge9" class="edge"><title>Node7&#45;&gt;Node4</title>
<path fill="none" stroke="midnightblue" d="M463.213,-37.5518C485.677,-43.332 509.802,-49.5398 529.031,-54.4876"/>
<polygon fill="midnightblue" stroke="midnightblue" points="463.927,-34.1217 453.37,-35.0192 462.183,-40.9008 463.927,-34.1217"/>
</g>
<!-- Node8&#45;&gt;Node5 -->
<g id="edge11" class="edge"><title>Node8&#45;&gt;Node5</title>
<path fill="none" stroke="midnightblue" d="M289.389,-33.043C313.641,-40.2891 340.609,-48.3467 360.952,-54.4246"/>
<polygon fill="midnightblue" stroke="midnightblue" points="290.127,-29.6107 279.544,-30.1014 288.123,-36.3178 290.127,-29.6107"/>
</g>
<!-- Node8&#45;&gt;Node7 -->
<g id="edge12" class="edge"><title>Node8&#45;&gt;Node7</title>
<path fill="none" stroke="midnightblue" d="M302.57,-17.243C311.645,-17.5197 320.859,-17.8006 329.762,-18.072"/>
<polygon fill="midnightblue" stroke="midnightblue" points="302.509,-13.7396 292.407,-16.9331 302.295,-20.7363 302.509,-13.7396"/>
</g>
</g>
</svg>
