<?xml version="1.0" encoding="UTF-8" standalone="no"?>
<!DOCTYPE svg PUBLIC "-//W3C//DTD SVG 1.1//EN"
 "http://www.w3.org/Graphics/SVG/1.1/DTD/svg11.dtd">
<!-- Generated by graphviz version 2.36.0 (20140111.2315)
 -->
<!-- Title: hFramework::interfaces::ISerial Pages: 1 -->
<svg width="282pt" height="166pt"
 viewBox="0.00 0.00 282.00 166.00" xmlns="http://www.w3.org/2000/svg" xmlns:xlink="http://www.w3.org/1999/xlink">
<g id="graph0" class="graph" transform="scale(1 1) rotate(0) translate(4 162)">
<title>hFramework::interfaces::ISerial</title>
<polygon fill="white" stroke="none" points="-4,4 -4,-162 278,-162 278,4 -4,4"/>
<!-- Node1 -->
<g id="node1" class="node"><title>Node1</title>
<polygon fill="#bfbfbf" stroke="black" points="79,-1 79,-31 207,-31 207,-1 79,-1"/>
<text text-anchor="start" x="87" y="-19" font-family="Helvetica,sans-Serif" font-size="10.00">hFramework::interfaces</text>
<text text-anchor="middle" x="143" y="-8" font-family="Helvetica,sans-Serif" font-size="10.00">::ISerial</text>
</g>
<!-- Node2 -->
<g id="node2" class="node"><title>Node2</title>
<g id="a_node2"><a xlink:href="classh_framework_1_1h_printf_dev.html" target="_top" xlink:title="Provides printf and vprintf methods as extension to hStreamDev. ">
<polygon fill="white" stroke="black" points="78,-70.5 78,-89.5 208,-89.5 208,-70.5 78,-70.5"/>
<text text-anchor="middle" x="143" y="-77.5" font-family="Helvetica,sans-Serif" font-size="10.00">hFramework::hPrintfDev</text>
</a>
</g>
</g>
<!-- Node2&#45;&gt;Node1 -->
<g id="edge1" class="edge"><title>Node2&#45;&gt;Node1</title>
<path fill="none" stroke="midnightblue" d="M143,-60.1826C143,-50.8859 143,-39.8507 143,-31.263"/>
<polygon fill="midnightblue" stroke="midnightblue" points="139.5,-60.3791 143,-70.3792 146.5,-60.3792 139.5,-60.3791"/>
</g>
<!-- Node3 -->
<g id="node3" class="node"><title>Node3</title>
<g id="a_node3"><a xlink:href="classh_framework_1_1h_stream_dev.html" target="_top" xlink:title="Stream device interface. ">
<polygon fill="white" stroke="black" points="-0.5,-138.5 -0.5,-157.5 140.5,-157.5 140.5,-138.5 -0.5,-138.5"/>
<text text-anchor="middle" x="70" y="-145.5" font-family="Helvetica,sans-Serif" font-size="10.00">hFramework::hStreamDev</text>
</a>
</g>
</g>
<!-- Node3&#45;&gt;Node2 -->
<g id="edge2" class="edge"><title>Node3&#45;&gt;Node2</title>
<path fill="none" stroke="midnightblue" d="M87.241,-131.412C101.582,-118.447 121.481,-100.456 133.221,-89.8411"/>
<polygon fill="midnightblue" stroke="midnightblue" points="84.614,-129.069 79.5435,-138.372 89.3085,-134.261 84.614,-129.069"/>
</g>
<!-- Node4 -->
<g id="node4" class="node"><title>Node4</title>
<g id="a_node4"><a xlink:href="classh_framework_1_1h_mutex.html" target="_top" xlink:title="Mutex class. ">
<polygon fill="white" stroke="black" points="159,-138.5 159,-157.5 275,-157.5 275,-138.5 159,-138.5"/>
<text text-anchor="middle" x="217" y="-145.5" font-family="Helvetica,sans-Serif" font-size="10.00">hFramework::hMutex</text>
</a>
</g>
</g>
<!-- Node4&#45;&gt;Node2 -->
<g id="edge3" class="edge"><title>Node4&#45;&gt;Node2</title>
<path fill="none" stroke="#9a32cd" stroke-dasharray="5,2" d="M199.523,-131.412C184.986,-118.447 164.814,-100.456 152.913,-89.8411"/>
<polygon fill="#9a32cd" stroke="#9a32cd" points="197.533,-134.328 207.326,-138.372 202.192,-129.103 197.533,-134.328"/>
<text text-anchor="middle" x="216" y="-111.5" font-family="Helvetica,sans-Serif" font-size="10.00"> printfMutex</text>
</g>
</g>
</svg>
