<?xml version="1.0" encoding="UTF-8" standalone="no"?>
<!DOCTYPE svg PUBLIC "-//W3C//DTD SVG 1.1//EN"
 "http://www.w3.org/Graphics/SVG/1.1/DTD/svg11.dtd">
<!-- Generated by graphviz version 2.36.0 (20140111.2315)
 -->
<!-- Title: hModules::ServoDriver Pages: 1 -->
<svg width="132pt" height="276pt"
 viewBox="0.00 0.00 132.00 276.00" xmlns="http://www.w3.org/2000/svg" xmlns:xlink="http://www.w3.org/1999/xlink">
<g id="graph0" class="graph" transform="scale(1 1) rotate(0) translate(4 272)">
<title>hModules::ServoDriver</title>
<polygon fill="white" stroke="none" points="-4,4 -4,-272 128,-272 128,4 -4,4"/>
<!-- Node1 -->
<g id="node1" class="node"><title>Node1</title>
<polygon fill="#bfbfbf" stroke="black" points="-0.5,-0.5 -0.5,-19.5 124.5,-19.5 124.5,-0.5 -0.5,-0.5"/>
<text text-anchor="middle" x="62" y="-7.5" font-family="Helvetica,sans-Serif" font-size="10.00">hModules::ServoDriver</text>
</g>
<!-- Node2 -->
<g id="node2" class="node"><title>Node2</title>
<g id="a_node2"><a xlink:href="classh_modules_1_1_servo_driver___servo.html" target="_top" xlink:title="Provides interface to servo located on hExt Servo Driver module. ">
<polygon fill="white" stroke="black" points="-0.5,-179 -0.5,-209 124.5,-209 124.5,-179 -0.5,-179"/>
<text text-anchor="start" x="7.5" y="-197" font-family="Helvetica,sans-Serif" font-size="10.00">hModules::ServoDriver</text>
<text text-anchor="middle" x="62" y="-186" font-family="Helvetica,sans-Serif" font-size="10.00">_Servo</text>
</a>
</g>
</g>
<!-- Node2&#45;&gt;Node1 -->
<g id="edge1" class="edge"><title>Node2&#45;&gt;Node1</title>
<path fill="none" stroke="#9a32cd" stroke-dasharray="5,2" d="M62,-168.49C62,-127.385 62,-46.4326 62,-19.7552"/>
<polygon fill="#9a32cd" stroke="#9a32cd" points="58.5001,-168.719 62,-178.719 65.5001,-168.719 58.5001,-168.719"/>
<text text-anchor="middle" x="71" y="-151.5" font-family="Helvetica,sans-Serif" font-size="10.00"> s1</text>
<text text-anchor="middle" x="71" y="-140.5" font-family="Helvetica,sans-Serif" font-size="10.00">s2</text>
<text text-anchor="middle" x="71" y="-129.5" font-family="Helvetica,sans-Serif" font-size="10.00">s3</text>
<text text-anchor="middle" x="71" y="-118.5" font-family="Helvetica,sans-Serif" font-size="10.00">s4</text>
<text text-anchor="middle" x="71" y="-107.5" font-family="Helvetica,sans-Serif" font-size="10.00">s5</text>
<text text-anchor="middle" x="71" y="-96.5" font-family="Helvetica,sans-Serif" font-size="10.00">s6</text>
<text text-anchor="middle" x="71" y="-85.5" font-family="Helvetica,sans-Serif" font-size="10.00">s7</text>
<text text-anchor="middle" x="71" y="-74.5" font-family="Helvetica,sans-Serif" font-size="10.00">s8</text>
<text text-anchor="middle" x="71" y="-63.5" font-family="Helvetica,sans-Serif" font-size="10.00">s9</text>
<text text-anchor="middle" x="71" y="-52.5" font-family="Helvetica,sans-Serif" font-size="10.00">s10</text>
<text text-anchor="middle" x="71" y="-41.5" font-family="Helvetica,sans-Serif" font-size="10.00">...</text>
</g>
<!-- Node3 -->
<g id="node3" class="node"><title>Node3</title>
<g id="a_node3"><a xlink:href="classh_framework_1_1_i_servo.html" target="_top" xlink:title="Provides interface to servo. ">
<polygon fill="white" stroke="black" points="7,-248.5 7,-267.5 117,-267.5 117,-248.5 7,-248.5"/>
<text text-anchor="middle" x="62" y="-255.5" font-family="Helvetica,sans-Serif" font-size="10.00">hFramework::IServo</text>
</a>
</g>
</g>
<!-- Node3&#45;&gt;Node2 -->
<g id="edge2" class="edge"><title>Node3&#45;&gt;Node2</title>
<path fill="none" stroke="midnightblue" d="M62,-238.183C62,-228.886 62,-217.851 62,-209.263"/>
<polygon fill="midnightblue" stroke="midnightblue" points="58.5001,-238.379 62,-248.379 65.5001,-238.379 58.5001,-238.379"/>
</g>
</g>
</svg>
