<?xml version="1.0" encoding="UTF-8" standalone="no"?>
<!DOCTYPE svg PUBLIC "-//W3C//DTD SVG 1.1//EN"
 "http://www.w3.org/Graphics/SVG/1.1/DTD/svg11.dtd">
<!-- Generated by graphviz version 2.36.0 (20140111.2315)
 -->
<!-- Title: hFramework::hSensor Pages: 1 -->
<svg width="922pt" height="207pt"
 viewBox="0.00 0.00 922.00 207.00" xmlns="http://www.w3.org/2000/svg" xmlns:xlink="http://www.w3.org/1999/xlink">
<g id="graph0" class="graph" transform="scale(1 1) rotate(0) translate(4 203)">
<title>hFramework::hSensor</title>
<polygon fill="white" stroke="none" points="-4,4 -4,-203 918,-203 918,4 -4,4"/>
<!-- Node1 -->
<g id="node1" class="node"><title>Node1</title>
<polygon fill="#bfbfbf" stroke="black" points="794,-130.5 794,-149.5 914,-149.5 914,-130.5 794,-130.5"/>
<text text-anchor="middle" x="854" y="-137.5" font-family="Helvetica,sans-Serif" font-size="10.00">hFramework::hSensor</text>
</g>
<!-- Node2 -->
<g id="node2" class="node"><title>Node2</title>
<g id="a_node2"><a xlink:href="classh_framework_1_1interfaces_1_1_i_sensor.html" target="_top" xlink:title="Interface to hSensor port. ">
<polygon fill="white" stroke="black" points="575,-169 575,-199 703,-199 703,-169 575,-169"/>
<text text-anchor="start" x="583" y="-187" font-family="Helvetica,sans-Serif" font-size="10.00">hFramework::interfaces</text>
<text text-anchor="middle" x="639" y="-176" font-family="Helvetica,sans-Serif" font-size="10.00">::ISensor</text>
</a>
</g>
</g>
<!-- Node2&#45;&gt;Node1 -->
<g id="edge1" class="edge"><title>Node2&#45;&gt;Node1</title>
<path fill="none" stroke="midnightblue" d="M712.962,-168.928C744.019,-162.512 779.314,-155.221 806.701,-149.564"/>
<polygon fill="midnightblue" stroke="midnightblue" points="712.128,-165.526 703.042,-170.977 713.544,-172.382 712.128,-165.526"/>
</g>
<!-- Node3 -->
<g id="node3" class="node"><title>Node3</title>
<g id="a_node3"><a xlink:href="classh_framework_1_1h_g_p_i_o.html" target="_top" xlink:title="Implementation of on&#45;board General Purpose Input&#45;Output pin (GPIO). ">
<polygon fill="white" stroke="black" points="175,-101.5 175,-120.5 285,-120.5 285,-101.5 175,-101.5"/>
<text text-anchor="middle" x="230" y="-108.5" font-family="Helvetica,sans-Serif" font-size="10.00">hFramework::hGPIO</text>
</a>
</g>
</g>
<!-- Node3&#45;&gt;Node1 -->
<g id="edge2" class="edge"><title>Node3&#45;&gt;Node1</title>
<path fill="none" stroke="#9a32cd" stroke-dasharray="5,2" d="M295.444,-119.475C301.037,-120.053 306.615,-120.574 312,-121 486.729,-134.827 694,-138.592 793.664,-139.617"/>
<polygon fill="#9a32cd" stroke="#9a32cd" points="295.717,-115.984 285.397,-118.38 294.959,-122.943 295.717,-115.984"/>
<text text-anchor="middle" x="516" y="-137" font-family="Helvetica,sans-Serif" font-size="10.00"> currentSrcPin</text>
</g>
<!-- Node6 -->
<g id="node6" class="node"><title>Node6</title>
<g id="a_node6"><a xlink:href="classh_framework_1_1h_g_p_i_o__adc.html" target="_top" xlink:title="Implementation of on&#45;board General Purpose Input&#45;Output pin (GPIO) with ADC capability. ">
<polygon fill="white" stroke="black" points="332,-54.5 332,-73.5 464,-73.5 464,-54.5 332,-54.5"/>
<text text-anchor="middle" x="398" y="-61.5" font-family="Helvetica,sans-Serif" font-size="10.00">hFramework::hGPIO_adc</text>
</a>
</g>
</g>
<!-- Node3&#45;&gt;Node6 -->
<g id="edge6" class="edge"><title>Node3&#45;&gt;Node6</title>
<path fill="none" stroke="midnightblue" d="M274.424,-98.7052C302.142,-90.8575 337.547,-80.833 363.173,-73.5776"/>
<polygon fill="midnightblue" stroke="midnightblue" points="273.261,-95.3969 264.593,-101.489 275.168,-102.132 273.261,-95.3969"/>
</g>
<!-- Node8 -->
<g id="node8" class="node"><title>Node8</title>
<g id="a_node8"><a xlink:href="classh_framework_1_1h_g_p_i_o__int.html" target="_top" xlink:title="Implementation of on&#45;board General Purpose Input&#45;Output pin (GPIO) with interrupt capability...">
<polygon fill="white" stroke="black" points="334.5,-92.5 334.5,-111.5 461.5,-111.5 461.5,-92.5 334.5,-92.5"/>
<text text-anchor="middle" x="398" y="-99.5" font-family="Helvetica,sans-Serif" font-size="10.00">hFramework::hGPIO_int</text>
</a>
</g>
</g>
<!-- Node3&#45;&gt;Node8 -->
<g id="edge10" class="edge"><title>Node3&#45;&gt;Node8</title>
<path fill="none" stroke="midnightblue" d="M295.47,-107.505C308.281,-106.81 321.712,-106.082 334.457,-105.391"/>
<polygon fill="midnightblue" stroke="midnightblue" points="295.15,-104.017 285.355,-108.053 295.529,-111.006 295.15,-104.017"/>
</g>
<!-- Node4 -->
<g id="node4" class="node"><title>Node4</title>
<g id="a_node4"><a xlink:href="classh_framework_1_1interfaces_1_1_i_g_p_i_o.html" target="_top" xlink:title="Interface for General Purpose Input&#45;Output pin (GPIO). ">
<polygon fill="white" stroke="black" points="0,-49 0,-79 128,-79 128,-49 0,-49"/>
<text text-anchor="start" x="8" y="-67" font-family="Helvetica,sans-Serif" font-size="10.00">hFramework::interfaces</text>
<text text-anchor="middle" x="64" y="-56" font-family="Helvetica,sans-Serif" font-size="10.00">::IGPIO</text>
</a>
</g>
</g>
<!-- Node4&#45;&gt;Node3 -->
<g id="edge3" class="edge"><title>Node4&#45;&gt;Node3</title>
<path fill="none" stroke="midnightblue" d="M127.16,-81.8142C150.45,-88.4887 176.011,-95.8143 195.699,-101.457"/>
<polygon fill="midnightblue" stroke="midnightblue" points="127.919,-78.3908 117.342,-79.0003 125.99,-85.1199 127.919,-78.3908"/>
</g>
<!-- Node7 -->
<g id="node7" class="node"><title>Node7</title>
<g id="a_node7"><a xlink:href="classh_framework_1_1interfaces_1_1_i_g_p_i_o__adc.html" target="_top" xlink:title="Interface for General Purpose Input&#45;Output pin (GPIO) with ADC capability. ">
<polygon fill="white" stroke="black" points="166,-0 166,-30 294,-30 294,-0 166,-0"/>
<text text-anchor="start" x="174" y="-18" font-family="Helvetica,sans-Serif" font-size="10.00">hFramework::interfaces</text>
<text text-anchor="middle" x="230" y="-7" font-family="Helvetica,sans-Serif" font-size="10.00">::IGPIO_adc</text>
</a>
</g>
</g>
<!-- Node4&#45;&gt;Node7 -->
<g id="edge8" class="edge"><title>Node4&#45;&gt;Node7</title>
<path fill="none" stroke="midnightblue" d="M125.134,-46.033C142.706,-40.783 161.723,-35.1011 178.623,-30.0516"/>
<polygon fill="midnightblue" stroke="midnightblue" points="124.123,-42.6822 115.544,-48.8986 126.127,-49.3892 124.123,-42.6822"/>
</g>
<!-- Node9 -->
<g id="node9" class="node"><title>Node9</title>
<g id="a_node9"><a xlink:href="classh_framework_1_1interfaces_1_1_i_g_p_i_o__int.html" target="_top" xlink:title="Interface for General Purpose Input&#45;Output pin (GPIO) with interrupt capability. ">
<polygon fill="white" stroke="black" points="166,-49 166,-79 294,-79 294,-49 166,-49"/>
<text text-anchor="start" x="174" y="-67" font-family="Helvetica,sans-Serif" font-size="10.00">hFramework::interfaces</text>
<text text-anchor="middle" x="230" y="-56" font-family="Helvetica,sans-Serif" font-size="10.00">::IGPIO_int</text>
</a>
</g>
</g>
<!-- Node4&#45;&gt;Node9 -->
<g id="edge12" class="edge"><title>Node4&#45;&gt;Node9</title>
<path fill="none" stroke="midnightblue" d="M138.57,-64C147.645,-64 156.859,-64 165.762,-64"/>
<polygon fill="midnightblue" stroke="midnightblue" points="138.407,-60.5001 128.407,-64 138.407,-67.5001 138.407,-60.5001"/>
</g>
<!-- Node5 -->
<g id="node5" class="node"><title>Node5</title>
<g id="a_node5"><a xlink:href="classh_framework_1_1h_g_p_i_o__super.html" target="_top" xlink:title="Implementation of on&#45;board General Purpose Input&#45;Output pin (GPIO) with interrupt and ADC capability...">
<polygon fill="white" stroke="black" points="568,-73.5 568,-92.5 710,-92.5 710,-73.5 568,-73.5"/>
<text text-anchor="middle" x="639" y="-80.5" font-family="Helvetica,sans-Serif" font-size="10.00">hFramework::hGPIO_super</text>
</a>
</g>
</g>
<!-- Node5&#45;&gt;Node1 -->
<g id="edge4" class="edge"><title>Node5&#45;&gt;Node1</title>
<path fill="none" stroke="#9a32cd" stroke-dasharray="5,2" d="M694.649,-94.7718C719.582,-100.421 749.411,-107.569 776,-115 792.514,-119.615 810.776,-125.509 825.369,-130.415"/>
<polygon fill="#9a32cd" stroke="#9a32cd" points="695.168,-91.3012 684.644,-92.5256 693.635,-98.1312 695.168,-91.3012"/>
<text text-anchor="middle" x="752" y="-118" font-family="Helvetica,sans-Serif" font-size="10.00"> pinIntAdc</text>
</g>
<!-- Node6&#45;&gt;Node5 -->
<g id="edge5" class="edge"><title>Node6&#45;&gt;Node5</title>
<path fill="none" stroke="midnightblue" d="M474.659,-70.0147C504.463,-72.3841 538.491,-75.0892 567.746,-77.4149"/>
<polygon fill="midnightblue" stroke="midnightblue" points="474.554,-66.4954 464.308,-69.1918 473.999,-73.4734 474.554,-66.4954"/>
</g>
<!-- Node7&#45;&gt;Node6 -->
<g id="edge7" class="edge"><title>Node7&#45;&gt;Node6</title>
<path fill="none" stroke="midnightblue" d="M291.798,-32.9464C316.431,-40.2175 343.879,-48.3197 364.561,-54.4246"/>
<polygon fill="midnightblue" stroke="midnightblue" points="292.742,-29.5757 282.16,-30.1014 290.76,-36.2894 292.742,-29.5757"/>
</g>
<!-- Node10 -->
<g id="node10" class="node"><title>Node10</title>
<g id="a_node10"><a xlink:href="classh_framework_1_1interfaces_1_1_i_g_p_i_o__super.html" target="_top" xlink:title="Interface for General Purpose Input&#45;Output pin (GPIO) with interrupt and ADC capability. ">
<polygon fill="white" stroke="black" points="334,-5 334,-35 462,-35 462,-5 334,-5"/>
<text text-anchor="start" x="342" y="-23" font-family="Helvetica,sans-Serif" font-size="10.00">hFramework::interfaces</text>
<text text-anchor="middle" x="398" y="-12" font-family="Helvetica,sans-Serif" font-size="10.00">::IGPIO_super</text>
</a>
</g>
</g>
<!-- Node7&#45;&gt;Node10 -->
<g id="edge15" class="edge"><title>Node7&#45;&gt;Node10</title>
<path fill="none" stroke="midnightblue" d="M304.595,-3.47343C307.77,-3.53622 310.916,-3.70547 314,-4 320.428,-4.61389 327.098,-5.48941 333.737,-6.5185"/>
<polygon fill="midnightblue" stroke="midnightblue" points="304.34,0.0235288 294.388,-3.61214 304.435,-6.97582 304.34,0.0235288"/>
</g>
<!-- Node8&#45;&gt;Node5 -->
<g id="edge9" class="edge"><title>Node8&#45;&gt;Node5</title>
<path fill="none" stroke="midnightblue" d="M471.908,-96.2039C502.313,-93.7868 537.489,-90.9904 567.62,-88.5951"/>
<polygon fill="midnightblue" stroke="midnightblue" points="471.486,-92.7264 461.794,-97.008 472.04,-99.7044 471.486,-92.7264"/>
</g>
<!-- Node9&#45;&gt;Node8 -->
<g id="edge11" class="edge"><title>Node9&#45;&gt;Node8</title>
<path fill="none" stroke="midnightblue" d="M304.355,-80.7921C321.701,-84.7628 339.616,-88.864 355.016,-92.3891"/>
<polygon fill="midnightblue" stroke="midnightblue" points="304.76,-77.2943 294.231,-78.4746 303.198,-84.1178 304.76,-77.2943"/>
</g>
<!-- Node9&#45;&gt;Node10 -->
<g id="edge14" class="edge"><title>Node9&#45;&gt;Node10</title>
<path fill="none" stroke="midnightblue" d="M297.378,-46.4059C311.598,-42.6368 326.496,-38.6878 340.31,-35.0262"/>
<polygon fill="midnightblue" stroke="midnightblue" points="296.433,-43.0354 287.663,-48.9808 298.226,-49.8017 296.433,-43.0354"/>
</g>
<!-- Node10&#45;&gt;Node5 -->
<g id="edge13" class="edge"><title>Node10&#45;&gt;Node5</title>
<path fill="none" stroke="midnightblue" d="M465.729,-37.5897C509.83,-49.2146 565.93,-64.0024 601.908,-73.4862"/>
<polygon fill="midnightblue" stroke="midnightblue" points="466.505,-34.1746 455.943,-35.01 464.72,-40.9434 466.505,-34.1746"/>
</g>
</g>
</svg>
