<?xml version="1.0" encoding="UTF-8" standalone="no"?>
<!DOCTYPE svg PUBLIC "-//W3C//DTD SVG 1.1//EN"
 "http://www.w3.org/Graphics/SVG/1.1/DTD/svg11.dtd">
<!-- Generated by graphviz version 2.36.0 (20140111.2315)
 -->
<!-- Title: hFramework::hGPIO_adc Pages: 1 -->
<svg width="264pt" height="220pt"
 viewBox="0.00 0.00 264.00 220.00" xmlns="http://www.w3.org/2000/svg" xmlns:xlink="http://www.w3.org/1999/xlink">
<g id="graph0" class="graph" transform="scale(1 1) rotate(0) translate(4 216)">
<title>hFramework::hGPIO_adc</title>
<polygon fill="white" stroke="none" points="-4,4 -4,-216 260,-216 260,4 -4,4"/>
<!-- Node1 -->
<g id="node1" class="node"><title>Node1</title>
<polygon fill="#bfbfbf" stroke="black" points="57,-56.5 57,-75.5 189,-75.5 189,-56.5 57,-56.5"/>
<text text-anchor="middle" x="123" y="-63.5" font-family="Helvetica,sans-Serif" font-size="10.00">hFramework::hGPIO_adc</text>
</g>
<!-- Node5 -->
<g id="node5" class="node"><title>Node5</title>
<g id="a_node5"><a xlink:href="classh_framework_1_1h_g_p_i_o__super.html" target="_top" xlink:title="Implementation of on&#45;board General Purpose Input&#45;Output pin (GPIO) with interrupt and ADC capability...">
<polygon fill="white" stroke="black" points="52,-0.5 52,-19.5 194,-19.5 194,-0.5 52,-0.5"/>
<text text-anchor="middle" x="123" y="-7.5" font-family="Helvetica,sans-Serif" font-size="10.00">hFramework::hGPIO_super</text>
</a>
</g>
</g>
<!-- Node1&#45;&gt;Node5 -->
<g id="edge5" class="edge"><title>Node1&#45;&gt;Node5</title>
<path fill="none" stroke="midnightblue" d="M123,-45.8045C123,-36.9102 123,-26.7798 123,-19.7511"/>
<polygon fill="midnightblue" stroke="midnightblue" points="119.5,-46.083 123,-56.083 126.5,-46.083 119.5,-46.083"/>
</g>
<!-- Node2 -->
<g id="node2" class="node"><title>Node2</title>
<g id="a_node2"><a xlink:href="classh_framework_1_1h_g_p_i_o.html" target="_top" xlink:title="Implementation of on&#45;board General Purpose Input&#45;Output pin (GPIO). ">
<polygon fill="white" stroke="black" points="0,-118.5 0,-137.5 110,-137.5 110,-118.5 0,-118.5"/>
<text text-anchor="middle" x="55" y="-125.5" font-family="Helvetica,sans-Serif" font-size="10.00">hFramework::hGPIO</text>
</a>
</g>
</g>
<!-- Node2&#45;&gt;Node1 -->
<g id="edge1" class="edge"><title>Node2&#45;&gt;Node1</title>
<path fill="none" stroke="midnightblue" d="M72.5433,-111.521C85.5076,-100.082 102.679,-84.9305 113.275,-75.5806"/>
<polygon fill="midnightblue" stroke="midnightblue" points="69.9255,-109.163 64.7427,-118.403 74.5568,-114.412 69.9255,-109.163"/>
</g>
<!-- Node3 -->
<g id="node3" class="node"><title>Node3</title>
<g id="a_node3"><a xlink:href="classh_framework_1_1interfaces_1_1_i_g_p_i_o.html" target="_top" xlink:title="Interface for General Purpose Input&#45;Output pin (GPIO). ">
<polygon fill="white" stroke="black" points="59,-181 59,-211 187,-211 187,-181 59,-181"/>
<text text-anchor="start" x="67" y="-199" font-family="Helvetica,sans-Serif" font-size="10.00">hFramework::interfaces</text>
<text text-anchor="middle" x="123" y="-188" font-family="Helvetica,sans-Serif" font-size="10.00">::IGPIO</text>
</a>
</g>
</g>
<!-- Node3&#45;&gt;Node2 -->
<g id="edge2" class="edge"><title>Node3&#45;&gt;Node2</title>
<path fill="none" stroke="midnightblue" d="M100.858,-173.509C88.3734,-161.392 73.4499,-146.907 64.0958,-137.828"/>
<polygon fill="midnightblue" stroke="midnightblue" points="98.6315,-176.226 108.245,-180.679 103.507,-171.203 98.6315,-176.226"/>
</g>
<!-- Node4 -->
<g id="node4" class="node"><title>Node4</title>
<g id="a_node4"><a xlink:href="classh_framework_1_1interfaces_1_1_i_g_p_i_o__adc.html" target="_top" xlink:title="Interface for General Purpose Input&#45;Output pin (GPIO) with ADC capability. ">
<polygon fill="white" stroke="black" points="128,-113 128,-143 256,-143 256,-113 128,-113"/>
<text text-anchor="start" x="136" y="-131" font-family="Helvetica,sans-Serif" font-size="10.00">hFramework::interfaces</text>
<text text-anchor="middle" x="192" y="-120" font-family="Helvetica,sans-Serif" font-size="10.00">::IGPIO_adc</text>
</a>
</g>
</g>
<!-- Node3&#45;&gt;Node4 -->
<g id="edge4" class="edge"><title>Node3&#45;&gt;Node4</title>
<path fill="none" stroke="midnightblue" d="M145.492,-173.485C155.843,-163.585 167.84,-152.109 177.057,-143.293"/>
<polygon fill="midnightblue" stroke="midnightblue" points="142.779,-171.237 137.972,-180.679 147.618,-176.296 142.779,-171.237"/>
</g>
<!-- Node4&#45;&gt;Node1 -->
<g id="edge3" class="edge"><title>Node4&#45;&gt;Node1</title>
<path fill="none" stroke="midnightblue" d="M167.76,-105.922C155.836,-95.5533 142.114,-83.6209 133.04,-75.7305"/>
<polygon fill="midnightblue" stroke="midnightblue" points="165.805,-108.86 175.648,-112.781 170.399,-103.578 165.805,-108.86"/>
</g>
</g>
</svg>
