<?xml version="1.0" encoding="UTF-8" standalone="no"?>
<!DOCTYPE svg PUBLIC "-//W3C//DTD SVG 1.1//EN"
 "http://www.w3.org/Graphics/SVG/1.1/DTD/svg11.dtd">
<!-- Generated by graphviz version 2.36.0 (20140111.2315)
 -->
<!-- Title: hFramework::interfaces::IGPIO_adc Pages: 1 -->
<svg width="286pt" height="232pt"
 viewBox="0.00 0.00 286.00 232.00" xmlns="http://www.w3.org/2000/svg" xmlns:xlink="http://www.w3.org/1999/xlink">
<g id="graph0" class="graph" transform="scale(1 1) rotate(0) translate(4 228)">
<title>hFramework::interfaces::IGPIO_adc</title>
<polygon fill="white" stroke="none" points="-4,4 -4,-228 282,-228 282,4 -4,4"/>
<!-- Node1 -->
<g id="node1" class="node"><title>Node1</title>
<polygon fill="#bfbfbf" stroke="black" points="76,-125 76,-155 204,-155 204,-125 76,-125"/>
<text text-anchor="start" x="84" y="-143" font-family="Helvetica,sans-Serif" font-size="10.00">hFramework::interfaces</text>
<text text-anchor="middle" x="140" y="-132" font-family="Helvetica,sans-Serif" font-size="10.00">::IGPIO_adc</text>
</g>
<!-- Node3 -->
<g id="node3" class="node"><title>Node3</title>
<g id="a_node3"><a xlink:href="classh_framework_1_1h_g_p_i_o__adc.html" target="_top" xlink:title="Implementation of on&#45;board General Purpose Input&#45;Output pin (GPIO) with ADC capability. ">
<polygon fill="white" stroke="black" points="0,-62.5 0,-81.5 132,-81.5 132,-62.5 0,-62.5"/>
<text text-anchor="middle" x="66" y="-69.5" font-family="Helvetica,sans-Serif" font-size="10.00">hFramework::hGPIO_adc</text>
</a>
</g>
</g>
<!-- Node1&#45;&gt;Node3 -->
<g id="edge2" class="edge"><title>Node1&#45;&gt;Node3</title>
<path fill="none" stroke="midnightblue" d="M116.288,-117.852C102.625,-105.666 86.1738,-90.9929 75.8984,-81.8283"/>
<polygon fill="midnightblue" stroke="midnightblue" points="114.15,-120.635 123.943,-124.679 118.81,-115.411 114.15,-120.635"/>
</g>
<!-- Node5 -->
<g id="node5" class="node"><title>Node5</title>
<g id="a_node5"><a xlink:href="classh_framework_1_1interfaces_1_1_i_g_p_i_o__super.html" target="_top" xlink:title="Interface for General Purpose Input&#45;Output pin (GPIO) with interrupt and ADC capability. ">
<polygon fill="white" stroke="black" points="150,-57 150,-87 278,-87 278,-57 150,-57"/>
<text text-anchor="start" x="158" y="-75" font-family="Helvetica,sans-Serif" font-size="10.00">hFramework::interfaces</text>
<text text-anchor="middle" x="214" y="-64" font-family="Helvetica,sans-Serif" font-size="10.00">::IGPIO_super</text>
</a>
</g>
</g>
<!-- Node1&#45;&gt;Node5 -->
<g id="edge4" class="edge"><title>Node1&#45;&gt;Node5</title>
<path fill="none" stroke="midnightblue" d="M163.525,-118.018C174.853,-107.915 188.134,-96.0696 198.229,-87.0663"/>
<polygon fill="midnightblue" stroke="midnightblue" points="161.19,-115.411 156.057,-124.679 165.85,-120.635 161.19,-115.411"/>
</g>
<!-- Node2 -->
<g id="node2" class="node"><title>Node2</title>
<g id="a_node2"><a xlink:href="classh_framework_1_1interfaces_1_1_i_g_p_i_o.html" target="_top" xlink:title="Interface for General Purpose Input&#45;Output pin (GPIO). ">
<polygon fill="white" stroke="black" points="76,-193 76,-223 204,-223 204,-193 76,-193"/>
<text text-anchor="start" x="84" y="-211" font-family="Helvetica,sans-Serif" font-size="10.00">hFramework::interfaces</text>
<text text-anchor="middle" x="140" y="-200" font-family="Helvetica,sans-Serif" font-size="10.00">::IGPIO</text>
</a>
</g>
</g>
<!-- Node2&#45;&gt;Node1 -->
<g id="edge1" class="edge"><title>Node2&#45;&gt;Node1</title>
<path fill="none" stroke="midnightblue" d="M140,-182.532C140,-173.361 140,-163.245 140,-155.293"/>
<polygon fill="midnightblue" stroke="midnightblue" points="136.5,-182.679 140,-192.679 143.5,-182.679 136.5,-182.679"/>
</g>
<!-- Node4 -->
<g id="node4" class="node"><title>Node4</title>
<g id="a_node4"><a xlink:href="classh_framework_1_1h_g_p_i_o__super.html" target="_top" xlink:title="Implementation of on&#45;board General Purpose Input&#45;Output pin (GPIO) with interrupt and ADC capability...">
<polygon fill="white" stroke="black" points="69,-0.5 69,-19.5 211,-19.5 211,-0.5 69,-0.5"/>
<text text-anchor="middle" x="140" y="-7.5" font-family="Helvetica,sans-Serif" font-size="10.00">hFramework::hGPIO_super</text>
</a>
</g>
</g>
<!-- Node3&#45;&gt;Node4 -->
<g id="edge3" class="edge"><title>Node3&#45;&gt;Node4</title>
<path fill="none" stroke="midnightblue" d="M84.6894,-55.8464C98.8429,-44.3706 117.776,-29.0195 129.417,-19.5806"/>
<polygon fill="midnightblue" stroke="midnightblue" points="82.1657,-53.3868 76.6024,-62.4035 86.5743,-58.8241 82.1657,-53.3868"/>
</g>
<!-- Node5&#45;&gt;Node4 -->
<g id="edge5" class="edge"><title>Node5&#45;&gt;Node4</title>
<path fill="none" stroke="midnightblue" d="M188.372,-50.2202C175.499,-39.7831 160.593,-27.6968 150.768,-19.7305"/>
<polygon fill="midnightblue" stroke="midnightblue" points="186.491,-53.2014 196.463,-56.7808 190.9,-47.7641 186.491,-53.2014"/>
</g>
</g>
</svg>
