<?xml version="1.0" encoding="UTF-8" standalone="no"?>
<!DOCTYPE svg PUBLIC "-//W3C//DTD SVG 1.1//EN"
 "http://www.w3.org/Graphics/SVG/1.1/DTD/svg11.dtd">
<!-- Generated by graphviz version 2.36.0 (20140111.2315)
 -->
<!-- Title: hFramework::interfaces::II2C Pages: 1 -->
<svg width="269pt" height="96pt"
 viewBox="0.00 0.00 269.00 96.00" xmlns="http://www.w3.org/2000/svg" xmlns:xlink="http://www.w3.org/1999/xlink">
<g id="graph0" class="graph" transform="scale(1 1) rotate(0) translate(4 92)">
<title>hFramework::interfaces::II2C</title>
<polygon fill="white" stroke="none" points="-4,4 -4,-92 265,-92 265,4 -4,4"/>
<!-- Node1 -->
<g id="node1" class="node"><title>Node1</title>
<polygon fill="#bfbfbf" stroke="black" points="56,-57 56,-87 184,-87 184,-57 56,-57"/>
<text text-anchor="start" x="64" y="-75" font-family="Helvetica,sans-Serif" font-size="10.00">hFramework::interfaces</text>
<text text-anchor="middle" x="120" y="-64" font-family="Helvetica,sans-Serif" font-size="10.00">::II2C</text>
</g>
<!-- Node2 -->
<g id="node2" class="node"><title>Node2</title>
<g id="a_node2"><a xlink:href="classh_framework_1_1h_i2_c.html" target="_top" xlink:title="Implementation of on&#45;board I2C interface. ">
<polygon fill="white" stroke="black" points="-0.5,-0.5 -0.5,-19.5 100.5,-19.5 100.5,-0.5 -0.5,-0.5"/>
<text text-anchor="middle" x="50" y="-7.5" font-family="Helvetica,sans-Serif" font-size="10.00">hFramework::hI2C</text>
</a>
</g>
</g>
<!-- Node1&#45;&gt;Node2 -->
<g id="edge1" class="edge"><title>Node1&#45;&gt;Node2</title>
<path fill="none" stroke="midnightblue" d="M95.7569,-50.2202C83.5803,-39.7831 69.4796,-27.6968 60.1856,-19.7305"/>
<polygon fill="midnightblue" stroke="midnightblue" points="93.5406,-52.9303 103.411,-56.7808 98.0962,-47.6155 93.5406,-52.9303"/>
</g>
<!-- Node3 -->
<g id="node3" class="node"><title>Node3</title>
<g id="a_node3"><a xlink:href="classh_framework_1_1h_software_i2_c.html" target="_top" xlink:title="Implementation of software I2C interface. ">
<polygon fill="white" stroke="black" points="118.5,-0.5 118.5,-19.5 261.5,-19.5 261.5,-0.5 118.5,-0.5"/>
<text text-anchor="middle" x="190" y="-7.5" font-family="Helvetica,sans-Serif" font-size="10.00">hFramework::hSoftwareI2C</text>
</a>
</g>
</g>
<!-- Node1&#45;&gt;Node3 -->
<g id="edge2" class="edge"><title>Node1&#45;&gt;Node3</title>
<path fill="none" stroke="midnightblue" d="M144.243,-50.2202C156.42,-39.7831 170.52,-27.6968 179.814,-19.7305"/>
<polygon fill="midnightblue" stroke="midnightblue" points="141.904,-47.6155 136.589,-56.7808 146.459,-52.9303 141.904,-47.6155"/>
</g>
</g>
</svg>
