<?xml version="1.0" encoding="UTF-8" standalone="no"?>
<!DOCTYPE svg PUBLIC "-//W3C//DTD SVG 1.1//EN"
 "http://www.w3.org/Graphics/SVG/1.1/DTD/svg11.dtd">
<!-- Generated by graphviz version 2.36.0 (20140111.2315)
 -->
<!-- Title: hFramework::hSensor Pages: 1 -->
<svg width="472pt" height="164pt"
 viewBox="0.00 0.00 472.00 164.00" xmlns="http://www.w3.org/2000/svg" xmlns:xlink="http://www.w3.org/1999/xlink">
<g id="graph0" class="graph" transform="scale(1 1) rotate(0) translate(4 160)">
<title>hFramework::hSensor</title>
<polygon fill="white" stroke="none" points="-4,4 -4,-160 468,-160 468,4 -4,4"/>
<!-- Node1 -->
<g id="node1" class="node"><title>Node1</title>
<polygon fill="#bfbfbf" stroke="black" points="164,-76.5 164,-95.5 284,-95.5 284,-76.5 164,-76.5"/>
<text text-anchor="middle" x="224" y="-83.5" font-family="Helvetica,sans-Serif" font-size="10.00">hFramework::hSensor</text>
</g>
<!-- Node3 -->
<g id="node3" class="node"><title>Node3</title>
<g id="a_node3"><a xlink:href="classh_framework_1_1h_sensor__adc.html" target="_top" xlink:title="Implementation of on&#45;board hSensor port (with ADC on pin2). ">
<polygon fill="white" stroke="black" points="320.5,-136.5 320.5,-155.5 463.5,-155.5 463.5,-136.5 320.5,-136.5"/>
<text text-anchor="middle" x="392" y="-143.5" font-family="Helvetica,sans-Serif" font-size="10.00">hFramework::hSensor_adc</text>
</a>
</g>
</g>
<!-- Node1&#45;&gt;Node3 -->
<g id="edge2" class="edge"><title>Node1&#45;&gt;Node3</title>
<path fill="none" stroke="midnightblue" d="M254.155,-99.8982C272.73,-108.423 297.459,-119.167 320,-127 330.004,-130.477 340.984,-133.696 351.257,-136.46"/>
<polygon fill="midnightblue" stroke="midnightblue" points="255.59,-96.7057 245.046,-95.6699 252.642,-103.055 255.59,-96.7057"/>
</g>
<!-- Node4 -->
<g id="node4" class="node"><title>Node4</title>
<g id="a_node4"><a xlink:href="classh_framework_1_1h_sensor__i2c.html" target="_top" xlink:title="Implementation of on&#45;board I2C capable hSensor port. ">
<polygon fill="white" stroke="black" points="322.5,-98.5 322.5,-117.5 461.5,-117.5 461.5,-98.5 322.5,-98.5"/>
<text text-anchor="middle" x="392" y="-105.5" font-family="Helvetica,sans-Serif" font-size="10.00">hFramework::hSensor_i2c</text>
</a>
</g>
</g>
<!-- Node1&#45;&gt;Node4 -->
<g id="edge3" class="edge"><title>Node1&#45;&gt;Node4</title>
<path fill="none" stroke="midnightblue" d="M294.383,-95.1953C303.631,-96.421 313.111,-97.6774 322.347,-98.9014"/>
<polygon fill="midnightblue" stroke="midnightblue" points="294.834,-91.7246 284.461,-93.8804 293.914,-98.6639 294.834,-91.7246"/>
</g>
<!-- Node5 -->
<g id="node5" class="node"><title>Node5</title>
<g id="a_node5"><a xlink:href="classh_framework_1_1h_sensor__serial.html" target="_top" xlink:title="Implementation of on&#45;board Serial capable hSensor port. ">
<polygon fill="white" stroke="black" points="332,-49 332,-79 452,-79 452,-49 332,-49"/>
<text text-anchor="start" x="340" y="-67" font-family="Helvetica,sans-Serif" font-size="10.00">hFramework::hSensor</text>
<text text-anchor="middle" x="392" y="-56" font-family="Helvetica,sans-Serif" font-size="10.00">_serial</text>
</a>
</g>
</g>
<!-- Node1&#45;&gt;Node5 -->
<g id="edge4" class="edge"><title>Node1&#45;&gt;Node5</title>
<path fill="none" stroke="midnightblue" d="M294.741,-76.7573C307.121,-75.1165 319.906,-73.4221 331.954,-71.8253"/>
<polygon fill="midnightblue" stroke="midnightblue" points="293.914,-73.3361 284.461,-78.1196 294.834,-80.2754 293.914,-73.3361"/>
</g>
<!-- Node6 -->
<g id="node6" class="node"><title>Node6</title>
<g id="a_node6"><a xlink:href="classh_framework_1_1h_sensor__simple.html" target="_top" xlink:title="Implementation of simple on&#45;board hSensor port. ">
<polygon fill="white" stroke="black" points="332,-0 332,-30 452,-30 452,-0 332,-0"/>
<text text-anchor="start" x="340" y="-18" font-family="Helvetica,sans-Serif" font-size="10.00">hFramework::hSensor</text>
<text text-anchor="middle" x="392" y="-7" font-family="Helvetica,sans-Serif" font-size="10.00">_simple</text>
</a>
</g>
</g>
<!-- Node1&#45;&gt;Node6 -->
<g id="edge5" class="edge"><title>Node1&#45;&gt;Node6</title>
<path fill="none" stroke="midnightblue" d="M251.405,-71.7492C270.228,-61.886 296.294,-48.8192 320,-39 327.573,-35.863 335.719,-32.8166 343.697,-30.006"/>
<polygon fill="midnightblue" stroke="midnightblue" points="249.735,-68.6732 242.532,-76.4429 253.008,-74.8609 249.735,-68.6732"/>
</g>
<!-- Node2 -->
<g id="node2" class="node"><title>Node2</title>
<g id="a_node2"><a xlink:href="classh_framework_1_1interfaces_1_1_i_sensor.html" target="_top" xlink:title="Interface to hSensor port. ">
<polygon fill="white" stroke="black" points="0,-71 0,-101 128,-101 128,-71 0,-71"/>
<text text-anchor="start" x="8" y="-89" font-family="Helvetica,sans-Serif" font-size="10.00">hFramework::interfaces</text>
<text text-anchor="middle" x="64" y="-78" font-family="Helvetica,sans-Serif" font-size="10.00">::ISensor</text>
</a>
</g>
</g>
<!-- Node2&#45;&gt;Node1 -->
<g id="edge1" class="edge"><title>Node2&#45;&gt;Node1</title>
<path fill="none" stroke="midnightblue" d="M138.368,-86C146.954,-86 155.63,-86 163.986,-86"/>
<polygon fill="midnightblue" stroke="midnightblue" points="138.354,-82.5001 128.354,-86 138.354,-89.5001 138.354,-82.5001"/>
</g>
</g>
</svg>
