<?xml version="1.0" encoding="UTF-8" standalone="no"?>
<!DOCTYPE svg PUBLIC "-//W3C//DTD SVG 1.1//EN"
 "http://www.w3.org/Graphics/SVG/1.1/DTD/svg11.dtd">
<!-- Generated by graphviz version 2.36.0 (20140111.2315)
 -->
<!-- Title: hFramework::hCloudClient Pages: 1 -->
<svg width="497pt" height="322pt"
 viewBox="0.00 0.00 497.00 322.00" xmlns="http://www.w3.org/2000/svg" xmlns:xlink="http://www.w3.org/1999/xlink">
<g id="graph0" class="graph" transform="scale(1 1) rotate(0) translate(4 318)">
<title>hFramework::hCloudClient</title>
<polygon fill="white" stroke="none" points="-4,4 -4,-318 493,-318 493,4 -4,4"/>
<!-- Node1 -->
<g id="node1" class="node"><title>Node1</title>
<polygon fill="#bfbfbf" stroke="black" points="114,-0.5 114,-19.5 254,-19.5 254,-0.5 114,-0.5"/>
<text text-anchor="middle" x="184" y="-7.5" font-family="Helvetica,sans-Serif" font-size="10.00">hFramework::hCloudClient</text>
</g>
<!-- Node2 -->
<g id="node2" class="node"><title>Node2</title>
<g id="a_node2"><a xlink:href="classh_framework_1_1h_printf_dev.html" target="_top" xlink:title="Provides printf and vprintf methods as extension to hStreamDev. ">
<polygon fill="white" stroke="black" points="30,-136.5 30,-155.5 160,-155.5 160,-136.5 30,-136.5"/>
<text text-anchor="middle" x="95" y="-143.5" font-family="Helvetica,sans-Serif" font-size="10.00">hFramework::hPrintfDev</text>
</a>
</g>
</g>
<!-- Node2&#45;&gt;Node1 -->
<g id="edge1" class="edge"><title>Node2&#45;&gt;Node1</title>
<path fill="none" stroke="midnightblue" d="M93.7424,-126.157C93.5177,-109.678 95.3806,-85.6834 106,-68 119.729,-45.138 146.493,-28.6867 164.804,-19.502"/>
<polygon fill="midnightblue" stroke="midnightblue" points="90.247,-126.345 94.1495,-136.194 97.2413,-126.061 90.247,-126.345"/>
</g>
<!-- Node5 -->
<g id="node5" class="node"><title>Node5</title>
<g id="a_node5"><a xlink:href="classh_framework_1_1h_local_serial.html" target="_top" xlink:title="hFramework::hLocalSerial">
<polygon fill="white" stroke="black" points="115,-68.5 115,-87.5 253,-87.5 253,-68.5 115,-68.5"/>
<text text-anchor="middle" x="184" y="-75.5" font-family="Helvetica,sans-Serif" font-size="10.00">hFramework::hLocalSerial</text>
</a>
</g>
</g>
<!-- Node2&#45;&gt;Node5 -->
<g id="edge5" class="edge"><title>Node2&#45;&gt;Node5</title>
<path fill="none" stroke="midnightblue" d="M115.098,-130.096C132.756,-117.001 157.836,-98.4028 172.362,-87.6305"/>
<polygon fill="midnightblue" stroke="midnightblue" points="112.583,-127.604 106.635,-136.372 116.752,-133.226 112.583,-127.604"/>
</g>
<!-- Node3 -->
<g id="node3" class="node"><title>Node3</title>
<g id="a_node3"><a xlink:href="classh_framework_1_1h_stream_dev.html" target="_top" xlink:title="Stream device interface. ">
<polygon fill="white" stroke="black" points="-0.5,-226.5 -0.5,-245.5 140.5,-245.5 140.5,-226.5 -0.5,-226.5"/>
<text text-anchor="middle" x="70" y="-233.5" font-family="Helvetica,sans-Serif" font-size="10.00">hFramework::hStreamDev</text>
</a>
</g>
</g>
<!-- Node3&#45;&gt;Node2 -->
<g id="edge2" class="edge"><title>Node3&#45;&gt;Node2</title>
<path fill="none" stroke="midnightblue" d="M75.2544,-216.504C80.559,-197.832 88.5224,-169.801 92.5216,-155.724"/>
<polygon fill="midnightblue" stroke="midnightblue" points="71.8546,-215.665 72.4885,-226.241 78.5881,-217.578 71.8546,-215.665"/>
</g>
<!-- Node4 -->
<g id="node4" class="node"><title>Node4</title>
<g id="a_node4"><a xlink:href="classh_framework_1_1h_mutex.html" target="_top" xlink:title="Mutex class. ">
<polygon fill="white" stroke="black" points="159,-226.5 159,-245.5 275,-245.5 275,-226.5 159,-226.5"/>
<text text-anchor="middle" x="217" y="-233.5" font-family="Helvetica,sans-Serif" font-size="10.00">hFramework::hMutex</text>
</a>
</g>
</g>
<!-- Node4&#45;&gt;Node2 -->
<g id="edge3" class="edge"><title>Node4&#45;&gt;Node2</title>
<path fill="none" stroke="#9a32cd" stroke-dasharray="5,2" d="M196.599,-220.285C171.015,-201.83 127.979,-170.788 107.095,-155.724"/>
<polygon fill="#9a32cd" stroke="#9a32cd" points="194.698,-223.229 204.856,-226.241 198.793,-217.552 194.698,-223.229"/>
<text text-anchor="middle" x="207" y="-188.5" font-family="Helvetica,sans-Serif" font-size="10.00"> printfMutex</text>
</g>
<!-- Node5&#45;&gt;Node1 -->
<g id="edge4" class="edge"><title>Node5&#45;&gt;Node1</title>
<path fill="none" stroke="#9a32cd" stroke-dasharray="5,2" d="M184,-58.0413C184,-45.4724 184,-29.5631 184,-19.8411"/>
<polygon fill="#9a32cd" stroke="#9a32cd" points="180.5,-58.3716 184,-68.3717 187.5,-58.3717 180.5,-58.3716"/>
<text text-anchor="middle" x="211.5" y="-41.5" font-family="Helvetica,sans-Serif" font-size="10.00"> LocalSerial</text>
</g>
<!-- Node6 -->
<g id="node6" class="node"><title>Node6</title>
<g id="a_node6"><a xlink:href="classh_framework_1_1_platform_ui.html" target="_top" xlink:title="Controls the user interface on the RoboCORE platform. ">
<polygon fill="white" stroke="black" points="271.5,-68.5 271.5,-87.5 402.5,-87.5 402.5,-68.5 271.5,-68.5"/>
<text text-anchor="middle" x="337" y="-75.5" font-family="Helvetica,sans-Serif" font-size="10.00">hFramework::PlatformUi</text>
</a>
</g>
</g>
<!-- Node6&#45;&gt;Node1 -->
<g id="edge6" class="edge"><title>Node6&#45;&gt;Node1</title>
<path fill="none" stroke="#9a32cd" stroke-dasharray="5,2" d="M307.738,-64.3772C277.3,-51.2472 230.468,-31.0452 204.007,-19.6305"/>
<polygon fill="#9a32cd" stroke="#9a32cd" points="306.429,-67.6244 316.998,-68.3717 309.202,-61.1969 306.429,-67.6244"/>
<text text-anchor="middle" x="281" y="-41.5" font-family="Helvetica,sans-Serif" font-size="10.00"> ui</text>
</g>
<!-- Node7 -->
<g id="node7" class="node"><title>Node7</title>
<g id="a_node7"><a xlink:href="structh_framework_1_1_ui_video.html" target="_top" xlink:title="hFramework::UiVideo">
<polygon fill="white" stroke="black" points="363.5,-136.5 363.5,-155.5 480.5,-155.5 480.5,-136.5 363.5,-136.5"/>
<text text-anchor="middle" x="422" y="-143.5" font-family="Helvetica,sans-Serif" font-size="10.00">hFramework::UiVideo</text>
</a>
</g>
</g>
<!-- Node7&#45;&gt;Node6 -->
<g id="edge7" class="edge"><title>Node7&#45;&gt;Node6</title>
<path fill="none" stroke="#9a32cd" stroke-dasharray="5,2" d="M402.806,-130.096C385.941,-117.001 361.988,-98.4028 348.115,-87.6305"/>
<polygon fill="#9a32cd" stroke="#9a32cd" points="400.843,-133.003 410.888,-136.372 405.136,-127.474 400.843,-133.003"/>
<text text-anchor="middle" x="402.5" y="-109.5" font-family="Helvetica,sans-Serif" font-size="10.00"> video</text>
</g>
<!-- Node8 -->
<g id="node8" class="node"><title>Node8</title>
<g id="a_node8"><a xlink:href="structh_framework_1_1___ui_widget.html" target="_top" xlink:title="hFramework::_UiWidget">
<polygon fill="white" stroke="black" points="361,-226.5 361,-245.5 489,-245.5 489,-226.5 361,-226.5"/>
<text text-anchor="middle" x="425" y="-233.5" font-family="Helvetica,sans-Serif" font-size="10.00">hFramework::_UiWidget</text>
</a>
</g>
</g>
<!-- Node8&#45;&gt;Node7 -->
<g id="edge8" class="edge"><title>Node8&#45;&gt;Node7</title>
<path fill="none" stroke="midnightblue" d="M424.971,-216.134C424.882,-204.077 424.638,-188.112 424,-174 423.72,-167.802 423.197,-160.817 422.756,-155.505"/>
<polygon fill="midnightblue" stroke="midnightblue" points="421.471,-216.323 425.015,-226.308 428.471,-216.293 421.471,-216.323"/>
</g>
<!-- Node9 -->
<g id="node9" class="node"><title>Node9</title>
<g id="a_node9"><a xlink:href="structh_framework_1_1h_id.html" target="_top" xlink:title="hFramework::hId">
<polygon fill="white" stroke="black" points="306.5,-294.5 306.5,-313.5 401.5,-313.5 401.5,-294.5 306.5,-294.5"/>
<text text-anchor="middle" x="354" y="-301.5" font-family="Helvetica,sans-Serif" font-size="10.00">hFramework::hId</text>
</a>
</g>
</g>
<!-- Node9&#45;&gt;Node6 -->
<g id="edge10" class="edge"><title>Node9&#45;&gt;Node6</title>
<path fill="none" stroke="#9a32cd" stroke-dasharray="5,2" d="M344.839,-285.379C335.705,-266.738 322.294,-236.181 317,-208 308.547,-163.007 325.886,-108.701 333.577,-87.7921"/>
<polygon fill="#9a32cd" stroke="#9a32cd" points="341.769,-287.064 349.395,-294.419 348.02,-283.913 341.769,-287.064"/>
<text text-anchor="middle" x="368.5" y="-199.5" font-family="Helvetica,sans-Serif" font-size="10.00"> onConsoleWrite</text>
<text text-anchor="middle" x="368.5" y="-188.5" font-family="Helvetica,sans-Serif" font-size="10.00">onValueChangeEvent</text>
<text text-anchor="middle" x="368.5" y="-177.5" font-family="Helvetica,sans-Serif" font-size="10.00">onButtonEvent</text>
</g>
<!-- Node9&#45;&gt;Node8 -->
<g id="edge9" class="edge"><title>Node9&#45;&gt;Node8</title>
<path fill="none" stroke="#9a32cd" stroke-dasharray="5,2" d="M370.769,-287.412C384.716,-274.447 404.07,-256.456 415.489,-245.841"/>
<polygon fill="#9a32cd" stroke="#9a32cd" points="368.223,-285 363.282,-294.372 372.989,-290.127 368.223,-285"/>
<text text-anchor="middle" x="402" y="-267.5" font-family="Helvetica,sans-Serif" font-size="10.00"> id</text>
</g>
</g>
</svg>
