<?xml version="1.0" encoding="UTF-8" standalone="no"?>
<!DOCTYPE svg PUBLIC "-//W3C//DTD SVG 1.1//EN"
 "http://www.w3.org/Graphics/SVG/1.1/DTD/svg11.dtd">
<!-- Generated by graphviz version 2.36.0 (20140111.2315)
 -->
<!-- Title: hFramework::hSPI Pages: 1 -->
<svg width="136pt" height="188pt"
 viewBox="0.00 0.00 136.00 188.00" xmlns="http://www.w3.org/2000/svg" xmlns:xlink="http://www.w3.org/1999/xlink">
<g id="graph0" class="graph" transform="scale(1 1) rotate(0) translate(4 184)">
<title>hFramework::hSPI</title>
<polygon fill="white" stroke="none" points="-4,4 -4,-184 132,-184 132,4 -4,4"/>
<!-- Node1 -->
<g id="node1" class="node"><title>Node1</title>
<polygon fill="#bfbfbf" stroke="black" points="13.5,-0.5 13.5,-19.5 114.5,-19.5 114.5,-0.5 13.5,-0.5"/>
<text text-anchor="middle" x="64" y="-7.5" font-family="Helvetica,sans-Serif" font-size="10.00">hFramework::hSPI</text>
</g>
<!-- Node2 -->
<g id="node2" class="node"><title>Node2</title>
<g id="a_node2"><a xlink:href="classh_framework_1_1h_g_p_i_o.html" target="_top" xlink:title="Implementation of on&#45;board General Purpose Input&#45;Output pin (GPIO). ">
<polygon fill="white" stroke="black" points="9,-90.5 9,-109.5 119,-109.5 119,-90.5 9,-90.5"/>
<text text-anchor="middle" x="64" y="-97.5" font-family="Helvetica,sans-Serif" font-size="10.00">hFramework::hGPIO</text>
</a>
</g>
</g>
<!-- Node2&#45;&gt;Node1 -->
<g id="edge1" class="edge"><title>Node2&#45;&gt;Node1</title>
<path fill="none" stroke="#9a32cd" stroke-dasharray="5,2" d="M64,-79.9784C64,-61.3096 64,-33.6696 64,-19.7241"/>
<polygon fill="#9a32cd" stroke="#9a32cd" points="60.5001,-80.2405 64,-90.2405 67.5001,-80.2405 60.5001,-80.2405"/>
<text text-anchor="middle" x="84" y="-63.5" font-family="Helvetica,sans-Serif" font-size="10.00"> pinMosi</text>
<text text-anchor="middle" x="84" y="-52.5" font-family="Helvetica,sans-Serif" font-size="10.00">pinMiso</text>
<text text-anchor="middle" x="84" y="-41.5" font-family="Helvetica,sans-Serif" font-size="10.00">pinSck</text>
</g>
<!-- Node3 -->
<g id="node3" class="node"><title>Node3</title>
<g id="a_node3"><a xlink:href="classh_framework_1_1interfaces_1_1_i_g_p_i_o.html" target="_top" xlink:title="Interface for General Purpose Input&#45;Output pin (GPIO). ">
<polygon fill="white" stroke="black" points="0,-149 0,-179 128,-179 128,-149 0,-149"/>
<text text-anchor="start" x="8" y="-167" font-family="Helvetica,sans-Serif" font-size="10.00">hFramework::interfaces</text>
<text text-anchor="middle" x="64" y="-156" font-family="Helvetica,sans-Serif" font-size="10.00">::IGPIO</text>
</a>
</g>
</g>
<!-- Node3&#45;&gt;Node2 -->
<g id="edge2" class="edge"><title>Node3&#45;&gt;Node2</title>
<path fill="none" stroke="midnightblue" d="M64,-138.871C64,-128.663 64,-117.408 64,-109.842"/>
<polygon fill="midnightblue" stroke="midnightblue" points="60.5001,-138.931 64,-148.931 67.5001,-138.931 60.5001,-138.931"/>
</g>
</g>
</svg>
