<?xml version="1.0" encoding="UTF-8" standalone="no"?>
<!DOCTYPE svg PUBLIC "-//W3C//DTD SVG 1.1//EN"
 "http://www.w3.org/Graphics/SVG/1.1/DTD/svg11.dtd">
<!-- Generated by graphviz version 2.36.0 (20140111.2315)
 -->
<!-- Title: hFramework::hSensor_simple Pages: 1 -->
<svg width="176pt" height="164pt"
 viewBox="0.00 0.00 176.00 164.00" xmlns="http://www.w3.org/2000/svg" xmlns:xlink="http://www.w3.org/1999/xlink">
<g id="graph0" class="graph" transform="scale(1 1) rotate(0) translate(4 160)">
<title>hFramework::hSensor_simple</title>
<polygon fill="white" stroke="none" points="-4,4 -4,-160 172,-160 172,4 -4,4"/>
<!-- Node1 -->
<g id="node1" class="node"><title>Node1</title>
<polygon fill="#bfbfbf" stroke="black" points="4,-1 4,-31 124,-31 124,-1 4,-1"/>
<text text-anchor="start" x="12" y="-19" font-family="Helvetica,sans-Serif" font-size="10.00">hFramework::hSensor</text>
<text text-anchor="middle" x="64" y="-8" font-family="Helvetica,sans-Serif" font-size="10.00">_simple</text>
</g>
<!-- Node2 -->
<g id="node2" class="node"><title>Node2</title>
<g id="a_node2"><a xlink:href="classh_framework_1_1h_sensor.html" target="_top" xlink:title="base implementation for on&#45;board hSensor port. ">
<polygon fill="white" stroke="black" points="48,-68.5 48,-87.5 168,-87.5 168,-68.5 48,-68.5"/>
<text text-anchor="middle" x="108" y="-75.5" font-family="Helvetica,sans-Serif" font-size="10.00">hFramework::hSensor</text>
</a>
</g>
</g>
<!-- Node2&#45;&gt;Node1 -->
<g id="edge1" class="edge"><title>Node2&#45;&gt;Node1</title>
<path fill="none" stroke="midnightblue" d="M95.6113,-60.1064C88.9111,-50.9697 80.7304,-39.8142 74.3699,-31.1408"/>
<polygon fill="midnightblue" stroke="midnightblue" points="92.9598,-62.4092 101.696,-68.4035 98.6046,-58.2696 92.9598,-62.4092"/>
</g>
<!-- Node3 -->
<g id="node3" class="node"><title>Node3</title>
<g id="a_node3"><a xlink:href="classh_framework_1_1interfaces_1_1_i_sensor.html" target="_top" xlink:title="Interface to hSensor port. ">
<polygon fill="white" stroke="black" points="0,-125 0,-155 128,-155 128,-125 0,-125"/>
<text text-anchor="start" x="8" y="-143" font-family="Helvetica,sans-Serif" font-size="10.00">hFramework::interfaces</text>
<text text-anchor="middle" x="64" y="-132" font-family="Helvetica,sans-Serif" font-size="10.00">::ISensor</text>
</a>
</g>
</g>
<!-- Node3&#45;&gt;Node1 -->
<g id="edge3" class="edge"><title>Node3&#45;&gt;Node1</title>
<path fill="none" stroke="midnightblue" d="M49.9808,-116.035C45.5526,-107.542 41.2337,-97.6313 39,-88 34.3057,-67.7588 45.0866,-45.2722 53.9304,-31.1376"/>
<polygon fill="midnightblue" stroke="midnightblue" points="47.0065,-117.888 54.9214,-124.931 53.1262,-114.49 47.0065,-117.888"/>
</g>
<!-- Node3&#45;&gt;Node2 -->
<g id="edge2" class="edge"><title>Node3&#45;&gt;Node2</title>
<path fill="none" stroke="midnightblue" d="M80.5617,-116.416C87.8955,-106.415 96.0895,-95.2416 101.598,-87.7305"/>
<polygon fill="midnightblue" stroke="midnightblue" points="77.5186,-114.647 74.4274,-124.781 83.1635,-118.787 77.5186,-114.647"/>
</g>
</g>
</svg>
