<?xml version="1.0" encoding="UTF-8" standalone="no"?>
<!DOCTYPE svg PUBLIC "-//W3C//DTD SVG 1.1//EN"
 "http://www.w3.org/Graphics/SVG/1.1/DTD/svg11.dtd">
<!-- Generated by graphviz version 2.36.0 (20140111.2315)
 -->
<!-- Title: hFramework::hSerial Pages: 1 -->
<svg width="148pt" height="208pt"
 viewBox="0.00 0.00 148.00 208.00" xmlns="http://www.w3.org/2000/svg" xmlns:xlink="http://www.w3.org/1999/xlink">
<g id="graph0" class="graph" transform="scale(1 1) rotate(0) translate(4 204)">
<title>hFramework::hSerial</title>
<polygon fill="white" stroke="none" points="-4,4 -4,-204 144,-204 144,4 -4,4"/>
<!-- Node1 -->
<g id="node1" class="node"><title>Node1</title>
<polygon fill="#bfbfbf" stroke="black" points="13.5,-0.5 13.5,-19.5 126.5,-19.5 126.5,-0.5 13.5,-0.5"/>
<text text-anchor="middle" x="70" y="-7.5" font-family="Helvetica,sans-Serif" font-size="10.00">hFramework::hSerial</text>
</g>
<!-- Node2 -->
<g id="node2" class="node"><title>Node2</title>
<g id="a_node2"><a xlink:href="classh_framework_1_1interfaces_1_1_i_serial.html" target="_top" xlink:title="Interface to the serial port. This is a restricted version of hSerial. ">
<polygon fill="white" stroke="black" points="6,-57 6,-87 134,-87 134,-57 6,-57"/>
<text text-anchor="start" x="14" y="-75" font-family="Helvetica,sans-Serif" font-size="10.00">hFramework::interfaces</text>
<text text-anchor="middle" x="70" y="-64" font-family="Helvetica,sans-Serif" font-size="10.00">::ISerial</text>
</a>
</g>
</g>
<!-- Node2&#45;&gt;Node1 -->
<g id="edge1" class="edge"><title>Node2&#45;&gt;Node1</title>
<path fill="none" stroke="midnightblue" d="M70,-46.5858C70,-37.0743 70,-26.7864 70,-19.7305"/>
<polygon fill="midnightblue" stroke="midnightblue" points="66.5001,-46.7808 70,-56.7808 73.5001,-46.7809 66.5001,-46.7808"/>
</g>
<!-- Node3 -->
<g id="node3" class="node"><title>Node3</title>
<g id="a_node3"><a xlink:href="classh_framework_1_1h_printf_dev.html" target="_top" xlink:title="Provides printf and vprintf methods as extension to hStreamDev. ">
<polygon fill="white" stroke="black" points="5,-124.5 5,-143.5 135,-143.5 135,-124.5 5,-124.5"/>
<text text-anchor="middle" x="70" y="-131.5" font-family="Helvetica,sans-Serif" font-size="10.00">hFramework::hPrintfDev</text>
</a>
</g>
</g>
<!-- Node3&#45;&gt;Node2 -->
<g id="edge2" class="edge"><title>Node3&#45;&gt;Node2</title>
<path fill="none" stroke="midnightblue" d="M70,-114.371C70,-105.585 70,-95.2721 70,-87.1408"/>
<polygon fill="midnightblue" stroke="midnightblue" points="66.5001,-114.403 70,-124.403 73.5001,-114.403 66.5001,-114.403"/>
</g>
<!-- Node4 -->
<g id="node4" class="node"><title>Node4</title>
<g id="a_node4"><a xlink:href="classh_framework_1_1h_stream_dev.html" target="_top" xlink:title="Stream device interface. ">
<polygon fill="white" stroke="black" points="-0.5,-180.5 -0.5,-199.5 140.5,-199.5 140.5,-180.5 -0.5,-180.5"/>
<text text-anchor="middle" x="70" y="-187.5" font-family="Helvetica,sans-Serif" font-size="10.00">hFramework::hStreamDev</text>
</a>
</g>
</g>
<!-- Node4&#45;&gt;Node3 -->
<g id="edge3" class="edge"><title>Node4&#45;&gt;Node3</title>
<path fill="none" stroke="midnightblue" d="M70,-169.805C70,-160.91 70,-150.78 70,-143.751"/>
<polygon fill="midnightblue" stroke="midnightblue" points="66.5001,-170.083 70,-180.083 73.5001,-170.083 66.5001,-170.083"/>
</g>
</g>
</svg>
