<?xml version="1.0" encoding="UTF-8" standalone="no"?>
<!DOCTYPE svg PUBLIC "-//W3C//DTD SVG 1.1//EN"
 "http://www.w3.org/Graphics/SVG/1.1/DTD/svg11.dtd">
<!-- Generated by graphviz version 2.36.0 (20140111.2315)
 -->
<!-- Title: hFramework::hSensor_adc Pages: 1 -->
<svg width="1112pt" height="255pt"
 viewBox="0.00 0.00 1112.00 255.00" xmlns="http://www.w3.org/2000/svg" xmlns:xlink="http://www.w3.org/1999/xlink">
<g id="graph0" class="graph" transform="scale(1 1) rotate(0) translate(4 251)">
<title>hFramework::hSensor_adc</title>
<polygon fill="white" stroke="none" points="-4,4 -4,-251 1108,-251 1108,4 -4,4"/>
<!-- Node1 -->
<g id="node1" class="node"><title>Node1</title>
<polygon fill="#bfbfbf" stroke="black" points="960.5,-151.5 960.5,-170.5 1103.5,-170.5 1103.5,-151.5 960.5,-151.5"/>
<text text-anchor="middle" x="1032" y="-158.5" font-family="Helvetica,sans-Serif" font-size="10.00">hFramework::hSensor_adc</text>
</g>
<!-- Node2 -->
<g id="node2" class="node"><title>Node2</title>
<g id="a_node2"><a xlink:href="classh_framework_1_1h_sensor.html" target="_top" xlink:title="base implementation for on&#45;board hSensor port. ">
<polygon fill="white" stroke="black" points="798,-131.5 798,-150.5 918,-150.5 918,-131.5 798,-131.5"/>
<text text-anchor="middle" x="858" y="-138.5" font-family="Helvetica,sans-Serif" font-size="10.00">hFramework::hSensor</text>
</a>
</g>
</g>
<!-- Node2&#45;&gt;Node1 -->
<g id="edge1" class="edge"><title>Node2&#45;&gt;Node1</title>
<path fill="none" stroke="midnightblue" d="M928.23,-149.05C938.835,-150.283 949.794,-151.557 960.428,-152.794"/>
<polygon fill="midnightblue" stroke="midnightblue" points="928.53,-145.561 918.193,-147.883 927.721,-152.515 928.53,-145.561"/>
</g>
<!-- Node3 -->
<g id="node3" class="node"><title>Node3</title>
<g id="a_node3"><a xlink:href="classh_framework_1_1interfaces_1_1_i_sensor.html" target="_top" xlink:title="Interface to hSensor port. ">
<polygon fill="white" stroke="black" points="575,-169 575,-199 703,-199 703,-169 575,-169"/>
<text text-anchor="start" x="583" y="-187" font-family="Helvetica,sans-Serif" font-size="10.00">hFramework::interfaces</text>
<text text-anchor="middle" x="639" y="-176" font-family="Helvetica,sans-Serif" font-size="10.00">::ISensor</text>
</a>
</g>
</g>
<!-- Node3&#45;&gt;Node2 -->
<g id="edge2" class="edge"><title>Node3&#45;&gt;Node2</title>
<path fill="none" stroke="midnightblue" d="M713.145,-169.506C744.751,-163.243 780.851,-156.09 808.981,-150.515"/>
<polygon fill="midnightblue" stroke="midnightblue" points="712.186,-166.128 703.057,-171.505 713.546,-172.994 712.186,-166.128"/>
</g>
<!-- Node12 -->
<g id="node12" class="node"><title>Node12</title>
<g id="a_node12"><a xlink:href="classh_framework_1_1interfaces_1_1_i_sensor__adc.html" target="_top" xlink:title="Interface to hSensor port (with ADC on pin2). ">
<polygon fill="white" stroke="black" points="794,-172 794,-202 922,-202 922,-172 794,-172"/>
<text text-anchor="start" x="802" y="-190" font-family="Helvetica,sans-Serif" font-size="10.00">hFramework::interfaces</text>
<text text-anchor="middle" x="858" y="-179" font-family="Helvetica,sans-Serif" font-size="10.00">::ISensor_adc</text>
</a>
</g>
</g>
<!-- Node3&#45;&gt;Node12 -->
<g id="edge18" class="edge"><title>Node3&#45;&gt;Node12</title>
<path fill="none" stroke="midnightblue" d="M713.282,-185.013C739.404,-185.374 768.582,-185.778 793.786,-186.126"/>
<polygon fill="midnightblue" stroke="midnightblue" points="713.104,-181.51 703.057,-184.872 713.008,-188.51 713.104,-181.51"/>
</g>
<!-- Node4 -->
<g id="node4" class="node"><title>Node4</title>
<g id="a_node4"><a xlink:href="classh_framework_1_1h_g_p_i_o.html" target="_top" xlink:title="Implementation of on&#45;board General Purpose Input&#45;Output pin (GPIO). ">
<polygon fill="white" stroke="black" points="175,-105.5 175,-124.5 285,-124.5 285,-105.5 175,-105.5"/>
<text text-anchor="middle" x="230" y="-112.5" font-family="Helvetica,sans-Serif" font-size="10.00">hFramework::hGPIO</text>
</a>
</g>
</g>
<!-- Node4&#45;&gt;Node1 -->
<g id="edge19" class="edge"><title>Node4&#45;&gt;Node1</title>
<path fill="none" stroke="#9a32cd" stroke-dasharray="5,2" d="M243.758,-133.447C268.854,-167.321 328.218,-236 397,-236 397,-236 397,-236 859,-236 923.501,-236 991.119,-191.135 1018.45,-170.805"/>
<polygon fill="#9a32cd" stroke="#9a32cd" points="246.291,-130.975 237.609,-124.902 240.609,-135.063 246.291,-130.975"/>
<text text-anchor="middle" x="639" y="-239" font-family="Helvetica,sans-Serif" font-size="10.00"> pin1</text>
</g>
<!-- Node4&#45;&gt;Node2 -->
<g id="edge3" class="edge"><title>Node4&#45;&gt;Node2</title>
<path fill="none" stroke="#9a32cd" stroke-dasharray="5,2" d="M295.464,-121.752C301.053,-122.22 306.624,-122.646 312,-123 488.414,-134.613 697.469,-138.861 797.662,-140.31"/>
<polygon fill="#9a32cd" stroke="#9a32cd" points="295.691,-118.258 285.423,-120.868 295.078,-125.231 295.691,-118.258"/>
<text text-anchor="middle" x="516" y="-138" font-family="Helvetica,sans-Serif" font-size="10.00"> currentSrcPin</text>
</g>
<!-- Node7 -->
<g id="node7" class="node"><title>Node7</title>
<g id="a_node7"><a xlink:href="classh_framework_1_1h_g_p_i_o__adc.html" target="_top" xlink:title="Implementation of on&#45;board General Purpose Input&#45;Output pin (GPIO) with ADC capability. ">
<polygon fill="white" stroke="black" points="332,-54.5 332,-73.5 464,-73.5 464,-54.5 332,-54.5"/>
<text text-anchor="middle" x="398" y="-61.5" font-family="Helvetica,sans-Serif" font-size="10.00">hFramework::hGPIO_adc</text>
</a>
</g>
</g>
<!-- Node4&#45;&gt;Node7 -->
<g id="edge7" class="edge"><title>Node4&#45;&gt;Node7</title>
<path fill="none" stroke="midnightblue" d="M270.205,-102.353C288.887,-96.3848 311.566,-89.2227 332,-83 342.347,-79.849 353.652,-76.5089 363.89,-73.5226"/>
<polygon fill="midnightblue" stroke="midnightblue" points="269.012,-99.0603 260.556,-105.443 271.147,-105.727 269.012,-99.0603"/>
</g>
<!-- Node9 -->
<g id="node9" class="node"><title>Node9</title>
<g id="a_node9"><a xlink:href="classh_framework_1_1h_g_p_i_o__int.html" target="_top" xlink:title="Implementation of on&#45;board General Purpose Input&#45;Output pin (GPIO) with interrupt capability...">
<polygon fill="white" stroke="black" points="334.5,-92.5 334.5,-111.5 461.5,-111.5 461.5,-92.5 334.5,-92.5"/>
<text text-anchor="middle" x="398" y="-99.5" font-family="Helvetica,sans-Serif" font-size="10.00">hFramework::hGPIO_int</text>
</a>
</g>
</g>
<!-- Node4&#45;&gt;Node9 -->
<g id="edge11" class="edge"><title>Node4&#45;&gt;Node9</title>
<path fill="none" stroke="midnightblue" d="M295.47,-109.951C308.281,-108.948 321.712,-107.896 334.457,-106.898"/>
<polygon fill="midnightblue" stroke="midnightblue" points="295.051,-106.473 285.355,-110.743 295.597,-113.452 295.051,-106.473"/>
</g>
<!-- Node5 -->
<g id="node5" class="node"><title>Node5</title>
<g id="a_node5"><a xlink:href="classh_framework_1_1interfaces_1_1_i_g_p_i_o.html" target="_top" xlink:title="Interface for General Purpose Input&#45;Output pin (GPIO). ">
<polygon fill="white" stroke="black" points="0,-50 0,-80 128,-80 128,-50 0,-50"/>
<text text-anchor="start" x="8" y="-68" font-family="Helvetica,sans-Serif" font-size="10.00">hFramework::interfaces</text>
<text text-anchor="middle" x="64" y="-57" font-family="Helvetica,sans-Serif" font-size="10.00">::IGPIO</text>
</a>
</g>
</g>
<!-- Node5&#45;&gt;Node4 -->
<g id="edge4" class="edge"><title>Node5&#45;&gt;Node4</title>
<path fill="none" stroke="midnightblue" d="M123.902,-82.9579C148.719,-90.524 176.609,-99.027 197.419,-105.372"/>
<polygon fill="midnightblue" stroke="midnightblue" points="124.791,-79.5701 114.205,-80.0016 122.75,-86.2658 124.791,-79.5701"/>
</g>
<!-- Node8 -->
<g id="node8" class="node"><title>Node8</title>
<g id="a_node8"><a xlink:href="classh_framework_1_1interfaces_1_1_i_g_p_i_o__adc.html" target="_top" xlink:title="Interface for General Purpose Input&#45;Output pin (GPIO) with ADC capability. ">
<polygon fill="white" stroke="black" points="166,-0 166,-30 294,-30 294,-0 166,-0"/>
<text text-anchor="start" x="174" y="-18" font-family="Helvetica,sans-Serif" font-size="10.00">hFramework::interfaces</text>
<text text-anchor="middle" x="230" y="-7" font-family="Helvetica,sans-Serif" font-size="10.00">::IGPIO_adc</text>
</a>
</g>
</g>
<!-- Node5&#45;&gt;Node8 -->
<g id="edge9" class="edge"><title>Node5&#45;&gt;Node8</title>
<path fill="none" stroke="midnightblue" d="M123.857,-47.0558C142.101,-41.4937 162.009,-35.4242 179.546,-30.0774"/>
<polygon fill="midnightblue" stroke="midnightblue" points="122.75,-43.7342 114.205,-49.9984 124.791,-50.4299 122.75,-43.7342"/>
</g>
<!-- Node10 -->
<g id="node10" class="node"><title>Node10</title>
<g id="a_node10"><a xlink:href="classh_framework_1_1interfaces_1_1_i_g_p_i_o__int.html" target="_top" xlink:title="Interface for General Purpose Input&#45;Output pin (GPIO) with interrupt capability. ">
<polygon fill="white" stroke="black" points="166,-50 166,-80 294,-80 294,-50 166,-50"/>
<text text-anchor="start" x="174" y="-68" font-family="Helvetica,sans-Serif" font-size="10.00">hFramework::interfaces</text>
<text text-anchor="middle" x="230" y="-57" font-family="Helvetica,sans-Serif" font-size="10.00">::IGPIO_int</text>
</a>
</g>
</g>
<!-- Node5&#45;&gt;Node10 -->
<g id="edge13" class="edge"><title>Node5&#45;&gt;Node10</title>
<path fill="none" stroke="midnightblue" d="M138.57,-65C147.645,-65 156.859,-65 165.762,-65"/>
<polygon fill="midnightblue" stroke="midnightblue" points="138.407,-61.5001 128.407,-65 138.407,-68.5001 138.407,-61.5001"/>
</g>
<!-- Node6 -->
<g id="node6" class="node"><title>Node6</title>
<g id="a_node6"><a xlink:href="classh_framework_1_1h_g_p_i_o__super.html" target="_top" xlink:title="Implementation of on&#45;board General Purpose Input&#45;Output pin (GPIO) with interrupt and ADC capability...">
<polygon fill="white" stroke="black" points="568,-88.5 568,-107.5 710,-107.5 710,-88.5 568,-88.5"/>
<text text-anchor="middle" x="639" y="-95.5" font-family="Helvetica,sans-Serif" font-size="10.00">hFramework::hGPIO_super</text>
</a>
</g>
</g>
<!-- Node6&#45;&gt;Node2 -->
<g id="edge5" class="edge"><title>Node6&#45;&gt;Node2</title>
<path fill="none" stroke="#9a32cd" stroke-dasharray="5,2" d="M720.407,-105.534C738.788,-107.951 758.16,-111.058 776,-115 794.892,-119.175 815.659,-125.885 831.436,-131.443"/>
<polygon fill="#9a32cd" stroke="#9a32cd" points="720.673,-102.039 710.313,-104.26 719.796,-108.984 720.673,-102.039"/>
<text text-anchor="middle" x="752" y="-118" font-family="Helvetica,sans-Serif" font-size="10.00"> pinIntAdc</text>
</g>
<!-- Node7&#45;&gt;Node1 -->
<g id="edge20" class="edge"><title>Node7&#45;&gt;Node1</title>
<path fill="none" stroke="#9a32cd" stroke-dasharray="5,2" d="M474.442,-64.439C537.594,-65.5719 629.973,-69.0128 710,-79 805.401,-90.9057 829.39,-96.1839 922,-122 952.008,-130.365 985.637,-142.898 1007.5,-151.485"/>
<polygon fill="#9a32cd" stroke="#9a32cd" points="474.229,-60.9352 464.173,-64.2706 474.115,-67.9342 474.229,-60.9352"/>
<text text-anchor="middle" x="752" y="-91" font-family="Helvetica,sans-Serif" font-size="10.00"> pin2</text>
</g>
<!-- Node7&#45;&gt;Node6 -->
<g id="edge6" class="edge"><title>Node7&#45;&gt;Node6</title>
<path fill="none" stroke="midnightblue" d="M474.215,-74.7C505.272,-79.1182 540.977,-84.1976 571.107,-88.4839"/>
<polygon fill="midnightblue" stroke="midnightblue" points="474.701,-71.234 464.308,-73.2906 473.715,-78.1643 474.701,-71.234"/>
</g>
<!-- Node8&#45;&gt;Node7 -->
<g id="edge8" class="edge"><title>Node8&#45;&gt;Node7</title>
<path fill="none" stroke="midnightblue" d="M291.798,-32.9464C316.431,-40.2175 343.879,-48.3197 364.561,-54.4246"/>
<polygon fill="midnightblue" stroke="midnightblue" points="292.742,-29.5757 282.16,-30.1014 290.76,-36.2894 292.742,-29.5757"/>
</g>
<!-- Node11 -->
<g id="node11" class="node"><title>Node11</title>
<g id="a_node11"><a xlink:href="classh_framework_1_1interfaces_1_1_i_g_p_i_o__super.html" target="_top" xlink:title="Interface for General Purpose Input&#45;Output pin (GPIO) with interrupt and ADC capability. ">
<polygon fill="white" stroke="black" points="334,-5 334,-35 462,-35 462,-5 334,-5"/>
<text text-anchor="start" x="342" y="-23" font-family="Helvetica,sans-Serif" font-size="10.00">hFramework::interfaces</text>
<text text-anchor="middle" x="398" y="-12" font-family="Helvetica,sans-Serif" font-size="10.00">::IGPIO_super</text>
</a>
</g>
</g>
<!-- Node8&#45;&gt;Node11 -->
<g id="edge16" class="edge"><title>Node8&#45;&gt;Node11</title>
<path fill="none" stroke="midnightblue" d="M304.595,-3.47343C307.77,-3.53622 310.916,-3.70547 314,-4 320.428,-4.61389 327.098,-5.48941 333.737,-6.5185"/>
<polygon fill="midnightblue" stroke="midnightblue" points="304.34,0.0235288 294.388,-3.61214 304.435,-6.97582 304.34,0.0235288"/>
</g>
<!-- Node9&#45;&gt;Node6 -->
<g id="edge10" class="edge"><title>Node9&#45;&gt;Node6</title>
<path fill="none" stroke="midnightblue" d="M471.908,-100.78C502.313,-100.271 537.489,-99.6822 567.62,-99.1779"/>
<polygon fill="midnightblue" stroke="midnightblue" points="471.734,-97.2821 461.794,-100.949 471.852,-104.281 471.734,-97.2821"/>
</g>
<!-- Node10&#45;&gt;Node9 -->
<g id="edge12" class="edge"><title>Node10&#45;&gt;Node9</title>
<path fill="none" stroke="midnightblue" d="M304.217,-81.3194C321.325,-85.1328 338.996,-89.0714 354.267,-92.4751"/>
<polygon fill="midnightblue" stroke="midnightblue" points="304.753,-77.8531 294.231,-79.0937 303.23,-84.6854 304.753,-77.8531"/>
</g>
<!-- Node10&#45;&gt;Node11 -->
<g id="edge15" class="edge"><title>Node10&#45;&gt;Node11</title>
<path fill="none" stroke="midnightblue" d="M296.389,-47.274C311.283,-43.2366 326.97,-38.9841 341.41,-35.0697"/>
<polygon fill="midnightblue" stroke="midnightblue" points="295.473,-43.8959 286.737,-49.8905 297.305,-50.6521 295.473,-43.8959"/>
</g>
<!-- Node11&#45;&gt;Node6 -->
<g id="edge14" class="edge"><title>Node11&#45;&gt;Node6</title>
<path fill="none" stroke="midnightblue" d="M454.728,-38.1875C502.823,-53.8838 570.41,-75.9413 608.634,-88.4161"/>
<polygon fill="midnightblue" stroke="midnightblue" points="455.674,-34.8145 445.082,-35.0392 453.502,-41.4691 455.674,-34.8145"/>
</g>
<!-- Node12&#45;&gt;Node1 -->
<g id="edge17" class="edge"><title>Node12&#45;&gt;Node1</title>
<path fill="none" stroke="midnightblue" d="M932.008,-175.964C943.959,-174.157 956.253,-172.299 967.938,-170.533"/>
<polygon fill="midnightblue" stroke="midnightblue" points="931.434,-172.511 922.07,-177.466 932.481,-179.432 931.434,-172.511"/>
</g>
</g>
</svg>
