<?xml version="1.0" encoding="UTF-8" standalone="no"?>
<!DOCTYPE svg PUBLIC "-//W3C//DTD SVG 1.1//EN"
 "http://www.w3.org/Graphics/SVG/1.1/DTD/svg11.dtd">
<!-- Generated by graphviz version 2.36.0 (20140111.2315)
 -->
<!-- Title: hFramework::IServo Pages: 1 -->
<svg width="291pt" height="96pt"
 viewBox="0.00 0.00 291.00 96.00" xmlns="http://www.w3.org/2000/svg" xmlns:xlink="http://www.w3.org/1999/xlink">
<g id="graph0" class="graph" transform="scale(1 1) rotate(0) translate(4 92)">
<title>hFramework::IServo</title>
<polygon fill="white" stroke="none" points="-4,4 -4,-92 287,-92 287,4 -4,4"/>
<!-- Node1 -->
<g id="node1" class="node"><title>Node1</title>
<polygon fill="#bfbfbf" stroke="black" points="90,-68.5 90,-87.5 200,-87.5 200,-68.5 90,-68.5"/>
<text text-anchor="middle" x="145" y="-75.5" font-family="Helvetica,sans-Serif" font-size="10.00">hFramework::IServo</text>
</g>
<!-- Node2 -->
<g id="node2" class="node"><title>Node2</title>
<g id="a_node2"><a xlink:href="classh_framework_1_1h_servo__h_ext.html" target="_top" xlink:title="Provides interface to servo located on hExt Servo controller board. ">
<polygon fill="white" stroke="black" points="0,-6.5 0,-25.5 140,-25.5 140,-6.5 0,-6.5"/>
<text text-anchor="middle" x="70" y="-13.5" font-family="Helvetica,sans-Serif" font-size="10.00">hFramework::hServo_hExt</text>
</a>
</g>
</g>
<!-- Node1&#45;&gt;Node2 -->
<g id="edge1" class="edge"><title>Node1&#45;&gt;Node2</title>
<path fill="none" stroke="midnightblue" d="M126.058,-61.8464C111.713,-50.3706 92.5244,-35.0195 80.7257,-25.5806"/>
<polygon fill="midnightblue" stroke="midnightblue" points="124.259,-64.8895 134.254,-68.4035 128.632,-59.4234 124.259,-64.8895"/>
</g>
<!-- Node3 -->
<g id="node3" class="node"><title>Node3</title>
<g id="a_node3"><a xlink:href="classh_modules_1_1_servo_driver___servo.html" target="_top" xlink:title="Provides interface to servo located on hExt Servo Driver module. ">
<polygon fill="white" stroke="black" points="158.5,-1 158.5,-31 283.5,-31 283.5,-1 158.5,-1"/>
<text text-anchor="start" x="166.5" y="-19" font-family="Helvetica,sans-Serif" font-size="10.00">hModules::ServoDriver</text>
<text text-anchor="middle" x="221" y="-8" font-family="Helvetica,sans-Serif" font-size="10.00">_Servo</text>
</a>
</g>
</g>
<!-- Node1&#45;&gt;Node3 -->
<g id="edge2" class="edge"><title>Node1&#45;&gt;Node3</title>
<path fill="none" stroke="midnightblue" d="M163.91,-62.0711C175.894,-52.6097 191.301,-40.4466 203.088,-31.1408"/>
<polygon fill="midnightblue" stroke="midnightblue" points="161.569,-59.4599 155.889,-68.4035 165.907,-64.9541 161.569,-59.4599"/>
</g>
</g>
</svg>
