<?xml version="1.0" encoding="UTF-8" standalone="no"?>
<!DOCTYPE svg PUBLIC "-//W3C//DTD SVG 1.1//EN"
 "http://www.w3.org/Graphics/SVG/1.1/DTD/svg11.dtd">
<!-- Generated by graphviz version 2.36.0 (20140111.2315)
 -->
<!-- Title: hFramework::interfaces::IGPIO_int Pages: 1 -->
<svg width="281pt" height="232pt"
 viewBox="0.00 0.00 281.00 232.00" xmlns="http://www.w3.org/2000/svg" xmlns:xlink="http://www.w3.org/1999/xlink">
<g id="graph0" class="graph" transform="scale(1 1) rotate(0) translate(4 228)">
<title>hFramework::interfaces::IGPIO_int</title>
<polygon fill="white" stroke="none" points="-4,4 -4,-228 277,-228 277,4 -4,4"/>
<!-- Node1 -->
<g id="node1" class="node"><title>Node1</title>
<polygon fill="#bfbfbf" stroke="black" points="72,-125 72,-155 200,-155 200,-125 72,-125"/>
<text text-anchor="start" x="80" y="-143" font-family="Helvetica,sans-Serif" font-size="10.00">hFramework::interfaces</text>
<text text-anchor="middle" x="136" y="-132" font-family="Helvetica,sans-Serif" font-size="10.00">::IGPIO_int</text>
</g>
<!-- Node3 -->
<g id="node3" class="node"><title>Node3</title>
<g id="a_node3"><a xlink:href="classh_framework_1_1h_g_p_i_o__int.html" target="_top" xlink:title="Implementation of on&#45;board General Purpose Input&#45;Output pin (GPIO) with interrupt capability...">
<polygon fill="white" stroke="black" points="-0.5,-62.5 -0.5,-81.5 126.5,-81.5 126.5,-62.5 -0.5,-62.5"/>
<text text-anchor="middle" x="63" y="-69.5" font-family="Helvetica,sans-Serif" font-size="10.00">hFramework::hGPIO_int</text>
</a>
</g>
</g>
<!-- Node1&#45;&gt;Node3 -->
<g id="edge2" class="edge"><title>Node1&#45;&gt;Node3</title>
<path fill="none" stroke="midnightblue" d="M112.609,-117.852C99.1301,-105.666 82.9012,-90.9929 72.7646,-81.8283"/>
<polygon fill="midnightblue" stroke="midnightblue" points="110.395,-120.569 120.16,-124.679 115.09,-115.376 110.395,-120.569"/>
</g>
<!-- Node5 -->
<g id="node5" class="node"><title>Node5</title>
<g id="a_node5"><a xlink:href="classh_framework_1_1interfaces_1_1_i_g_p_i_o__super.html" target="_top" xlink:title="Interface for General Purpose Input&#45;Output pin (GPIO) with interrupt and ADC capability. ">
<polygon fill="white" stroke="black" points="145,-57 145,-87 273,-87 273,-57 145,-57"/>
<text text-anchor="start" x="153" y="-75" font-family="Helvetica,sans-Serif" font-size="10.00">hFramework::interfaces</text>
<text text-anchor="middle" x="209" y="-64" font-family="Helvetica,sans-Serif" font-size="10.00">::IGPIO_super</text>
</a>
</g>
</g>
<!-- Node1&#45;&gt;Node5 -->
<g id="edge4" class="edge"><title>Node1&#45;&gt;Node5</title>
<path fill="none" stroke="midnightblue" d="M159.53,-117.727C170.634,-107.687 183.579,-95.9831 193.442,-87.0663"/>
<polygon fill="midnightblue" stroke="midnightblue" points="156.91,-115.376 151.84,-124.679 161.605,-120.569 156.91,-115.376"/>
</g>
<!-- Node2 -->
<g id="node2" class="node"><title>Node2</title>
<g id="a_node2"><a xlink:href="classh_framework_1_1interfaces_1_1_i_g_p_i_o.html" target="_top" xlink:title="Interface for General Purpose Input&#45;Output pin (GPIO). ">
<polygon fill="white" stroke="black" points="72,-193 72,-223 200,-223 200,-193 72,-193"/>
<text text-anchor="start" x="80" y="-211" font-family="Helvetica,sans-Serif" font-size="10.00">hFramework::interfaces</text>
<text text-anchor="middle" x="136" y="-200" font-family="Helvetica,sans-Serif" font-size="10.00">::IGPIO</text>
</a>
</g>
</g>
<!-- Node2&#45;&gt;Node1 -->
<g id="edge1" class="edge"><title>Node2&#45;&gt;Node1</title>
<path fill="none" stroke="midnightblue" d="M136,-182.532C136,-173.361 136,-163.245 136,-155.293"/>
<polygon fill="midnightblue" stroke="midnightblue" points="132.5,-182.679 136,-192.679 139.5,-182.679 132.5,-182.679"/>
</g>
<!-- Node4 -->
<g id="node4" class="node"><title>Node4</title>
<g id="a_node4"><a xlink:href="classh_framework_1_1h_g_p_i_o__super.html" target="_top" xlink:title="Implementation of on&#45;board General Purpose Input&#45;Output pin (GPIO) with interrupt and ADC capability...">
<polygon fill="white" stroke="black" points="65,-0.5 65,-19.5 207,-19.5 207,-0.5 65,-0.5"/>
<text text-anchor="middle" x="136" y="-7.5" font-family="Helvetica,sans-Serif" font-size="10.00">hFramework::hGPIO_super</text>
</a>
</g>
</g>
<!-- Node3&#45;&gt;Node4 -->
<g id="edge3" class="edge"><title>Node3&#45;&gt;Node4</title>
<path fill="none" stroke="midnightblue" d="M81.4368,-55.8464C95.3991,-44.3706 114.076,-29.0195 125.56,-19.5806"/>
<polygon fill="midnightblue" stroke="midnightblue" points="78.9622,-53.3499 73.4591,-62.4035 83.4069,-58.7577 78.9622,-53.3499"/>
</g>
<!-- Node5&#45;&gt;Node4 -->
<g id="edge5" class="edge"><title>Node5&#45;&gt;Node4</title>
<path fill="none" stroke="midnightblue" d="M183.718,-50.2202C171.019,-39.7831 156.314,-27.6968 146.622,-19.7305"/>
<polygon fill="midnightblue" stroke="midnightblue" points="181.752,-53.1351 191.7,-56.7808 186.197,-47.7273 181.752,-53.1351"/>
</g>
</g>
</svg>
