<?xml version="1.0" encoding="UTF-8" standalone="no"?>
<!DOCTYPE svg PUBLIC "-//W3C//DTD SVG 1.1//EN"
 "http://www.w3.org/Graphics/SVG/1.1/DTD/svg11.dtd">
<!-- Generated by graphviz version 2.36.0 (20140111.2315)
 -->
<!-- Title: hFramework::hI2C Pages: 1 -->
<svg width="273pt" height="188pt"
 viewBox="0.00 0.00 273.00 188.00" xmlns="http://www.w3.org/2000/svg" xmlns:xlink="http://www.w3.org/1999/xlink">
<g id="graph0" class="graph" transform="scale(1 1) rotate(0) translate(4 184)">
<title>hFramework::hI2C</title>
<polygon fill="white" stroke="none" points="-4,4 -4,-184 269,-184 269,4 -4,4"/>
<!-- Node1 -->
<g id="node1" class="node"><title>Node1</title>
<polygon fill="#bfbfbf" stroke="black" points="55.5,-0.5 55.5,-19.5 156.5,-19.5 156.5,-0.5 55.5,-0.5"/>
<text text-anchor="middle" x="106" y="-7.5" font-family="Helvetica,sans-Serif" font-size="10.00">hFramework::hI2C</text>
</g>
<!-- Node2 -->
<g id="node2" class="node"><title>Node2</title>
<g id="a_node2"><a xlink:href="classh_framework_1_1interfaces_1_1_i_i2_c.html" target="_top" xlink:title="Interface for I2C. ">
<polygon fill="white" stroke="black" points="0,-79 0,-109 128,-109 128,-79 0,-79"/>
<text text-anchor="start" x="8" y="-97" font-family="Helvetica,sans-Serif" font-size="10.00">hFramework::interfaces</text>
<text text-anchor="middle" x="64" y="-86" font-family="Helvetica,sans-Serif" font-size="10.00">::II2C</text>
</a>
</g>
</g>
<!-- Node2&#45;&gt;Node1 -->
<g id="edge1" class="edge"><title>Node2&#45;&gt;Node1</title>
<path fill="none" stroke="midnightblue" d="M76.0153,-69.5417C84.5741,-52.8316 95.5867,-31.3307 101.599,-19.5915"/>
<polygon fill="midnightblue" stroke="midnightblue" points="72.7595,-68.2207 71.3158,-78.7167 78.9898,-71.4118 72.7595,-68.2207"/>
</g>
<!-- Node3 -->
<g id="node3" class="node"><title>Node3</title>
<g id="a_node3"><a xlink:href="classh_framework_1_1h_g_p_i_o.html" target="_top" xlink:title="Implementation of on&#45;board General Purpose Input&#45;Output pin (GPIO). ">
<polygon fill="white" stroke="black" points="146,-84.5 146,-103.5 256,-103.5 256,-84.5 146,-84.5"/>
<text text-anchor="middle" x="201" y="-91.5" font-family="Helvetica,sans-Serif" font-size="10.00">hFramework::hGPIO</text>
</a>
</g>
</g>
<!-- Node3&#45;&gt;Node1 -->
<g id="edge2" class="edge"><title>Node3&#45;&gt;Node1</title>
<path fill="none" stroke="#9a32cd" stroke-dasharray="5,2" d="M183.12,-77.5666C163.305,-60.4633 132.046,-33.4819 116.094,-19.7123"/>
<polygon fill="#9a32cd" stroke="#9a32cd" points="180.976,-80.3399 190.833,-84.2246 185.55,-75.0409 180.976,-80.3399"/>
<text text-anchor="middle" x="179" y="-52" font-family="Helvetica,sans-Serif" font-size="10.00"> pinScl</text>
<text text-anchor="middle" x="179" y="-41" font-family="Helvetica,sans-Serif" font-size="10.00">pinSda</text>
</g>
<!-- Node4 -->
<g id="node4" class="node"><title>Node4</title>
<g id="a_node4"><a xlink:href="classh_framework_1_1interfaces_1_1_i_g_p_i_o.html" target="_top" xlink:title="Interface for General Purpose Input&#45;Output pin (GPIO). ">
<polygon fill="white" stroke="black" points="137,-149 137,-179 265,-179 265,-149 137,-149"/>
<text text-anchor="start" x="145" y="-167" font-family="Helvetica,sans-Serif" font-size="10.00">hFramework::interfaces</text>
<text text-anchor="middle" x="201" y="-156" font-family="Helvetica,sans-Serif" font-size="10.00">::IGPIO</text>
</a>
</g>
</g>
<!-- Node4&#45;&gt;Node3 -->
<g id="edge3" class="edge"><title>Node4&#45;&gt;Node3</title>
<path fill="none" stroke="midnightblue" d="M201,-138.883C201,-126.733 201,-112.739 201,-103.883"/>
<polygon fill="midnightblue" stroke="midnightblue" points="197.5,-138.91 201,-148.91 204.5,-138.91 197.5,-138.91"/>
</g>
</g>
</svg>
