<?xml version="1.0" encoding="UTF-8" standalone="no"?>
<!DOCTYPE svg PUBLIC "-//W3C//DTD SVG 1.1//EN"
 "http://www.w3.org/Graphics/SVG/1.1/DTD/svg11.dtd">
<!-- Generated by graphviz version 2.36.0 (20140111.2315)
 -->
<!-- Title: hFramework::interfaces::ISensor_adc Pages: 1 -->
<svg width="150pt" height="164pt"
 viewBox="0.00 0.00 150.00 164.00" xmlns="http://www.w3.org/2000/svg" xmlns:xlink="http://www.w3.org/1999/xlink">
<g id="graph0" class="graph" transform="scale(1 1) rotate(0) translate(4 160)">
<title>hFramework::interfaces::ISensor_adc</title>
<polygon fill="white" stroke="none" points="-4,4 -4,-160 146,-160 146,4 -4,4"/>
<!-- Node1 -->
<g id="node1" class="node"><title>Node1</title>
<polygon fill="#bfbfbf" stroke="black" points="7,-57 7,-87 135,-87 135,-57 7,-57"/>
<text text-anchor="start" x="15" y="-75" font-family="Helvetica,sans-Serif" font-size="10.00">hFramework::interfaces</text>
<text text-anchor="middle" x="71" y="-64" font-family="Helvetica,sans-Serif" font-size="10.00">::ISensor_adc</text>
</g>
<!-- Node3 -->
<g id="node3" class="node"><title>Node3</title>
<g id="a_node3"><a xlink:href="classh_framework_1_1h_sensor__adc.html" target="_top" xlink:title="Implementation of on&#45;board hSensor port (with ADC on pin2). ">
<polygon fill="white" stroke="black" points="-0.5,-0.5 -0.5,-19.5 142.5,-19.5 142.5,-0.5 -0.5,-0.5"/>
<text text-anchor="middle" x="71" y="-7.5" font-family="Helvetica,sans-Serif" font-size="10.00">hFramework::hSensor_adc</text>
</a>
</g>
</g>
<!-- Node1&#45;&gt;Node3 -->
<g id="edge2" class="edge"><title>Node1&#45;&gt;Node3</title>
<path fill="none" stroke="midnightblue" d="M71,-46.5858C71,-37.0743 71,-26.7864 71,-19.7305"/>
<polygon fill="midnightblue" stroke="midnightblue" points="67.5001,-46.7808 71,-56.7808 74.5001,-46.7809 67.5001,-46.7808"/>
</g>
<!-- Node2 -->
<g id="node2" class="node"><title>Node2</title>
<g id="a_node2"><a xlink:href="classh_framework_1_1interfaces_1_1_i_sensor.html" target="_top" xlink:title="Interface to hSensor port. ">
<polygon fill="white" stroke="black" points="7,-125 7,-155 135,-155 135,-125 7,-125"/>
<text text-anchor="start" x="15" y="-143" font-family="Helvetica,sans-Serif" font-size="10.00">hFramework::interfaces</text>
<text text-anchor="middle" x="71" y="-132" font-family="Helvetica,sans-Serif" font-size="10.00">::ISensor</text>
</a>
</g>
</g>
<!-- Node2&#45;&gt;Node1 -->
<g id="edge1" class="edge"><title>Node2&#45;&gt;Node1</title>
<path fill="none" stroke="midnightblue" d="M71,-114.532C71,-105.361 71,-95.2449 71,-87.2931"/>
<polygon fill="midnightblue" stroke="midnightblue" points="67.5001,-114.679 71,-124.679 74.5001,-114.679 67.5001,-114.679"/>
</g>
</g>
</svg>
