<?xml version="1.0" encoding="UTF-8" standalone="no"?>
<!DOCTYPE svg PUBLIC "-//W3C//DTD SVG 1.1//EN"
 "http://www.w3.org/Graphics/SVG/1.1/DTD/svg11.dtd">
<!-- Generated by graphviz version 2.36.0 (20140111.2315)
 -->
<!-- Title: hFramework::ServoController_hExt Pages: 1 -->
<svg width="188pt" height="264pt"
 viewBox="0.00 0.00 188.00 264.00" xmlns="http://www.w3.org/2000/svg" xmlns:xlink="http://www.w3.org/1999/xlink">
<g id="graph0" class="graph" transform="scale(1 1) rotate(0) translate(4 260)">
<title>hFramework::ServoController_hExt</title>
<polygon fill="white" stroke="none" points="-4,4 -4,-260 184,-260 184,4 -4,4"/>
<!-- Node1 -->
<g id="node1" class="node"><title>Node1</title>
<polygon fill="#bfbfbf" stroke="black" points="-0.5,-0.5 -0.5,-19.5 180.5,-19.5 180.5,-0.5 -0.5,-0.5"/>
<text text-anchor="middle" x="90" y="-7.5" font-family="Helvetica,sans-Serif" font-size="10.00">hFramework::ServoController_hExt</text>
</g>
<!-- Node2 -->
<g id="node2" class="node"><title>Node2</title>
<g id="a_node2"><a xlink:href="classh_framework_1_1h_servo__h_ext.html" target="_top" xlink:title="Provides interface to servo located on hExt Servo controller board. ">
<polygon fill="white" stroke="black" points="20,-178.5 20,-197.5 160,-197.5 160,-178.5 20,-178.5"/>
<text text-anchor="middle" x="90" y="-185.5" font-family="Helvetica,sans-Serif" font-size="10.00">hFramework::hServo_hExt</text>
</a>
</g>
</g>
<!-- Node2&#45;&gt;Node1 -->
<g id="edge1" class="edge"><title>Node2&#45;&gt;Node1</title>
<path fill="none" stroke="#9a32cd" stroke-dasharray="5,2" d="M90,-167.842C90,-129.973 90,-46.8574 90,-19.7429"/>
<polygon fill="#9a32cd" stroke="#9a32cd" points="86.5001,-168.03 90,-178.03 93.5001,-168.03 86.5001,-168.03"/>
<text text-anchor="middle" x="99" y="-151.5" font-family="Helvetica,sans-Serif" font-size="10.00"> s1</text>
<text text-anchor="middle" x="99" y="-140.5" font-family="Helvetica,sans-Serif" font-size="10.00">s2</text>
<text text-anchor="middle" x="99" y="-129.5" font-family="Helvetica,sans-Serif" font-size="10.00">s3</text>
<text text-anchor="middle" x="99" y="-118.5" font-family="Helvetica,sans-Serif" font-size="10.00">s4</text>
<text text-anchor="middle" x="99" y="-107.5" font-family="Helvetica,sans-Serif" font-size="10.00">s5</text>
<text text-anchor="middle" x="99" y="-96.5" font-family="Helvetica,sans-Serif" font-size="10.00">s6</text>
<text text-anchor="middle" x="99" y="-85.5" font-family="Helvetica,sans-Serif" font-size="10.00">s7</text>
<text text-anchor="middle" x="99" y="-74.5" font-family="Helvetica,sans-Serif" font-size="10.00">s8</text>
<text text-anchor="middle" x="99" y="-63.5" font-family="Helvetica,sans-Serif" font-size="10.00">s9</text>
<text text-anchor="middle" x="99" y="-52.5" font-family="Helvetica,sans-Serif" font-size="10.00">s10</text>
<text text-anchor="middle" x="99" y="-41.5" font-family="Helvetica,sans-Serif" font-size="10.00">...</text>
</g>
<!-- Node3 -->
<g id="node3" class="node"><title>Node3</title>
<g id="a_node3"><a xlink:href="classh_framework_1_1_i_servo.html" target="_top" xlink:title="Provides interface to servo. ">
<polygon fill="white" stroke="black" points="35,-236.5 35,-255.5 145,-255.5 145,-236.5 35,-236.5"/>
<text text-anchor="middle" x="90" y="-243.5" font-family="Helvetica,sans-Serif" font-size="10.00">hFramework::IServo</text>
</a>
</g>
</g>
<!-- Node3&#45;&gt;Node2 -->
<g id="edge2" class="edge"><title>Node3&#45;&gt;Node2</title>
<path fill="none" stroke="midnightblue" d="M90,-225.953C90,-216.287 90,-205.031 90,-197.505"/>
<polygon fill="midnightblue" stroke="midnightblue" points="86.5001,-226.25 90,-236.25 93.5001,-226.25 86.5001,-226.25"/>
</g>
</g>
</svg>
