<?xml version="1.0" encoding="UTF-8" standalone="no"?>
<!DOCTYPE svg PUBLIC "-//W3C//DTD SVG 1.1//EN"
 "http://www.w3.org/Graphics/SVG/1.1/DTD/svg11.dtd">
<!-- Generated by graphviz version 2.36.0 (20140111.2315)
 -->
<!-- Title: hPIDRegulator Pages: 1 -->
<svg width="259pt" height="84pt"
 viewBox="0.00 0.00 259.00 84.00" xmlns="http://www.w3.org/2000/svg" xmlns:xlink="http://www.w3.org/1999/xlink">
<g id="graph0" class="graph" transform="scale(1 1) rotate(0) translate(4 80)">
<title>hPIDRegulator</title>
<polygon fill="white" stroke="none" points="-4,4 -4,-80 255,-80 255,4 -4,4"/>
<!-- Node1 -->
<g id="node1" class="node"><title>Node1</title>
<polygon fill="#bfbfbf" stroke="black" points="90.5,-0.5 90.5,-19.5 173.5,-19.5 173.5,-0.5 90.5,-0.5"/>
<text text-anchor="middle" x="132" y="-7.5" font-family="Helvetica,sans-Serif" font-size="10.00">hPIDRegulator</text>
</g>
<!-- Node2 -->
<g id="node2" class="node"><title>Node2</title>
<g id="a_node2"><a xlink:href="classh_framework_1_1h_regulator.html" target="_top" xlink:title="Virtual regulator class that provides interface for different types of motor regulators (see hMotor)...">
<polygon fill="white" stroke="black" points="-0.5,-56.5 -0.5,-75.5 130.5,-75.5 130.5,-56.5 -0.5,-56.5"/>
<text text-anchor="middle" x="65" y="-63.5" font-family="Helvetica,sans-Serif" font-size="10.00">hFramework::hRegulator</text>
</a>
</g>
</g>
<!-- Node2&#45;&gt;Node1 -->
<g id="edge1" class="edge"><title>Node2&#45;&gt;Node1</title>
<path fill="none" stroke="midnightblue" d="M83.8348,-49.8197C95.8384,-40.1452 110.972,-27.9481 121.039,-19.8339"/>
<polygon fill="midnightblue" stroke="midnightblue" points="81.3543,-47.3236 75.7647,-56.324 85.747,-52.7738 81.3543,-47.3236"/>
</g>
<!-- Node3 -->
<g id="node3" class="node"><title>Node3</title>
<g id="a_node3"><a xlink:href="classh_framework_1_1h_p_i_d.html" target="_top" xlink:title="hFramework::hPID">
<polygon fill="white" stroke="black" points="149,-56.5 149,-75.5 251,-75.5 251,-56.5 149,-56.5"/>
<text text-anchor="middle" x="200" y="-63.5" font-family="Helvetica,sans-Serif" font-size="10.00">hFramework::hPID</text>
</a>
</g>
</g>
<!-- Node3&#45;&gt;Node1 -->
<g id="edge2" class="edge"><title>Node3&#45;&gt;Node1</title>
<path fill="none" stroke="midnightblue" d="M181.238,-50.1008C169,-40.3824 153.441,-28.0269 143.124,-19.8339"/>
<polygon fill="midnightblue" stroke="midnightblue" points="179.067,-52.846 189.075,-56.324 183.42,-47.3642 179.067,-52.846"/>
</g>
</g>
</svg>
