<?xml version="1.0" encoding="UTF-8" standalone="no"?>
<!DOCTYPE svg PUBLIC "-//W3C//DTD SVG 1.1//EN"
 "http://www.w3.org/Graphics/SVG/1.1/DTD/svg11.dtd">
<!-- Generated by graphviz version 2.36.0 (20140111.2315)
 -->
<!-- Title: hFramework::interfaces::IGPIO_super Pages: 1 -->
<svg width="282pt" height="232pt"
 viewBox="0.00 0.00 282.00 232.00" xmlns="http://www.w3.org/2000/svg" xmlns:xlink="http://www.w3.org/1999/xlink">
<g id="graph0" class="graph" transform="scale(1 1) rotate(0) translate(4 228)">
<title>hFramework::interfaces::IGPIO_super</title>
<polygon fill="white" stroke="none" points="-4,4 -4,-228 278,-228 278,4 -4,4"/>
<!-- Node1 -->
<g id="node1" class="node"><title>Node1</title>
<polygon fill="#bfbfbf" stroke="black" points="73,-57 73,-87 201,-87 201,-57 73,-57"/>
<text text-anchor="start" x="81" y="-75" font-family="Helvetica,sans-Serif" font-size="10.00">hFramework::interfaces</text>
<text text-anchor="middle" x="137" y="-64" font-family="Helvetica,sans-Serif" font-size="10.00">::IGPIO_super</text>
</g>
<!-- Node5 -->
<g id="node5" class="node"><title>Node5</title>
<g id="a_node5"><a xlink:href="classh_framework_1_1h_g_p_i_o__super.html" target="_top" xlink:title="Implementation of on&#45;board General Purpose Input&#45;Output pin (GPIO) with interrupt and ADC capability...">
<polygon fill="white" stroke="black" points="66,-0.5 66,-19.5 208,-19.5 208,-0.5 66,-0.5"/>
<text text-anchor="middle" x="137" y="-7.5" font-family="Helvetica,sans-Serif" font-size="10.00">hFramework::hGPIO_super</text>
</a>
</g>
</g>
<!-- Node1&#45;&gt;Node5 -->
<g id="edge5" class="edge"><title>Node1&#45;&gt;Node5</title>
<path fill="none" stroke="midnightblue" d="M137,-46.5858C137,-37.0743 137,-26.7864 137,-19.7305"/>
<polygon fill="midnightblue" stroke="midnightblue" points="133.5,-46.7808 137,-56.7808 140.5,-46.7809 133.5,-46.7808"/>
</g>
<!-- Node2 -->
<g id="node2" class="node"><title>Node2</title>
<g id="a_node2"><a xlink:href="classh_framework_1_1interfaces_1_1_i_g_p_i_o__int.html" target="_top" xlink:title="Interface for General Purpose Input&#45;Output pin (GPIO) with interrupt capability. ">
<polygon fill="white" stroke="black" points="0,-125 0,-155 128,-155 128,-125 0,-125"/>
<text text-anchor="start" x="8" y="-143" font-family="Helvetica,sans-Serif" font-size="10.00">hFramework::interfaces</text>
<text text-anchor="middle" x="64" y="-132" font-family="Helvetica,sans-Serif" font-size="10.00">::IGPIO_int</text>
</a>
</g>
</g>
<!-- Node2&#45;&gt;Node1 -->
<g id="edge1" class="edge"><title>Node2&#45;&gt;Node1</title>
<path fill="none" stroke="midnightblue" d="M87.5298,-117.727C98.6341,-107.687 111.579,-95.9831 121.442,-87.0663"/>
<polygon fill="midnightblue" stroke="midnightblue" points="84.9104,-115.376 79.8399,-124.679 89.605,-120.569 84.9104,-115.376"/>
</g>
<!-- Node3 -->
<g id="node3" class="node"><title>Node3</title>
<g id="a_node3"><a xlink:href="classh_framework_1_1interfaces_1_1_i_g_p_i_o.html" target="_top" xlink:title="Interface for General Purpose Input&#45;Output pin (GPIO). ">
<polygon fill="white" stroke="black" points="73,-193 73,-223 201,-223 201,-193 73,-193"/>
<text text-anchor="start" x="81" y="-211" font-family="Helvetica,sans-Serif" font-size="10.00">hFramework::interfaces</text>
<text text-anchor="middle" x="137" y="-200" font-family="Helvetica,sans-Serif" font-size="10.00">::IGPIO</text>
</a>
</g>
</g>
<!-- Node3&#45;&gt;Node2 -->
<g id="edge2" class="edge"><title>Node3&#45;&gt;Node2</title>
<path fill="none" stroke="midnightblue" d="M113.47,-185.727C102.366,-175.687 89.4206,-163.983 79.5582,-155.066"/>
<polygon fill="midnightblue" stroke="midnightblue" points="111.395,-188.569 121.16,-192.679 116.09,-183.376 111.395,-188.569"/>
</g>
<!-- Node4 -->
<g id="node4" class="node"><title>Node4</title>
<g id="a_node4"><a xlink:href="classh_framework_1_1interfaces_1_1_i_g_p_i_o__adc.html" target="_top" xlink:title="Interface for General Purpose Input&#45;Output pin (GPIO) with ADC capability. ">
<polygon fill="white" stroke="black" points="146,-125 146,-155 274,-155 274,-125 146,-125"/>
<text text-anchor="start" x="154" y="-143" font-family="Helvetica,sans-Serif" font-size="10.00">hFramework::interfaces</text>
<text text-anchor="middle" x="210" y="-132" font-family="Helvetica,sans-Serif" font-size="10.00">::IGPIO_adc</text>
</a>
</g>
</g>
<!-- Node3&#45;&gt;Node4 -->
<g id="edge4" class="edge"><title>Node3&#45;&gt;Node4</title>
<path fill="none" stroke="midnightblue" d="M160.53,-185.727C171.634,-175.687 184.579,-163.983 194.442,-155.066"/>
<polygon fill="midnightblue" stroke="midnightblue" points="157.91,-183.376 152.84,-192.679 162.605,-188.569 157.91,-183.376"/>
</g>
<!-- Node4&#45;&gt;Node1 -->
<g id="edge3" class="edge"><title>Node4&#45;&gt;Node1</title>
<path fill="none" stroke="midnightblue" d="M186.47,-117.727C175.366,-107.687 162.421,-95.9831 152.558,-87.0663"/>
<polygon fill="midnightblue" stroke="midnightblue" points="184.395,-120.569 194.16,-124.679 189.09,-115.376 184.395,-120.569"/>
</g>
</g>
</svg>
