<?xml version="1.0" encoding="UTF-8" standalone="no"?>
<!DOCTYPE svg PUBLIC "-//W3C//DTD SVG 1.1//EN"
 "http://www.w3.org/Graphics/SVG/1.1/DTD/svg11.dtd">
<!-- Generated by graphviz version 2.36.0 (20140111.2315)
 -->
<!-- Title: hFramework::hMutex Pages: 1 -->
<svg width="329pt" height="84pt"
 viewBox="0.00 0.00 329.00 84.00" xmlns="http://www.w3.org/2000/svg" xmlns:xlink="http://www.w3.org/1999/xlink">
<g id="graph0" class="graph" transform="scale(1 1) rotate(0) translate(4 80)">
<title>hFramework::hMutex</title>
<polygon fill="white" stroke="none" points="-4,4 -4,-80 325,-80 325,4 -4,4"/>
<!-- Node1 -->
<g id="node1" class="node"><title>Node1</title>
<polygon fill="#bfbfbf" stroke="black" points="107,-56.5 107,-75.5 223,-75.5 223,-56.5 107,-56.5"/>
<text text-anchor="middle" x="165" y="-63.5" font-family="Helvetica,sans-Serif" font-size="10.00">hFramework::hMutex</text>
</g>
<!-- Node2 -->
<g id="node2" class="node"><title>Node2</title>
<g id="a_node2"><a xlink:href="classh_framework_1_1h_recursive_mutex.html" target="_top" xlink:title="Recursive mutex class. ">
<polygon fill="white" stroke="black" points="-0.5,-0.5 -0.5,-19.5 160.5,-19.5 160.5,-0.5 -0.5,-0.5"/>
<text text-anchor="middle" x="80" y="-7.5" font-family="Helvetica,sans-Serif" font-size="10.00">hFramework::hRecursiveMutex</text>
</a>
</g>
</g>
<!-- Node1&#45;&gt;Node2 -->
<g id="edge1" class="edge"><title>Node1&#45;&gt;Node2</title>
<path fill="none" stroke="midnightblue" d="M142.806,-50.9005C127.22,-40.9986 106.87,-28.0705 93.6228,-19.6545"/>
<polygon fill="midnightblue" stroke="midnightblue" points="141.026,-53.9158 151.343,-56.324 144.779,-48.0073 141.026,-53.9158"/>
</g>
<!-- Node3 -->
<g id="node3" class="node"><title>Node3</title>
<g id="a_node3"><a xlink:href="classh_framework_1_1h_semaphore.html" target="_top" xlink:title="Semaphore class. ">
<polygon fill="white" stroke="black" points="178.5,-0.5 178.5,-19.5 321.5,-19.5 321.5,-0.5 178.5,-0.5"/>
<text text-anchor="middle" x="250" y="-7.5" font-family="Helvetica,sans-Serif" font-size="10.00">hFramework::hSemaphore</text>
</a>
</g>
</g>
<!-- Node1&#45;&gt;Node3 -->
<g id="edge2" class="edge"><title>Node1&#45;&gt;Node3</title>
<path fill="none" stroke="midnightblue" d="M187.194,-50.9005C202.78,-40.9986 223.13,-28.0705 236.377,-19.6545"/>
<polygon fill="midnightblue" stroke="midnightblue" points="185.221,-48.0073 178.657,-56.324 188.974,-53.9158 185.221,-48.0073"/>
</g>
</g>
</svg>
