<?xml version="1.0" encoding="UTF-8" standalone="no"?>
<!DOCTYPE svg PUBLIC "-//W3C//DTD SVG 1.1//EN"
 "http://www.w3.org/Graphics/SVG/1.1/DTD/svg11.dtd">
<!-- Generated by graphviz version 2.36.0 (20140111.2315)
 -->
<!-- Title: hFramework::hGPIO Pages: 1 -->
<svg width="285pt" height="208pt"
 viewBox="0.00 0.00 285.00 208.00" xmlns="http://www.w3.org/2000/svg" xmlns:xlink="http://www.w3.org/1999/xlink">
<g id="graph0" class="graph" transform="scale(1 1) rotate(0) translate(4 204)">
<title>hFramework::hGPIO</title>
<polygon fill="white" stroke="none" points="-4,4 -4,-204 281,-204 281,4 -4,4"/>
<!-- Node1 -->
<g id="node1" class="node"><title>Node1</title>
<polygon fill="#bfbfbf" stroke="black" points="85,-112.5 85,-131.5 195,-131.5 195,-112.5 85,-112.5"/>
<text text-anchor="middle" x="140" y="-119.5" font-family="Helvetica,sans-Serif" font-size="10.00">hFramework::hGPIO</text>
</g>
<!-- Node3 -->
<g id="node3" class="node"><title>Node3</title>
<g id="a_node3"><a xlink:href="classh_framework_1_1h_g_p_i_o__adc.html" target="_top" xlink:title="Implementation of on&#45;board General Purpose Input&#45;Output pin (GPIO) with ADC capability. ">
<polygon fill="white" stroke="black" points="0,-56.5 0,-75.5 132,-75.5 132,-56.5 0,-56.5"/>
<text text-anchor="middle" x="66" y="-63.5" font-family="Helvetica,sans-Serif" font-size="10.00">hFramework::hGPIO_adc</text>
</a>
</g>
</g>
<!-- Node1&#45;&gt;Node3 -->
<g id="edge2" class="edge"><title>Node1&#45;&gt;Node3</title>
<path fill="none" stroke="midnightblue" d="M119.966,-106.38C106.591,-96.6204 89.4412,-84.1057 78.1057,-75.8339"/>
<polygon fill="midnightblue" stroke="midnightblue" points="117.97,-109.257 128.111,-112.324 122.096,-103.602 117.97,-109.257"/>
</g>
<!-- Node5 -->
<g id="node5" class="node"><title>Node5</title>
<g id="a_node5"><a xlink:href="classh_framework_1_1h_g_p_i_o__int.html" target="_top" xlink:title="Implementation of on&#45;board General Purpose Input&#45;Output pin (GPIO) with interrupt capability...">
<polygon fill="white" stroke="black" points="150.5,-56.5 150.5,-75.5 277.5,-75.5 277.5,-56.5 150.5,-56.5"/>
<text text-anchor="middle" x="214" y="-63.5" font-family="Helvetica,sans-Serif" font-size="10.00">hFramework::hGPIO_int</text>
</a>
</g>
</g>
<!-- Node1&#45;&gt;Node5 -->
<g id="edge4" class="edge"><title>Node1&#45;&gt;Node5</title>
<path fill="none" stroke="midnightblue" d="M160.034,-106.38C173.409,-96.6204 190.559,-84.1057 201.894,-75.8339"/>
<polygon fill="midnightblue" stroke="midnightblue" points="157.904,-103.602 151.889,-112.324 162.03,-109.257 157.904,-103.602"/>
</g>
<!-- Node2 -->
<g id="node2" class="node"><title>Node2</title>
<g id="a_node2"><a xlink:href="classh_framework_1_1interfaces_1_1_i_g_p_i_o.html" target="_top" xlink:title="Interface for General Purpose Input&#45;Output pin (GPIO). ">
<polygon fill="white" stroke="black" points="76,-169 76,-199 204,-199 204,-169 76,-169"/>
<text text-anchor="start" x="84" y="-187" font-family="Helvetica,sans-Serif" font-size="10.00">hFramework::interfaces</text>
<text text-anchor="middle" x="140" y="-176" font-family="Helvetica,sans-Serif" font-size="10.00">::IGPIO</text>
</a>
</g>
</g>
<!-- Node2&#45;&gt;Node1 -->
<g id="edge1" class="edge"><title>Node2&#45;&gt;Node1</title>
<path fill="none" stroke="midnightblue" d="M140,-158.586C140,-149.074 140,-138.786 140,-131.731"/>
<polygon fill="midnightblue" stroke="midnightblue" points="136.5,-158.781 140,-168.781 143.5,-158.781 136.5,-158.781"/>
</g>
<!-- Node4 -->
<g id="node4" class="node"><title>Node4</title>
<g id="a_node4"><a xlink:href="classh_framework_1_1h_g_p_i_o__super.html" target="_top" xlink:title="Implementation of on&#45;board General Purpose Input&#45;Output pin (GPIO) with interrupt and ADC capability...">
<polygon fill="white" stroke="black" points="69,-0.5 69,-19.5 211,-19.5 211,-0.5 69,-0.5"/>
<text text-anchor="middle" x="140" y="-7.5" font-family="Helvetica,sans-Serif" font-size="10.00">hFramework::hGPIO_super</text>
</a>
</g>
</g>
<!-- Node3&#45;&gt;Node4 -->
<g id="edge3" class="edge"><title>Node3&#45;&gt;Node4</title>
<path fill="none" stroke="midnightblue" d="M86.0343,-50.3804C99.4091,-40.6204 116.559,-28.1057 127.894,-19.8339"/>
<polygon fill="midnightblue" stroke="midnightblue" points="83.9042,-47.602 77.8894,-56.324 88.0305,-53.2565 83.9042,-47.602"/>
</g>
<!-- Node5&#45;&gt;Node4 -->
<g id="edge5" class="edge"><title>Node5&#45;&gt;Node4</title>
<path fill="none" stroke="midnightblue" d="M193.966,-50.3804C180.591,-40.6204 163.441,-28.1057 152.106,-19.8339"/>
<polygon fill="midnightblue" stroke="midnightblue" points="191.97,-53.2565 202.111,-56.324 196.096,-47.602 191.97,-53.2565"/>
</g>
</g>
</svg>
