<?xml version="1.0" encoding="UTF-8" standalone="no"?>
<!DOCTYPE svg PUBLIC "-//W3C//DTD SVG 1.1//EN"
 "http://www.w3.org/Graphics/SVG/1.1/DTD/svg11.dtd">
<!-- Generated by graphviz version 2.36.0 (20140111.2315)
 -->
<!-- Title: hFramework::interfaces::ISensor_i2c Pages: 1 -->
<svg width="285pt" height="176pt"
 viewBox="0.00 0.00 285.00 176.00" xmlns="http://www.w3.org/2000/svg" xmlns:xlink="http://www.w3.org/1999/xlink">
<g id="graph0" class="graph" transform="scale(1 1) rotate(0) translate(4 172)">
<title>hFramework::interfaces::ISensor_i2c</title>
<polygon fill="white" stroke="none" points="-4,4 -4,-172 281,-172 281,4 -4,4"/>
<!-- Node1 -->
<g id="node1" class="node"><title>Node1</title>
<polygon fill="#bfbfbf" stroke="black" points="79,-69 79,-99 207,-99 207,-69 79,-69"/>
<text text-anchor="start" x="87" y="-87" font-family="Helvetica,sans-Serif" font-size="10.00">hFramework::interfaces</text>
<text text-anchor="middle" x="143" y="-76" font-family="Helvetica,sans-Serif" font-size="10.00">::ISensor_i2c</text>
</g>
<!-- Node3 -->
<g id="node3" class="node"><title>Node3</title>
<g id="a_node3"><a xlink:href="classh_framework_1_1h_sensor__i2c.html" target="_top" xlink:title="Implementation of on&#45;board I2C capable hSensor port. ">
<polygon fill="white" stroke="black" points="-0.5,-6.5 -0.5,-25.5 138.5,-25.5 138.5,-6.5 -0.5,-6.5"/>
<text text-anchor="middle" x="69" y="-13.5" font-family="Helvetica,sans-Serif" font-size="10.00">hFramework::hSensor_i2c</text>
</a>
</g>
</g>
<!-- Node1&#45;&gt;Node3 -->
<g id="edge2" class="edge"><title>Node1&#45;&gt;Node3</title>
<path fill="none" stroke="midnightblue" d="M119.288,-61.8517C105.625,-49.6656 89.1738,-34.9929 78.8984,-25.8283"/>
<polygon fill="midnightblue" stroke="midnightblue" points="117.15,-64.6348 126.943,-68.679 121.81,-59.4108 117.15,-64.6348"/>
</g>
<!-- Node4 -->
<g id="node4" class="node"><title>Node4</title>
<g id="a_node4"><a xlink:href="classh_framework_1_1h_sensor__softi2c.html" target="_top" xlink:title="Proxy object for accessing software I2C on any hSensor port. ">
<polygon fill="white" stroke="black" points="157,-1 157,-31 277,-31 277,-1 157,-1"/>
<text text-anchor="start" x="165" y="-19" font-family="Helvetica,sans-Serif" font-size="10.00">hFramework::hSensor</text>
<text text-anchor="middle" x="217" y="-8" font-family="Helvetica,sans-Serif" font-size="10.00">_softi2c</text>
</a>
</g>
</g>
<!-- Node1&#45;&gt;Node4 -->
<g id="edge3" class="edge"><title>Node1&#45;&gt;Node4</title>
<path fill="none" stroke="midnightblue" d="M166.525,-62.0184C177.853,-51.9145 191.134,-40.0696 201.229,-31.0663"/>
<polygon fill="midnightblue" stroke="midnightblue" points="164.19,-59.4108 159.057,-68.679 168.85,-64.6348 164.19,-59.4108"/>
</g>
<!-- Node2 -->
<g id="node2" class="node"><title>Node2</title>
<g id="a_node2"><a xlink:href="classh_framework_1_1interfaces_1_1_i_sensor.html" target="_top" xlink:title="Interface to hSensor port. ">
<polygon fill="white" stroke="black" points="79,-137 79,-167 207,-167 207,-137 79,-137"/>
<text text-anchor="start" x="87" y="-155" font-family="Helvetica,sans-Serif" font-size="10.00">hFramework::interfaces</text>
<text text-anchor="middle" x="143" y="-144" font-family="Helvetica,sans-Serif" font-size="10.00">::ISensor</text>
</a>
</g>
</g>
<!-- Node2&#45;&gt;Node1 -->
<g id="edge1" class="edge"><title>Node2&#45;&gt;Node1</title>
<path fill="none" stroke="midnightblue" d="M143,-126.532C143,-117.361 143,-107.245 143,-99.2931"/>
<polygon fill="midnightblue" stroke="midnightblue" points="139.5,-126.679 143,-136.679 146.5,-126.679 139.5,-126.679"/>
</g>
</g>
</svg>
