<?xml version="1.0" encoding="UTF-8" standalone="no"?>
<!DOCTYPE svg PUBLIC "-//W3C//DTD SVG 1.1//EN"
 "http://www.w3.org/Graphics/SVG/1.1/DTD/svg11.dtd">
<!-- Generated by graphviz version 2.36.0 (20140111.2315)
 -->
<!-- Title: hFramework::hSerial Pages: 1 -->
<svg width="362pt" height="256pt"
 viewBox="0.00 0.00 362.00 256.00" xmlns="http://www.w3.org/2000/svg" xmlns:xlink="http://www.w3.org/1999/xlink">
<g id="graph0" class="graph" transform="scale(1 1) rotate(0) translate(4 252)">
<title>hFramework::hSerial</title>
<polygon fill="white" stroke="none" points="-4,4 -4,-252 358,-252 358,4 -4,4"/>
<!-- Node1 -->
<g id="node1" class="node"><title>Node1</title>
<polygon fill="#bfbfbf" stroke="black" points="174.5,-0.5 174.5,-19.5 287.5,-19.5 287.5,-0.5 174.5,-0.5"/>
<text text-anchor="middle" x="231" y="-7.5" font-family="Helvetica,sans-Serif" font-size="10.00">hFramework::hSerial</text>
</g>
<!-- Node2 -->
<g id="node2" class="node"><title>Node2</title>
<g id="a_node2"><a xlink:href="classh_framework_1_1interfaces_1_1_i_serial.html" target="_top" xlink:title="Interface to the serial port. This is a restricted version of hSerial. ">
<polygon fill="white" stroke="black" points="83,-79 83,-109 211,-109 211,-79 83,-79"/>
<text text-anchor="start" x="91" y="-97" font-family="Helvetica,sans-Serif" font-size="10.00">hFramework::interfaces</text>
<text text-anchor="middle" x="147" y="-86" font-family="Helvetica,sans-Serif" font-size="10.00">::ISerial</text>
</a>
</g>
</g>
<!-- Node2&#45;&gt;Node1 -->
<g id="edge1" class="edge"><title>Node2&#45;&gt;Node1</title>
<path fill="none" stroke="midnightblue" d="M169.132,-71.3948C186.487,-54.4527 209.724,-31.7695 222.199,-19.5915"/>
<polygon fill="midnightblue" stroke="midnightblue" points="166.343,-69.2268 161.632,-78.7167 171.232,-74.2358 166.343,-69.2268"/>
</g>
<!-- Node3 -->
<g id="node3" class="node"><title>Node3</title>
<g id="a_node3"><a xlink:href="classh_framework_1_1h_printf_dev.html" target="_top" xlink:title="Provides printf and vprintf methods as extension to hStreamDev. ">
<polygon fill="white" stroke="black" points="78,-154.5 78,-173.5 208,-173.5 208,-154.5 78,-154.5"/>
<text text-anchor="middle" x="143" y="-161.5" font-family="Helvetica,sans-Serif" font-size="10.00">hFramework::hPrintfDev</text>
</a>
</g>
</g>
<!-- Node3&#45;&gt;Node2 -->
<g id="edge2" class="edge"><title>Node3&#45;&gt;Node2</title>
<path fill="none" stroke="midnightblue" d="M144.111,-144.107C144.761,-133.063 145.568,-119.349 146.163,-109.223"/>
<polygon fill="midnightblue" stroke="midnightblue" points="140.6,-144.199 143.507,-154.388 147.588,-144.611 140.6,-144.199"/>
</g>
<!-- Node4 -->
<g id="node4" class="node"><title>Node4</title>
<g id="a_node4"><a xlink:href="classh_framework_1_1h_stream_dev.html" target="_top" xlink:title="Stream device interface. ">
<polygon fill="white" stroke="black" points="-0.5,-228.5 -0.5,-247.5 140.5,-247.5 140.5,-228.5 -0.5,-228.5"/>
<text text-anchor="middle" x="70" y="-235.5" font-family="Helvetica,sans-Serif" font-size="10.00">hFramework::hStreamDev</text>
</a>
</g>
</g>
<!-- Node4&#45;&gt;Node3 -->
<g id="edge3" class="edge"><title>Node4&#45;&gt;Node3</title>
<path fill="none" stroke="midnightblue" d="M86.1354,-221.086C101.004,-206.421 122.502,-185.217 134.351,-173.531"/>
<polygon fill="midnightblue" stroke="midnightblue" points="83.3227,-218.944 78.6607,-228.458 88.2382,-223.928 83.3227,-218.944"/>
</g>
<!-- Node5 -->
<g id="node5" class="node"><title>Node5</title>
<g id="a_node5"><a xlink:href="classh_framework_1_1h_mutex.html" target="_top" xlink:title="Mutex class. ">
<polygon fill="white" stroke="black" points="159,-228.5 159,-247.5 275,-247.5 275,-228.5 159,-228.5"/>
<text text-anchor="middle" x="217" y="-235.5" font-family="Helvetica,sans-Serif" font-size="10.00">hFramework::hMutex</text>
</a>
</g>
</g>
<!-- Node5&#45;&gt;Node3 -->
<g id="edge4" class="edge"><title>Node5&#45;&gt;Node3</title>
<path fill="none" stroke="#9a32cd" stroke-dasharray="5,2" d="M200.644,-221.086C185.572,-206.421 163.778,-185.217 151.768,-173.531"/>
<polygon fill="#9a32cd" stroke="#9a32cd" points="198.613,-223.993 208.221,-228.458 203.494,-218.976 198.613,-223.993"/>
<text text-anchor="middle" x="218" y="-201.5" font-family="Helvetica,sans-Serif" font-size="10.00"> printfMutex</text>
</g>
<!-- Node6 -->
<g id="node6" class="node"><title>Node6</title>
<g id="a_node6"><a xlink:href="classh_framework_1_1h_g_p_i_o.html" target="_top" xlink:title="Implementation of on&#45;board General Purpose Input&#45;Output pin (GPIO). ">
<polygon fill="white" stroke="black" points="234,-84.5 234,-103.5 344,-103.5 344,-84.5 234,-84.5"/>
<text text-anchor="middle" x="289" y="-91.5" font-family="Helvetica,sans-Serif" font-size="10.00">hFramework::hGPIO</text>
</a>
</g>
</g>
<!-- Node6&#45;&gt;Node1 -->
<g id="edge5" class="edge"><title>Node6&#45;&gt;Node1</title>
<path fill="none" stroke="#9a32cd" stroke-dasharray="5,2" d="M276.762,-75.6974C264.635,-58.5529 246.554,-32.9902 237.162,-19.7123"/>
<polygon fill="#9a32cd" stroke="#9a32cd" points="274.161,-78.0815 282.793,-84.2246 279.876,-74.0392 274.161,-78.0815"/>
<text text-anchor="middle" x="280" y="-52" font-family="Helvetica,sans-Serif" font-size="10.00"> pinTx</text>
<text text-anchor="middle" x="280" y="-41" font-family="Helvetica,sans-Serif" font-size="10.00">pinRx</text>
</g>
<!-- Node7 -->
<g id="node7" class="node"><title>Node7</title>
<g id="a_node7"><a xlink:href="classh_framework_1_1interfaces_1_1_i_g_p_i_o.html" target="_top" xlink:title="Interface for General Purpose Input&#45;Output pin (GPIO). ">
<polygon fill="white" stroke="black" points="226,-149 226,-179 354,-179 354,-149 226,-149"/>
<text text-anchor="start" x="234" y="-167" font-family="Helvetica,sans-Serif" font-size="10.00">hFramework::interfaces</text>
<text text-anchor="middle" x="290" y="-156" font-family="Helvetica,sans-Serif" font-size="10.00">::IGPIO</text>
</a>
</g>
</g>
<!-- Node7&#45;&gt;Node6 -->
<g id="edge6" class="edge"><title>Node7&#45;&gt;Node6</title>
<path fill="none" stroke="midnightblue" d="M289.645,-138.883C289.467,-126.733 289.261,-112.739 289.131,-103.883"/>
<polygon fill="midnightblue" stroke="midnightblue" points="286.146,-138.963 289.793,-148.91 293.145,-138.86 286.146,-138.963"/>
</g>
</g>
</svg>
