<?xml version="1.0" encoding="UTF-8" standalone="no"?>
<!DOCTYPE svg PUBLIC "-//W3C//DTD SVG 1.1//EN"
 "http://www.w3.org/Graphics/SVG/1.1/DTD/svg11.dtd">
<!-- Generated by graphviz version 2.36.0 (20140111.2315)
 -->
<!-- Title: hFramework::hSensor_adc Pages: 1 -->
<svg width="274pt" height="164pt"
 viewBox="0.00 0.00 274.00 164.00" xmlns="http://www.w3.org/2000/svg" xmlns:xlink="http://www.w3.org/1999/xlink">
<g id="graph0" class="graph" transform="scale(1 1) rotate(0) translate(4 160)">
<title>hFramework::hSensor_adc</title>
<polygon fill="white" stroke="none" points="-4,4 -4,-160 270,-160 270,4 -4,4"/>
<!-- Node1 -->
<g id="node1" class="node"><title>Node1</title>
<polygon fill="#bfbfbf" stroke="black" points="59.5,-0.5 59.5,-19.5 202.5,-19.5 202.5,-0.5 59.5,-0.5"/>
<text text-anchor="middle" x="131" y="-7.5" font-family="Helvetica,sans-Serif" font-size="10.00">hFramework::hSensor_adc</text>
</g>
<!-- Node2 -->
<g id="node2" class="node"><title>Node2</title>
<g id="a_node2"><a xlink:href="classh_framework_1_1h_sensor.html" target="_top" xlink:title="base implementation for on&#45;board hSensor port. ">
<polygon fill="white" stroke="black" points="0,-62.5 0,-81.5 120,-81.5 120,-62.5 0,-62.5"/>
<text text-anchor="middle" x="60" y="-69.5" font-family="Helvetica,sans-Serif" font-size="10.00">hFramework::hSensor</text>
</a>
</g>
</g>
<!-- Node2&#45;&gt;Node1 -->
<g id="edge1" class="edge"><title>Node2&#45;&gt;Node1</title>
<path fill="none" stroke="midnightblue" d="M77.9317,-55.8464C91.5114,-44.3706 109.677,-29.0195 120.846,-19.5806"/>
<polygon fill="midnightblue" stroke="midnightblue" points="75.5514,-53.2755 70.1726,-62.4035 80.0697,-58.6221 75.5514,-53.2755"/>
</g>
<!-- Node3 -->
<g id="node3" class="node"><title>Node3</title>
<g id="a_node3"><a xlink:href="classh_framework_1_1interfaces_1_1_i_sensor.html" target="_top" xlink:title="Interface to hSensor port. ">
<polygon fill="white" stroke="black" points="67,-125 67,-155 195,-155 195,-125 67,-125"/>
<text text-anchor="start" x="75" y="-143" font-family="Helvetica,sans-Serif" font-size="10.00">hFramework::interfaces</text>
<text text-anchor="middle" x="131" y="-132" font-family="Helvetica,sans-Serif" font-size="10.00">::ISensor</text>
</a>
</g>
</g>
<!-- Node3&#45;&gt;Node2 -->
<g id="edge2" class="edge"><title>Node3&#45;&gt;Node2</title>
<path fill="none" stroke="midnightblue" d="M108.25,-117.852C95.1403,-105.666 79.356,-90.9929 69.4971,-81.8283"/>
<polygon fill="midnightblue" stroke="midnightblue" points="105.887,-120.434 115.594,-124.679 110.653,-115.307 105.887,-120.434"/>
</g>
<!-- Node4 -->
<g id="node4" class="node"><title>Node4</title>
<g id="a_node4"><a xlink:href="classh_framework_1_1interfaces_1_1_i_sensor__adc.html" target="_top" xlink:title="Interface to hSensor port (with ADC on pin2). ">
<polygon fill="white" stroke="black" points="138,-57 138,-87 266,-87 266,-57 138,-57"/>
<text text-anchor="start" x="146" y="-75" font-family="Helvetica,sans-Serif" font-size="10.00">hFramework::interfaces</text>
<text text-anchor="middle" x="202" y="-64" font-family="Helvetica,sans-Serif" font-size="10.00">::ISensor_adc</text>
</a>
</g>
</g>
<!-- Node3&#45;&gt;Node4 -->
<g id="edge4" class="edge"><title>Node3&#45;&gt;Node4</title>
<path fill="none" stroke="midnightblue" d="M153.832,-117.776C164.552,-107.81 177.047,-96.1956 186.624,-87.2931"/>
<polygon fill="midnightblue" stroke="midnightblue" points="151.347,-115.307 146.406,-124.679 156.113,-120.434 151.347,-115.307"/>
</g>
<!-- Node4&#45;&gt;Node1 -->
<g id="edge3" class="edge"><title>Node4&#45;&gt;Node1</title>
<path fill="none" stroke="midnightblue" d="M177.411,-50.2202C165.06,-39.7831 150.758,-27.6968 141.331,-19.7305"/>
<polygon fill="midnightblue" stroke="midnightblue" points="175.277,-52.9995 185.174,-56.7808 179.795,-47.6529 175.277,-52.9995"/>
</g>
</g>
</svg>
