<?xml version="1.0" encoding="UTF-8" standalone="no"?>
<!DOCTYPE svg PUBLIC "-//W3C//DTD SVG 1.1//EN"
 "http://www.w3.org/Graphics/SVG/1.1/DTD/svg11.dtd">
<!-- Generated by graphviz version 2.36.0 (20140111.2315)
 -->
<!-- Title: hFramework::interfaces::IGPIO_super Pages: 1 -->
<svg width="282pt" height="176pt"
 viewBox="0.00 0.00 282.00 176.00" xmlns="http://www.w3.org/2000/svg" xmlns:xlink="http://www.w3.org/1999/xlink">
<g id="graph0" class="graph" transform="scale(1 1) rotate(0) translate(4 172)">
<title>hFramework::interfaces::IGPIO_super</title>
<polygon fill="white" stroke="none" points="-4,4 -4,-172 278,-172 278,4 -4,4"/>
<!-- Node1 -->
<g id="node1" class="node"><title>Node1</title>
<polygon fill="#bfbfbf" stroke="black" points="73,-1 73,-31 201,-31 201,-1 73,-1"/>
<text text-anchor="start" x="81" y="-19" font-family="Helvetica,sans-Serif" font-size="10.00">hFramework::interfaces</text>
<text text-anchor="middle" x="137" y="-8" font-family="Helvetica,sans-Serif" font-size="10.00">::IGPIO_super</text>
</g>
<!-- Node2 -->
<g id="node2" class="node"><title>Node2</title>
<g id="a_node2"><a xlink:href="classh_framework_1_1interfaces_1_1_i_g_p_i_o__int.html" target="_top" xlink:title="Interface for General Purpose Input&#45;Output pin (GPIO) with interrupt capability. ">
<polygon fill="white" stroke="black" points="0,-69 0,-99 128,-99 128,-69 0,-69"/>
<text text-anchor="start" x="8" y="-87" font-family="Helvetica,sans-Serif" font-size="10.00">hFramework::interfaces</text>
<text text-anchor="middle" x="64" y="-76" font-family="Helvetica,sans-Serif" font-size="10.00">::IGPIO_int</text>
</a>
</g>
</g>
<!-- Node2&#45;&gt;Node1 -->
<g id="edge1" class="edge"><title>Node2&#45;&gt;Node1</title>
<path fill="none" stroke="midnightblue" d="M87.5298,-61.7265C98.6341,-51.687 111.579,-39.9831 121.442,-31.0663"/>
<polygon fill="midnightblue" stroke="midnightblue" points="84.9104,-59.3763 79.8399,-68.679 89.605,-64.5687 84.9104,-59.3763"/>
</g>
<!-- Node3 -->
<g id="node3" class="node"><title>Node3</title>
<g id="a_node3"><a xlink:href="classh_framework_1_1interfaces_1_1_i_g_p_i_o.html" target="_top" xlink:title="Interface for General Purpose Input&#45;Output pin (GPIO). ">
<polygon fill="white" stroke="black" points="73,-137 73,-167 201,-167 201,-137 73,-137"/>
<text text-anchor="start" x="81" y="-155" font-family="Helvetica,sans-Serif" font-size="10.00">hFramework::interfaces</text>
<text text-anchor="middle" x="137" y="-144" font-family="Helvetica,sans-Serif" font-size="10.00">::IGPIO</text>
</a>
</g>
</g>
<!-- Node3&#45;&gt;Node2 -->
<g id="edge2" class="edge"><title>Node3&#45;&gt;Node2</title>
<path fill="none" stroke="midnightblue" d="M113.47,-129.727C102.366,-119.687 89.4206,-107.983 79.5582,-99.0663"/>
<polygon fill="midnightblue" stroke="midnightblue" points="111.395,-132.569 121.16,-136.679 116.09,-127.376 111.395,-132.569"/>
</g>
<!-- Node4 -->
<g id="node4" class="node"><title>Node4</title>
<g id="a_node4"><a xlink:href="classh_framework_1_1interfaces_1_1_i_g_p_i_o__adc.html" target="_top" xlink:title="Interface for General Purpose Input&#45;Output pin (GPIO) with ADC capability. ">
<polygon fill="white" stroke="black" points="146,-69 146,-99 274,-99 274,-69 146,-69"/>
<text text-anchor="start" x="154" y="-87" font-family="Helvetica,sans-Serif" font-size="10.00">hFramework::interfaces</text>
<text text-anchor="middle" x="210" y="-76" font-family="Helvetica,sans-Serif" font-size="10.00">::IGPIO_adc</text>
</a>
</g>
</g>
<!-- Node3&#45;&gt;Node4 -->
<g id="edge4" class="edge"><title>Node3&#45;&gt;Node4</title>
<path fill="none" stroke="midnightblue" d="M160.53,-129.727C171.634,-119.687 184.579,-107.983 194.442,-99.0663"/>
<polygon fill="midnightblue" stroke="midnightblue" points="157.91,-127.376 152.84,-136.679 162.605,-132.569 157.91,-127.376"/>
</g>
<!-- Node4&#45;&gt;Node1 -->
<g id="edge3" class="edge"><title>Node4&#45;&gt;Node1</title>
<path fill="none" stroke="midnightblue" d="M186.47,-61.7265C175.366,-51.687 162.421,-39.9831 152.558,-31.0663"/>
<polygon fill="midnightblue" stroke="midnightblue" points="184.395,-64.5687 194.16,-68.679 189.09,-59.3763 184.395,-64.5687"/>
</g>
</g>
</svg>
