<?xml version="1.0" encoding="UTF-8" standalone="no"?>
<!DOCTYPE svg PUBLIC "-//W3C//DTD SVG 1.1//EN"
 "http://www.w3.org/Graphics/SVG/1.1/DTD/svg11.dtd">
<!-- Generated by graphviz version 2.36.0 (20140111.2315)
 -->
<!-- Title: hFramework::hSensor_serial Pages: 1 -->
<svg width="274pt" height="176pt"
 viewBox="0.00 0.00 274.00 176.00" xmlns="http://www.w3.org/2000/svg" xmlns:xlink="http://www.w3.org/1999/xlink">
<g id="graph0" class="graph" transform="scale(1 1) rotate(0) translate(4 172)">
<title>hFramework::hSensor_serial</title>
<polygon fill="white" stroke="none" points="-4,4 -4,-172 270,-172 270,4 -4,4"/>
<!-- Node1 -->
<g id="node1" class="node"><title>Node1</title>
<polygon fill="#bfbfbf" stroke="black" points="71,-1 71,-31 191,-31 191,-1 71,-1"/>
<text text-anchor="start" x="79" y="-19" font-family="Helvetica,sans-Serif" font-size="10.00">hFramework::hSensor</text>
<text text-anchor="middle" x="131" y="-8" font-family="Helvetica,sans-Serif" font-size="10.00">_serial</text>
</g>
<!-- Node2 -->
<g id="node2" class="node"><title>Node2</title>
<g id="a_node2"><a xlink:href="classh_framework_1_1h_sensor.html" target="_top" xlink:title="base implementation for on&#45;board hSensor port. ">
<polygon fill="white" stroke="black" points="0,-74.5 0,-93.5 120,-93.5 120,-74.5 0,-74.5"/>
<text text-anchor="middle" x="60" y="-81.5" font-family="Helvetica,sans-Serif" font-size="10.00">hFramework::hSensor</text>
</a>
</g>
</g>
<!-- Node2&#45;&gt;Node1 -->
<g id="edge1" class="edge"><title>Node2&#45;&gt;Node1</title>
<path fill="none" stroke="midnightblue" d="M76.7426,-67.4365C88.5613,-56.4501 104.271,-41.8464 115.744,-31.1815"/>
<polygon fill="midnightblue" stroke="midnightblue" points="74.2233,-64.9997 69.282,-74.3717 78.9893,-70.1267 74.2233,-64.9997"/>
</g>
<!-- Node3 -->
<g id="node3" class="node"><title>Node3</title>
<g id="a_node3"><a xlink:href="classh_framework_1_1interfaces_1_1_i_sensor.html" target="_top" xlink:title="Interface to hSensor port. ">
<polygon fill="white" stroke="black" points="67,-137 67,-167 195,-167 195,-137 67,-137"/>
<text text-anchor="start" x="75" y="-155" font-family="Helvetica,sans-Serif" font-size="10.00">hFramework::interfaces</text>
<text text-anchor="middle" x="131" y="-144" font-family="Helvetica,sans-Serif" font-size="10.00">::ISensor</text>
</a>
</g>
</g>
<!-- Node3&#45;&gt;Node2 -->
<g id="edge2" class="edge"><title>Node3&#45;&gt;Node2</title>
<path fill="none" stroke="midnightblue" d="M108.25,-129.852C95.1403,-117.666 79.356,-102.993 69.4971,-93.8283"/>
<polygon fill="midnightblue" stroke="midnightblue" points="105.887,-132.434 115.594,-136.679 110.653,-127.307 105.887,-132.434"/>
</g>
<!-- Node4 -->
<g id="node4" class="node"><title>Node4</title>
<g id="a_node4"><a xlink:href="classh_framework_1_1interfaces_1_1_i_sensor__serial.html" target="_top" xlink:title="Interface to Serial capable hSensor port. ">
<polygon fill="white" stroke="black" points="138,-69 138,-99 266,-99 266,-69 138,-69"/>
<text text-anchor="start" x="146" y="-87" font-family="Helvetica,sans-Serif" font-size="10.00">hFramework::interfaces</text>
<text text-anchor="middle" x="202" y="-76" font-family="Helvetica,sans-Serif" font-size="10.00">::ISensor_serial</text>
</a>
</g>
</g>
<!-- Node3&#45;&gt;Node4 -->
<g id="edge4" class="edge"><title>Node3&#45;&gt;Node4</title>
<path fill="none" stroke="midnightblue" d="M153.832,-129.776C164.552,-119.81 177.047,-108.196 186.624,-99.2931"/>
<polygon fill="midnightblue" stroke="midnightblue" points="151.347,-127.307 146.406,-136.679 156.113,-132.434 151.347,-127.307"/>
</g>
<!-- Node4&#45;&gt;Node1 -->
<g id="edge3" class="edge"><title>Node4&#45;&gt;Node1</title>
<path fill="none" stroke="midnightblue" d="M179.168,-61.7762C168.448,-51.8105 155.953,-40.1956 146.376,-31.2931"/>
<polygon fill="midnightblue" stroke="midnightblue" points="176.887,-64.434 186.594,-68.679 181.653,-59.307 176.887,-64.434"/>
</g>
</g>
</svg>
