<?xml version="1.0" encoding="UTF-8" standalone="no"?>
<!DOCTYPE svg PUBLIC "-//W3C//DTD SVG 1.1//EN"
 "http://www.w3.org/Graphics/SVG/1.1/DTD/svg11.dtd">
<!-- Generated by graphviz version 2.36.0 (20140111.2315)
 -->
<!-- Title: hFramework::hExt Pages: 1 -->
<svg width="1030pt" height="386pt"
 viewBox="0.00 0.00 1030.00 386.00" xmlns="http://www.w3.org/2000/svg" xmlns:xlink="http://www.w3.org/1999/xlink">
<g id="graph0" class="graph" transform="scale(1 1) rotate(0) translate(4 382)">
<title>hFramework::hExt</title>
<polygon fill="white" stroke="none" points="-4,4 -4,-382 1026,-382 1026,4 -4,4"/>
<!-- Node1 -->
<g id="node1" class="node"><title>Node1</title>
<polygon fill="#bfbfbf" stroke="black" points="920.5,-171.5 920.5,-190.5 1021.5,-190.5 1021.5,-171.5 920.5,-171.5"/>
<text text-anchor="middle" x="971" y="-178.5" font-family="Helvetica,sans-Serif" font-size="10.00">hFramework::hExt</text>
</g>
<!-- Node2 -->
<g id="node2" class="node"><title>Node2</title>
<g id="a_node2"><a xlink:href="classh_framework_1_1h_g_p_i_o.html" target="_top" xlink:title="Implementation of on&#45;board General Purpose Input&#45;Output pin (GPIO). ">
<polygon fill="white" stroke="black" points="246,-152.5 246,-171.5 356,-171.5 356,-152.5 246,-152.5"/>
<text text-anchor="middle" x="301" y="-159.5" font-family="Helvetica,sans-Serif" font-size="10.00">hFramework::hGPIO</text>
</a>
</g>
</g>
<!-- Node2&#45;&gt;Node1 -->
<g id="edge1" class="edge"><title>Node2&#45;&gt;Node1</title>
<path fill="none" stroke="#9a32cd" stroke-dasharray="5,2" d="M328.358,-176.048C344.038,-183.6 364.599,-192.137 384,-196 401.436,-199.471 406.223,-196.167 424,-196 636.473,-194 689.821,-198.345 902,-187 907.917,-186.684 914.117,-186.262 920.263,-185.788"/>
<polygon fill="#9a32cd" stroke="#9a32cd" points="329.791,-172.851 319.28,-171.523 326.668,-179.116 329.791,-172.851"/>
<text text-anchor="middle" x="643" y="-232" font-family="Helvetica,sans-Serif" font-size="10.00"> pin3</text>
<text text-anchor="middle" x="643" y="-221" font-family="Helvetica,sans-Serif" font-size="10.00">pin4</text>
<text text-anchor="middle" x="643" y="-210" font-family="Helvetica,sans-Serif" font-size="10.00">pin5</text>
<text text-anchor="middle" x="643" y="-199" font-family="Helvetica,sans-Serif" font-size="10.00">pin6</text>
</g>
<!-- Node4 -->
<g id="node4" class="node"><title>Node4</title>
<g id="a_node4"><a xlink:href="classh_framework_1_1h_i2_c.html" target="_top" xlink:title="Implementation of on&#45;board I2C interface. ">
<polygon fill="white" stroke="black" points="457.5,-345.5 457.5,-364.5 558.5,-364.5 558.5,-345.5 457.5,-345.5"/>
<text text-anchor="middle" x="508" y="-352.5" font-family="Helvetica,sans-Serif" font-size="10.00">hFramework::hI2C</text>
</a>
</g>
</g>
<!-- Node2&#45;&gt;Node4 -->
<g id="edge5" class="edge"><title>Node2&#45;&gt;Node4</title>
<path fill="none" stroke="#9a32cd" stroke-dasharray="5,2" d="M311.729,-180.362C331.443,-215.772 379.584,-293.647 442,-335 448.496,-339.304 455.963,-342.718 463.468,-345.415"/>
<polygon fill="#9a32cd" stroke="#9a32cd" points="314.793,-178.671 306.934,-171.566 308.647,-182.021 314.793,-178.671"/>
<text text-anchor="middle" x="404" y="-335" font-family="Helvetica,sans-Serif" font-size="10.00"> pinScl</text>
<text text-anchor="middle" x="404" y="-324" font-family="Helvetica,sans-Serif" font-size="10.00">pinSda</text>
</g>
<!-- Node6 -->
<g id="node6" class="node"><title>Node6</title>
<g id="a_node6"><a xlink:href="classh_framework_1_1h_serial.html" target="_top" xlink:title="Serial port (UART) interface. ">
<polygon fill="white" stroke="black" points="726.5,-250.5 726.5,-269.5 839.5,-269.5 839.5,-250.5 726.5,-250.5"/>
<text text-anchor="middle" x="783" y="-257.5" font-family="Helvetica,sans-Serif" font-size="10.00">hFramework::hSerial</text>
</a>
</g>
</g>
<!-- Node2&#45;&gt;Node6 -->
<g id="edge11" class="edge"><title>Node2&#45;&gt;Node6</title>
<path fill="none" stroke="#9a32cd" stroke-dasharray="5,2" d="M318.211,-178.593C333.644,-193.252 358.276,-213.833 384,-224 499.173,-269.519 647.233,-269.063 726.323,-264.615"/>
<polygon fill="#9a32cd" stroke="#9a32cd" points="320.615,-176.049 311.022,-171.554 315.718,-181.051 320.615,-176.049"/>
<text text-anchor="middle" x="508" y="-278" font-family="Helvetica,sans-Serif" font-size="10.00"> pinTx</text>
<text text-anchor="middle" x="508" y="-267" font-family="Helvetica,sans-Serif" font-size="10.00">pinRx</text>
</g>
<!-- Node11 -->
<g id="node11" class="node"><title>Node11</title>
<g id="a_node11"><a xlink:href="classh_framework_1_1h_g_p_i_o__int.html" target="_top" xlink:title="Implementation of on&#45;board General Purpose Input&#45;Output pin (GPIO) with interrupt capability...">
<polygon fill="white" stroke="black" points="444.5,-91.5 444.5,-110.5 571.5,-110.5 571.5,-91.5 444.5,-91.5"/>
<text text-anchor="middle" x="508" y="-98.5" font-family="Helvetica,sans-Serif" font-size="10.00">hFramework::hGPIO_int</text>
</a>
</g>
</g>
<!-- Node2&#45;&gt;Node11 -->
<g id="edge13" class="edge"><title>Node2&#45;&gt;Node11</title>
<path fill="none" stroke="midnightblue" d="M343.969,-149.512C382.755,-137.97 439.56,-121.067 474.856,-110.565"/>
<polygon fill="midnightblue" stroke="midnightblue" points="342.618,-146.262 334.031,-152.469 344.614,-152.971 342.618,-146.262"/>
</g>
<!-- Node13 -->
<g id="node13" class="node"><title>Node13</title>
<g id="a_node13"><a xlink:href="classh_framework_1_1h_s_p_i.html" target="_top" xlink:title="hFramework::hSPI">
<polygon fill="white" stroke="black" points="592.5,-152.5 592.5,-171.5 693.5,-171.5 693.5,-152.5 592.5,-152.5"/>
<text text-anchor="middle" x="643" y="-159.5" font-family="Helvetica,sans-Serif" font-size="10.00">hFramework::hSPI</text>
</a>
</g>
</g>
<!-- Node2&#45;&gt;Node13 -->
<g id="edge17" class="edge"><title>Node2&#45;&gt;Node13</title>
<path fill="none" stroke="#9a32cd" stroke-dasharray="5,2" d="M366.483,-162C432.172,-162 532.629,-162 592.367,-162"/>
<polygon fill="#9a32cd" stroke="#9a32cd" points="366.25,-158.5 356.25,-162 366.25,-165.5 366.25,-158.5"/>
<text text-anchor="middle" x="404" y="-187" font-family="Helvetica,sans-Serif" font-size="10.00"> pinMosi</text>
<text text-anchor="middle" x="404" y="-176" font-family="Helvetica,sans-Serif" font-size="10.00">pinMiso</text>
<text text-anchor="middle" x="404" y="-165" font-family="Helvetica,sans-Serif" font-size="10.00">pinSck</text>
</g>
<!-- Node15 -->
<g id="node15" class="node"><title>Node15</title>
<g id="a_node15"><a xlink:href="classh_framework_1_1h_g_p_i_o__adc.html" target="_top" xlink:title="Implementation of on&#45;board General Purpose Input&#45;Output pin (GPIO) with ADC capability. ">
<polygon fill="white" stroke="black" points="442,-0.5 442,-19.5 574,-19.5 574,-0.5 442,-0.5"/>
<text text-anchor="middle" x="508" y="-7.5" font-family="Helvetica,sans-Serif" font-size="10.00">hFramework::hGPIO_adc</text>
</a>
</g>
</g>
<!-- Node2&#45;&gt;Node15 -->
<g id="edge20" class="edge"><title>Node2&#45;&gt;Node15</title>
<path fill="none" stroke="midnightblue" d="M320.204,-145.461C333.079,-133.705 350.702,-117.494 366,-103 400.223,-70.5752 401.281,-52.761 442,-29 448.6,-25.1484 456.04,-22.0278 463.466,-19.5153"/>
<polygon fill="midnightblue" stroke="midnightblue" points="317.535,-143.158 312.501,-152.481 322.25,-148.332 317.535,-143.158"/>
</g>
<!-- Node3 -->
<g id="node3" class="node"><title>Node3</title>
<g id="a_node3"><a xlink:href="classh_framework_1_1interfaces_1_1_i_g_p_i_o.html" target="_top" xlink:title="Interface for General Purpose Input&#45;Output pin (GPIO). ">
<polygon fill="white" stroke="black" points="7,-64 7,-94 135,-94 135,-64 7,-64"/>
<text text-anchor="start" x="15" y="-82" font-family="Helvetica,sans-Serif" font-size="10.00">hFramework::interfaces</text>
<text text-anchor="middle" x="71" y="-71" font-family="Helvetica,sans-Serif" font-size="10.00">::IGPIO</text>
</a>
</g>
</g>
<!-- Node3&#45;&gt;Node2 -->
<g id="edge2" class="edge"><title>Node3&#45;&gt;Node2</title>
<path fill="none" stroke="midnightblue" d="M122.919,-97.5361C169.596,-114.528 236.866,-139.017 273.601,-152.39"/>
<polygon fill="midnightblue" stroke="midnightblue" points="123.883,-94.1626 113.289,-94.0307 121.489,-100.74 123.883,-94.1626"/>
</g>
<!-- Node12 -->
<g id="node12" class="node"><title>Node12</title>
<g id="a_node12"><a xlink:href="classh_framework_1_1interfaces_1_1_i_g_p_i_o__int.html" target="_top" xlink:title="Interface for General Purpose Input&#45;Output pin (GPIO) with interrupt capability. ">
<polygon fill="white" stroke="black" points="237,-64 237,-94 365,-94 365,-64 237,-64"/>
<text text-anchor="start" x="245" y="-82" font-family="Helvetica,sans-Serif" font-size="10.00">hFramework::interfaces</text>
<text text-anchor="middle" x="301" y="-71" font-family="Helvetica,sans-Serif" font-size="10.00">::IGPIO_int</text>
</a>
</g>
</g>
<!-- Node3&#45;&gt;Node12 -->
<g id="edge15" class="edge"><title>Node3&#45;&gt;Node12</title>
<path fill="none" stroke="midnightblue" d="M145.419,-79C174.819,-79 208.361,-79 236.669,-79"/>
<polygon fill="midnightblue" stroke="midnightblue" points="145.208,-75.5001 135.208,-79 145.208,-82.5001 145.208,-75.5001"/>
</g>
<!-- Node16 -->
<g id="node16" class="node"><title>Node16</title>
<g id="a_node16"><a xlink:href="classh_framework_1_1interfaces_1_1_i_g_p_i_o__adc.html" target="_top" xlink:title="Interface for General Purpose Input&#45;Output pin (GPIO) with ADC capability. ">
<polygon fill="white" stroke="black" points="237,-14 237,-44 365,-44 365,-14 237,-14"/>
<text text-anchor="start" x="245" y="-32" font-family="Helvetica,sans-Serif" font-size="10.00">hFramework::interfaces</text>
<text text-anchor="middle" x="301" y="-21" font-family="Helvetica,sans-Serif" font-size="10.00">::IGPIO_adc</text>
</a>
</g>
</g>
<!-- Node3&#45;&gt;Node16 -->
<g id="edge22" class="edge"><title>Node3&#45;&gt;Node16</title>
<path fill="none" stroke="midnightblue" d="M145.034,-62.9837C174.526,-56.5162 208.237,-49.1234 236.669,-42.8884"/>
<polygon fill="midnightblue" stroke="midnightblue" points="144.226,-59.5777 135.208,-65.1386 145.726,-66.4152 144.226,-59.5777"/>
</g>
<!-- Node4&#45;&gt;Node1 -->
<g id="edge3" class="edge"><title>Node4&#45;&gt;Node1</title>
<path fill="none" stroke="#9a32cd" stroke-dasharray="5,2" d="M568.587,-349.636C639.359,-341.541 759.692,-322.27 854,-279 901.205,-257.341 944.451,-210.983 961.878,-190.765"/>
<polygon fill="#9a32cd" stroke="#9a32cd" points="568.068,-346.172 558.513,-350.75 568.838,-353.129 568.068,-346.172"/>
<text text-anchor="middle" x="783" y="-328" font-family="Helvetica,sans-Serif" font-size="10.00"> i2c</text>
</g>
<!-- Node5 -->
<g id="node5" class="node"><title>Node5</title>
<g id="a_node5"><a xlink:href="classh_framework_1_1interfaces_1_1_i_i2_c.html" target="_top" xlink:title="Interface for I2C. ">
<polygon fill="white" stroke="black" points="237,-347 237,-377 365,-377 365,-347 237,-347"/>
<text text-anchor="start" x="245" y="-365" font-family="Helvetica,sans-Serif" font-size="10.00">hFramework::interfaces</text>
<text text-anchor="middle" x="301" y="-354" font-family="Helvetica,sans-Serif" font-size="10.00">::II2C</text>
</a>
</g>
</g>
<!-- Node5&#45;&gt;Node4 -->
<g id="edge4" class="edge"><title>Node5&#45;&gt;Node4</title>
<path fill="none" stroke="midnightblue" d="M375.436,-359.492C402.623,-358.564 432.785,-357.534 457.363,-356.695"/>
<polygon fill="midnightblue" stroke="midnightblue" points="375.054,-356.003 365.179,-359.843 375.293,-362.999 375.054,-356.003"/>
</g>
<!-- Node6&#45;&gt;Node1 -->
<g id="edge6" class="edge"><title>Node6&#45;&gt;Node1</title>
<path fill="none" stroke="#9a32cd" stroke-dasharray="5,2" d="M821.056,-246.941C844.496,-238.418 875.303,-226.73 902,-215 919.28,-207.407 938.473,-197.688 952.05,-190.587"/>
<polygon fill="#9a32cd" stroke="#9a32cd" points="819.713,-243.705 811.494,-250.392 822.089,-250.29 819.713,-243.705"/>
<text text-anchor="middle" x="887" y="-231" font-family="Helvetica,sans-Serif" font-size="10.00"> serial</text>
</g>
<!-- Node7 -->
<g id="node7" class="node"><title>Node7</title>
<g id="a_node7"><a xlink:href="classh_framework_1_1interfaces_1_1_i_serial.html" target="_top" xlink:title="Interface to the serial port. This is a restricted version of hSerial. ">
<polygon fill="white" stroke="black" points="444,-296 444,-326 572,-326 572,-296 444,-296"/>
<text text-anchor="start" x="452" y="-314" font-family="Helvetica,sans-Serif" font-size="10.00">hFramework::interfaces</text>
<text text-anchor="middle" x="508" y="-303" font-family="Helvetica,sans-Serif" font-size="10.00">::ISerial</text>
</a>
</g>
</g>
<!-- Node7&#45;&gt;Node6 -->
<g id="edge7" class="edge"><title>Node7&#45;&gt;Node6</title>
<path fill="none" stroke="midnightblue" d="M582.433,-297.282C629.374,-288.513 689.069,-277.361 730.891,-269.548"/>
<polygon fill="midnightblue" stroke="midnightblue" points="581.505,-293.894 572.318,-299.171 582.791,-300.775 581.505,-293.894"/>
</g>
<!-- Node8 -->
<g id="node8" class="node"><title>Node8</title>
<g id="a_node8"><a xlink:href="classh_framework_1_1h_printf_dev.html" target="_top" xlink:title="Provides printf and vprintf methods as extension to hStreamDev. ">
<polygon fill="white" stroke="black" points="236,-308.5 236,-327.5 366,-327.5 366,-308.5 236,-308.5"/>
<text text-anchor="middle" x="301" y="-315.5" font-family="Helvetica,sans-Serif" font-size="10.00">hFramework::hPrintfDev</text>
</a>
</g>
</g>
<!-- Node8&#45;&gt;Node7 -->
<g id="edge8" class="edge"><title>Node8&#45;&gt;Node7</title>
<path fill="none" stroke="midnightblue" d="M376.066,-315.471C398.262,-314.713 422.39,-313.889 443.817,-313.157"/>
<polygon fill="midnightblue" stroke="midnightblue" points="375.895,-311.975 366.02,-315.814 376.134,-318.971 375.895,-311.975"/>
</g>
<!-- Node9 -->
<g id="node9" class="node"><title>Node9</title>
<g id="a_node9"><a xlink:href="classh_framework_1_1h_stream_dev.html" target="_top" xlink:title="Stream device interface. ">
<polygon fill="white" stroke="black" points="0.5,-289.5 0.5,-308.5 141.5,-308.5 141.5,-289.5 0.5,-289.5"/>
<text text-anchor="middle" x="71" y="-296.5" font-family="Helvetica,sans-Serif" font-size="10.00">hFramework::hStreamDev</text>
</a>
</g>
</g>
<!-- Node9&#45;&gt;Node8 -->
<g id="edge9" class="edge"><title>Node9&#45;&gt;Node8</title>
<path fill="none" stroke="midnightblue" d="M151.647,-305.637C179.192,-307.933 209.687,-310.474 235.83,-312.653"/>
<polygon fill="midnightblue" stroke="midnightblue" points="151.903,-302.147 141.646,-304.804 151.321,-309.122 151.903,-302.147"/>
</g>
<!-- Node10 -->
<g id="node10" class="node"><title>Node10</title>
<g id="a_node10"><a xlink:href="classh_framework_1_1h_mutex.html" target="_top" xlink:title="Mutex class. ">
<polygon fill="white" stroke="black" points="13,-327.5 13,-346.5 129,-346.5 129,-327.5 13,-327.5"/>
<text text-anchor="middle" x="71" y="-334.5" font-family="Helvetica,sans-Serif" font-size="10.00">hFramework::hMutex</text>
</a>
</g>
</g>
<!-- Node10&#45;&gt;Node8 -->
<g id="edge10" class="edge"><title>Node10&#45;&gt;Node8</title>
<path fill="none" stroke="#9a32cd" stroke-dasharray="5,2" d="M139.366,-331.386C169.88,-328.843 205.781,-325.852 235.896,-323.342"/>
<polygon fill="#9a32cd" stroke="#9a32cd" points="138.914,-327.912 129.24,-332.23 139.496,-334.887 138.914,-327.912"/>
<text text-anchor="middle" x="189" y="-333" font-family="Helvetica,sans-Serif" font-size="10.00"> printfMutex</text>
</g>
<!-- Node11&#45;&gt;Node1 -->
<g id="edge12" class="edge"><title>Node11&#45;&gt;Node1</title>
<path fill="none" stroke="#9a32cd" stroke-dasharray="5,2" d="M581.79,-104.849C652.148,-109.644 761.397,-119.928 854,-141 887.027,-148.515 923.776,-162.126 946.883,-171.361"/>
<polygon fill="#9a32cd" stroke="#9a32cd" points="581.907,-101.35 571.698,-104.181 581.445,-108.334 581.907,-101.35"/>
<text text-anchor="middle" x="783" y="-155" font-family="Helvetica,sans-Serif" font-size="10.00"> pin1</text>
<text text-anchor="middle" x="783" y="-144" font-family="Helvetica,sans-Serif" font-size="10.00">pin2</text>
</g>
<!-- Node14 -->
<g id="node14" class="node"><title>Node14</title>
<g id="a_node14"><a xlink:href="classh_framework_1_1h_g_p_i_o__super.html" target="_top" xlink:title="Implementation of on&#45;board General Purpose Input&#45;Output pin (GPIO) with interrupt and ADC capability...">
<polygon fill="white" stroke="black" points="712,-46.5 712,-65.5 854,-65.5 854,-46.5 712,-46.5"/>
<text text-anchor="middle" x="783" y="-53.5" font-family="Helvetica,sans-Serif" font-size="10.00">hFramework::hGPIO_super</text>
</a>
</g>
</g>
<!-- Node11&#45;&gt;Node14 -->
<g id="edge23" class="edge"><title>Node11&#45;&gt;Node14</title>
<path fill="none" stroke="midnightblue" d="M576.928,-89.8031C622.227,-82.3363 681.136,-72.6259 724.187,-65.5296"/>
<polygon fill="midnightblue" stroke="midnightblue" points="576.194,-86.3768 566.896,-91.4567 577.332,-93.2836 576.194,-86.3768"/>
</g>
<!-- Node12&#45;&gt;Node11 -->
<g id="edge14" class="edge"><title>Node12&#45;&gt;Node11</title>
<path fill="none" stroke="midnightblue" d="M375.39,-86.876C397.967,-89.2989 422.598,-91.9422 444.382,-94.28"/>
<polygon fill="midnightblue" stroke="midnightblue" points="375.496,-83.3674 365.179,-85.7802 374.749,-90.3274 375.496,-83.3674"/>
</g>
<!-- Node17 -->
<g id="node17" class="node"><title>Node17</title>
<g id="a_node17"><a xlink:href="classh_framework_1_1interfaces_1_1_i_g_p_i_o__super.html" target="_top" xlink:title="Interface for General Purpose Input&#45;Output pin (GPIO) with interrupt and ADC capability. ">
<polygon fill="white" stroke="black" points="444,-39 444,-69 572,-69 572,-39 444,-39"/>
<text text-anchor="start" x="452" y="-57" font-family="Helvetica,sans-Serif" font-size="10.00">hFramework::interfaces</text>
<text text-anchor="middle" x="508" y="-46" font-family="Helvetica,sans-Serif" font-size="10.00">::IGPIO_super</text>
</a>
</g>
</g>
<!-- Node12&#45;&gt;Node17 -->
<g id="edge25" class="edge"><title>Node12&#45;&gt;Node17</title>
<path fill="none" stroke="midnightblue" d="M375.293,-70.0618C397.653,-67.335 422.036,-64.3615 443.676,-61.7224"/>
<polygon fill="midnightblue" stroke="midnightblue" points="374.682,-66.6103 365.179,-71.2952 375.53,-73.5588 374.682,-66.6103"/>
</g>
<!-- Node13&#45;&gt;Node1 -->
<g id="edge16" class="edge"><title>Node13&#45;&gt;Node1</title>
<path fill="none" stroke="#9a32cd" stroke-dasharray="5,2" d="M703.563,-165.471C765.721,-169.094 862.076,-174.71 920.29,-178.103"/>
<polygon fill="#9a32cd" stroke="#9a32cd" points="703.699,-161.974 693.512,-164.886 703.292,-168.962 703.699,-161.974"/>
<text text-anchor="middle" x="783" y="-177" font-family="Helvetica,sans-Serif" font-size="10.00"> spi</text>
</g>
<!-- Node14&#45;&gt;Node1 -->
<g id="edge18" class="edge"><title>Node14&#45;&gt;Node1</title>
<path fill="none" stroke="#9a32cd" stroke-dasharray="5,2" d="M863.827,-62.6492C877.309,-66.2013 890.608,-71.4113 902,-79 937.071,-102.363 958.569,-150.603 966.511,-171.263"/>
<polygon fill="#9a32cd" stroke="#9a32cd" points="864.538,-59.221 854.003,-60.3455 862.94,-66.0361 864.538,-59.221"/>
<text text-anchor="middle" x="887" y="-82" font-family="Helvetica,sans-Serif" font-size="10.00"> pin7</text>
</g>
<!-- Node15&#45;&gt;Node14 -->
<g id="edge19" class="edge"><title>Node15&#45;&gt;Node14</title>
<path fill="none" stroke="midnightblue" d="M575.434,-21.194C621.387,-28.937 681.875,-39.1291 725.507,-46.481"/>
<polygon fill="midnightblue" stroke="midnightblue" points="576.008,-17.7415 565.566,-19.5312 574.845,-24.6442 576.008,-17.7415"/>
</g>
<!-- Node16&#45;&gt;Node15 -->
<g id="edge21" class="edge"><title>Node16&#45;&gt;Node15</title>
<path fill="none" stroke="midnightblue" d="M375.22,-18.9235C378.183,-18.5962 381.119,-18.2866 384,-18 402.739,-16.1359 423.129,-14.6081 441.821,-13.4056"/>
<polygon fill="midnightblue" stroke="midnightblue" points="374.604,-15.4713 365.072,-20.0965 375.408,-22.425 374.604,-15.4713"/>
</g>
<!-- Node16&#45;&gt;Node17 -->
<g id="edge26" class="edge"><title>Node16&#45;&gt;Node17</title>
<path fill="none" stroke="midnightblue" d="M375.293,-37.9382C397.653,-40.665 422.036,-43.6385 443.676,-46.2776"/>
<polygon fill="midnightblue" stroke="midnightblue" points="375.53,-34.4412 365.179,-36.7048 374.682,-41.3897 375.53,-34.4412"/>
</g>
<!-- Node17&#45;&gt;Node14 -->
<g id="edge24" class="edge"><title>Node17&#45;&gt;Node14</title>
<path fill="none" stroke="midnightblue" d="M582.327,-54.5372C622.535,-54.8318 672.127,-55.1951 711.829,-55.4859"/>
<polygon fill="midnightblue" stroke="midnightblue" points="582.343,-51.0373 572.318,-54.4639 582.292,-58.0371 582.343,-51.0373"/>
</g>
</g>
</svg>
