<?xml version="1.0" encoding="UTF-8" standalone="no"?>
<!DOCTYPE svg PUBLIC "-//W3C//DTD SVG 1.1//EN"
 "http://www.w3.org/Graphics/SVG/1.1/DTD/svg11.dtd">
<!-- Generated by graphviz version 2.36.0 (20140111.2315)
 -->
<!-- Title: hFramework::interfaces::ISensor Pages: 1 -->
<svg width="480pt" height="218pt"
 viewBox="0.00 0.00 480.00 218.00" xmlns="http://www.w3.org/2000/svg" xmlns:xlink="http://www.w3.org/1999/xlink">
<g id="graph0" class="graph" transform="scale(1 1) rotate(0) translate(4 214)">
<title>hFramework::interfaces::ISensor</title>
<polygon fill="white" stroke="none" points="-4,4 -4,-214 476,-214 476,4 -4,4"/>
<!-- Node1 -->
<g id="node1" class="node"><title>Node1</title>
<polygon fill="#bfbfbf" stroke="black" points="0,-87 0,-117 128,-117 128,-87 0,-87"/>
<text text-anchor="start" x="8" y="-105" font-family="Helvetica,sans-Serif" font-size="10.00">hFramework::interfaces</text>
<text text-anchor="middle" x="64" y="-94" font-family="Helvetica,sans-Serif" font-size="10.00">::ISensor</text>
</g>
<!-- Node2 -->
<g id="node2" class="node"><title>Node2</title>
<g id="a_node2"><a xlink:href="classh_framework_1_1h_sensor.html" target="_top" xlink:title="base implementation for on&#45;board hSensor port. ">
<polygon fill="white" stroke="black" points="168,-92.5 168,-111.5 288,-111.5 288,-92.5 168,-92.5"/>
<text text-anchor="middle" x="228" y="-99.5" font-family="Helvetica,sans-Serif" font-size="10.00">hFramework::hSensor</text>
</a>
</g>
</g>
<!-- Node1&#45;&gt;Node2 -->
<g id="edge1" class="edge"><title>Node1&#45;&gt;Node2</title>
<path fill="none" stroke="midnightblue" d="M138.304,-102C148.175,-102 158.2,-102 167.785,-102"/>
<polygon fill="midnightblue" stroke="midnightblue" points="138.097,-98.5001 128.097,-102 138.097,-105.5 138.097,-98.5001"/>
</g>
<!-- Node6 -->
<g id="node6" class="node"><title>Node6</title>
<g id="a_node6"><a xlink:href="classh_framework_1_1h_sensor__simple.html" target="_top" xlink:title="Implementation of simple on&#45;board hSensor port. ">
<polygon fill="white" stroke="black" points="340,-0 340,-30 460,-30 460,-0 340,-0"/>
<text text-anchor="start" x="348" y="-18" font-family="Helvetica,sans-Serif" font-size="10.00">hFramework::hSensor</text>
<text text-anchor="middle" x="400" y="-7" font-family="Helvetica,sans-Serif" font-size="10.00">_simple</text>
</a>
</g>
</g>
<!-- Node1&#45;&gt;Node6 -->
<g id="edge6" class="edge"><title>Node1&#45;&gt;Node6</title>
<path fill="none" stroke="midnightblue" d="M88.7145,-79.955C107.58,-63.8711 135.466,-43.1761 164,-33 221.233,-12.5892 291.142,-9.80125 339.763,-11.059"/>
<polygon fill="midnightblue" stroke="midnightblue" points="86.1784,-77.5235 80.9588,-86.7435 90.7888,-82.7908 86.1784,-77.5235"/>
</g>
<!-- Node7 -->
<g id="node7" class="node"><title>Node7</title>
<g id="a_node7"><a xlink:href="classh_framework_1_1interfaces_1_1_i_sensor__adc.html" target="_top" xlink:title="Interface to hSensor port (with ADC on pin2). ">
<polygon fill="white" stroke="black" points="164,-131 164,-161 292,-161 292,-131 164,-131"/>
<text text-anchor="start" x="172" y="-149" font-family="Helvetica,sans-Serif" font-size="10.00">hFramework::interfaces</text>
<text text-anchor="middle" x="228" y="-138" font-family="Helvetica,sans-Serif" font-size="10.00">::ISensor_adc</text>
</a>
</g>
</g>
<!-- Node1&#45;&gt;Node7 -->
<g id="edge7" class="edge"><title>Node1&#45;&gt;Node7</title>
<path fill="none" stroke="midnightblue" d="M130.179,-119.703C143.935,-123.439 158.325,-127.347 171.676,-130.974"/>
<polygon fill="midnightblue" stroke="midnightblue" points="130.866,-116.263 120.298,-117.019 129.031,-123.018 130.866,-116.263"/>
</g>
<!-- Node8 -->
<g id="node8" class="node"><title>Node8</title>
<g id="a_node8"><a xlink:href="classh_framework_1_1interfaces_1_1_i_sensor__i2c.html" target="_top" xlink:title="Interface to I2C capable hSensor port. ">
<polygon fill="white" stroke="black" points="164,-180 164,-210 292,-210 292,-180 164,-180"/>
<text text-anchor="start" x="172" y="-198" font-family="Helvetica,sans-Serif" font-size="10.00">hFramework::interfaces</text>
<text text-anchor="middle" x="228" y="-187" font-family="Helvetica,sans-Serif" font-size="10.00">::ISensor_i2c</text>
</a>
</g>
</g>
<!-- Node1&#45;&gt;Node8 -->
<g id="edge9" class="edge"><title>Node1&#45;&gt;Node8</title>
<path fill="none" stroke="midnightblue" d="M92.3156,-123.238C111.628,-137.623 138.516,-156.413 164,-170 170.646,-173.543 177.906,-176.877 185.058,-179.885"/>
<polygon fill="midnightblue" stroke="midnightblue" points="94.3607,-120.397 84.2685,-117.172 90.1471,-125.986 94.3607,-120.397"/>
</g>
<!-- Node10 -->
<g id="node10" class="node"><title>Node10</title>
<g id="a_node10"><a xlink:href="classh_framework_1_1interfaces_1_1_i_sensor__serial.html" target="_top" xlink:title="Interface to Serial capable hSensor port. ">
<polygon fill="white" stroke="black" points="164,-43 164,-73 292,-73 292,-43 164,-43"/>
<text text-anchor="start" x="172" y="-61" font-family="Helvetica,sans-Serif" font-size="10.00">hFramework::interfaces</text>
<text text-anchor="middle" x="228" y="-50" font-family="Helvetica,sans-Serif" font-size="10.00">::ISensor_serial</text>
</a>
</g>
</g>
<!-- Node1&#45;&gt;Node10 -->
<g id="edge12" class="edge"><title>Node1&#45;&gt;Node10</title>
<path fill="none" stroke="midnightblue" d="M130.179,-84.2971C143.935,-80.5608 158.325,-76.6525 171.676,-73.0262"/>
<polygon fill="midnightblue" stroke="midnightblue" points="129.031,-80.982 120.298,-86.9808 130.866,-87.7372 129.031,-80.982"/>
</g>
<!-- Node3 -->
<g id="node3" class="node"><title>Node3</title>
<g id="a_node3"><a xlink:href="classh_framework_1_1h_sensor__adc.html" target="_top" xlink:title="Implementation of on&#45;board hSensor port (with ADC on pin2). ">
<polygon fill="white" stroke="black" points="328.5,-102.5 328.5,-121.5 471.5,-121.5 471.5,-102.5 328.5,-102.5"/>
<text text-anchor="middle" x="400" y="-109.5" font-family="Helvetica,sans-Serif" font-size="10.00">hFramework::hSensor_adc</text>
</a>
</g>
</g>
<!-- Node2&#45;&gt;Node3 -->
<g id="edge2" class="edge"><title>Node2&#45;&gt;Node3</title>
<path fill="none" stroke="midnightblue" d="M298.605,-106.094C308.464,-106.674 318.609,-107.271 328.485,-107.852"/>
<polygon fill="midnightblue" stroke="midnightblue" points="298.646,-102.591 288.458,-105.498 298.235,-109.579 298.646,-102.591"/>
</g>
<!-- Node4 -->
<g id="node4" class="node"><title>Node4</title>
<g id="a_node4"><a xlink:href="classh_framework_1_1h_sensor__i2c.html" target="_top" xlink:title="Implementation of on&#45;board I2C capable hSensor port. ">
<polygon fill="white" stroke="black" points="330.5,-141.5 330.5,-160.5 469.5,-160.5 469.5,-141.5 330.5,-141.5"/>
<text text-anchor="middle" x="400" y="-148.5" font-family="Helvetica,sans-Serif" font-size="10.00">hFramework::hSensor_i2c</text>
</a>
</g>
</g>
<!-- Node2&#45;&gt;Node4 -->
<g id="edge3" class="edge"><title>Node2&#45;&gt;Node4</title>
<path fill="none" stroke="midnightblue" d="M271.447,-114.539C288.947,-119.681 309.438,-125.667 328,-131 339.939,-134.43 353.024,-138.132 364.672,-141.408"/>
<polygon fill="midnightblue" stroke="midnightblue" points="272.106,-111.085 261.525,-111.62 270.131,-117.8 272.106,-111.085"/>
</g>
<!-- Node5 -->
<g id="node5" class="node"><title>Node5</title>
<g id="a_node5"><a xlink:href="classh_framework_1_1h_sensor__serial.html" target="_top" xlink:title="Implementation of on&#45;board Serial capable hSensor port. ">
<polygon fill="white" stroke="black" points="340,-52 340,-82 460,-82 460,-52 340,-52"/>
<text text-anchor="start" x="348" y="-70" font-family="Helvetica,sans-Serif" font-size="10.00">hFramework::hSensor</text>
<text text-anchor="middle" x="400" y="-59" font-family="Helvetica,sans-Serif" font-size="10.00">_serial</text>
</a>
</g>
</g>
<!-- Node2&#45;&gt;Node5 -->
<g id="edge4" class="edge"><title>Node2&#45;&gt;Node5</title>
<path fill="none" stroke="midnightblue" d="M285.489,-90.37C302.933,-86.7785 322.189,-82.8139 339.811,-79.186"/>
<polygon fill="midnightblue" stroke="midnightblue" points="284.542,-86.9914 275.453,-92.4361 285.954,-93.8476 284.542,-86.9914"/>
</g>
<!-- Node2&#45;&gt;Node6 -->
<g id="edge5" class="edge"><title>Node2&#45;&gt;Node6</title>
<path fill="none" stroke="midnightblue" d="M279.663,-88.6088C283.975,-86.6737 288.153,-84.4806 292,-82 312.101,-69.0392 308.269,-55.5184 328,-42 334.745,-37.3787 342.387,-33.4121 350.097,-30.0543"/>
<polygon fill="midnightblue" stroke="midnightblue" points="278.067,-85.4775 270.084,-92.444 280.669,-91.976 278.067,-85.4775"/>
</g>
<!-- Node7&#45;&gt;Node3 -->
<g id="edge8" class="edge"><title>Node7&#45;&gt;Node3</title>
<path fill="none" stroke="midnightblue" d="M302.5,-131.3C319.039,-127.992 336.169,-124.566 351.324,-121.535"/>
<polygon fill="midnightblue" stroke="midnightblue" points="301.421,-127.946 292.302,-133.34 302.794,-134.81 301.421,-127.946"/>
</g>
<!-- Node8&#45;&gt;Node4 -->
<g id="edge10" class="edge"><title>Node8&#45;&gt;Node4</title>
<path fill="none" stroke="midnightblue" d="M296.814,-177.448C319.146,-171.668 343.131,-165.46 362.247,-160.512"/>
<polygon fill="midnightblue" stroke="midnightblue" points="295.833,-174.087 287.029,-179.981 297.587,-180.863 295.833,-174.087"/>
</g>
<!-- Node9 -->
<g id="node9" class="node"><title>Node9</title>
<g id="a_node9"><a xlink:href="classh_framework_1_1h_sensor__softi2c.html" target="_top" xlink:title="Proxy object for accessing software I2C on any hSensor port. ">
<polygon fill="white" stroke="black" points="340,-180 340,-210 460,-210 460,-180 340,-180"/>
<text text-anchor="start" x="348" y="-198" font-family="Helvetica,sans-Serif" font-size="10.00">hFramework::hSensor</text>
<text text-anchor="middle" x="400" y="-187" font-family="Helvetica,sans-Serif" font-size="10.00">_softi2c</text>
</a>
</g>
</g>
<!-- Node8&#45;&gt;Node9 -->
<g id="edge11" class="edge"><title>Node8&#45;&gt;Node9</title>
<path fill="none" stroke="midnightblue" d="M302.649,-195C315.089,-195 327.858,-195 339.867,-195"/>
<polygon fill="midnightblue" stroke="midnightblue" points="302.302,-191.5 292.302,-195 302.302,-198.5 302.302,-191.5"/>
</g>
<!-- Node10&#45;&gt;Node5 -->
<g id="edge13" class="edge"><title>Node10&#45;&gt;Node5</title>
<path fill="none" stroke="midnightblue" d="M302.649,-61.8991C315.089,-62.5576 327.858,-63.2337 339.867,-63.8694"/>
<polygon fill="midnightblue" stroke="midnightblue" points="302.473,-58.3849 292.302,-61.3513 302.103,-65.3751 302.473,-58.3849"/>
</g>
</g>
</svg>
