<?xml version="1.0" encoding="UTF-8" standalone="no"?>
<!DOCTYPE svg PUBLIC "-//W3C//DTD SVG 1.1//EN"
 "http://www.w3.org/Graphics/SVG/1.1/DTD/svg11.dtd">
<!-- Generated by graphviz version 2.36.0 (20140111.2315)
 -->
<!-- Title: /home/buildbot/slave/dist&#45;current/robocore&#45;modules Pages: 1 -->
<svg width="504pt" height="76pt"
 viewBox="0.00 0.00 504.00 76.00" xmlns="http://www.w3.org/2000/svg" xmlns:xlink="http://www.w3.org/1999/xlink">
<g id="graph0" class="graph" transform="scale(1 1) rotate(0) translate(4 72)">
<title>/home/buildbot/slave/dist&#45;current/robocore&#45;modules</title>
<polygon fill="white" stroke="none" points="-4,4 -4,-72 500,-72 500,4 -4,4"/>
<g id="clust1" class="cluster"><title>clusterdir_eec65a852f6a04f7eb4ea08f668be288</title>
<g id="a_clust1"><a xlink:href="dir_eec65a852f6a04f7eb4ea08f668be288.html" target="_top">
<polygon fill="#eeeeff" stroke="black" points="8,-8 8,-60 488,-60 488,-8 8,-8"/>
</a>
</g>
</g>
<!-- dir_eec65a852f6a04f7eb4ea08f668be288 -->
<g id="node1" class="node"><title>dir_eec65a852f6a04f7eb4ea08f668be288</title>
<text text-anchor="middle" x="428" y="-31.5" font-family="Helvetica,sans-Serif" font-size="10.00">robocore&#45;modules</text>
</g>
<!-- dir_408f0af8f7075c69c5e21c900d64aa4d -->
<g id="node2" class="node"><title>dir_408f0af8f7075c69c5e21c900d64aa4d</title>
<g id="a_node2"><a xlink:href="dir_408f0af8f7075c69c5e21c900d64aa4d.html" target="_top" xlink:title="DistanceSensor">
<polygon fill="white" stroke="red" points="358,-52 266,-52 266,-16 358,-16 358,-52"/>
<text text-anchor="middle" x="312" y="-31.5" font-family="Helvetica,sans-Serif" font-size="10.00">DistanceSensor</text>
</a>
</g>
</g>
<!-- dir_edc836c7d607d8bf8275719b49378b1c -->
<g id="node3" class="node"><title>dir_edc836c7d607d8bf8275719b49378b1c</title>
<g id="a_node3"><a xlink:href="dir_edc836c7d607d8bf8275719b49378b1c.html" target="_top" xlink:title="ESP8266">
<polygon fill="white" stroke="red" points="247.25,-52 188.75,-52 188.75,-16 247.25,-16 247.25,-52"/>
<text text-anchor="middle" x="218" y="-31.5" font-family="Helvetica,sans-Serif" font-size="10.00">ESP8266</text>
</a>
</g>
</g>
<!-- dir_dbc1ccd2c5e6b7e084095b9859664f48 -->
<g id="node4" class="node"><title>dir_dbc1ccd2c5e6b7e084095b9859664f48</title>
<g id="a_node4"><a xlink:href="dir_dbc1ccd2c5e6b7e084095b9859664f48.html" target="_top" xlink:title="MPU9250">
<polygon fill="white" stroke="red" points="169.5,-52 108.5,-52 108.5,-16 169.5,-16 169.5,-52"/>
<text text-anchor="middle" x="139" y="-31.5" font-family="Helvetica,sans-Serif" font-size="10.00">MPU9250</text>
</a>
</g>
</g>
<!-- dir_f9607cd34feba2e8fae97745346642f6 -->
<g id="node5" class="node"><title>dir_f9607cd34feba2e8fae97745346642f6</title>
<g id="a_node5"><a xlink:href="dir_f9607cd34feba2e8fae97745346642f6.html" target="_top" xlink:title="ServoDriver">
<polygon fill="white" stroke="red" points="89.25,-52 16.75,-52 16.75,-16 89.25,-16 89.25,-52"/>
<text text-anchor="middle" x="53" y="-31.5" font-family="Helvetica,sans-Serif" font-size="10.00">ServoDriver</text>
</a>
</g>
</g>
</g>
</svg>
