<?xml version="1.0" encoding="UTF-8" standalone="no"?>
<!DOCTYPE svg PUBLIC "-//W3C//DTD SVG 1.1//EN"
 "http://www.w3.org/Graphics/SVG/1.1/DTD/svg11.dtd">
<!-- Generated by graphviz version 2.36.0 (20140111.2315)
 -->
<!-- Title: Graphical Class Hierarchy Pages: 1 -->
<svg width="322pt" height="66pt"
 viewBox="0.00 0.00 322.00 66.00" xmlns="http://www.w3.org/2000/svg" xmlns:xlink="http://www.w3.org/1999/xlink">
<g id="graph0" class="graph" transform="scale(1 1) rotate(0) translate(4 62)">
<title>Graphical Class Hierarchy</title>
<polygon fill="white" stroke="none" points="-4,4 -4,-62 318,-62 318,4 -4,4"/>
<!-- Node1 -->
<g id="node1" class="node"><title>Node1</title>
<g id="a_node1"><a xlink:href="classh_framework_1_1h_mutex.html" target="_top" xlink:title="Mutex class. ">
<polygon fill="white" stroke="black" points="0,-19.5 0,-38.5 116,-38.5 116,-19.5 0,-19.5"/>
<text text-anchor="middle" x="58" y="-26.5" font-family="Helvetica,sans-Serif" font-size="10.00">hFramework::hMutex</text>
</a>
</g>
</g>
<!-- Node2 -->
<g id="node2" class="node"><title>Node2</title>
<g id="a_node2"><a xlink:href="classh_framework_1_1h_recursive_mutex.html" target="_top" xlink:title="Recursive mutex class. ">
<polygon fill="white" stroke="black" points="152.5,-38.5 152.5,-57.5 313.5,-57.5 313.5,-38.5 152.5,-38.5"/>
<text text-anchor="middle" x="233" y="-45.5" font-family="Helvetica,sans-Serif" font-size="10.00">hFramework::hRecursiveMutex</text>
</a>
</g>
</g>
<!-- Node1&#45;&gt;Node2 -->
<g id="edge1" class="edge"><title>Node1&#45;&gt;Node2</title>
<path fill="none" stroke="midnightblue" d="M126.093,-36.3686C134.709,-37.3148 143.595,-38.2907 152.385,-39.2562"/>
<polygon fill="midnightblue" stroke="midnightblue" points="126.448,-32.8867 116.126,-35.274 125.684,-39.8448 126.448,-32.8867"/>
</g>
<!-- Node3 -->
<g id="node3" class="node"><title>Node3</title>
<g id="a_node3"><a xlink:href="classh_framework_1_1h_semaphore.html" target="_top" xlink:title="Semaphore class. ">
<polygon fill="white" stroke="black" points="161.5,-0.5 161.5,-19.5 304.5,-19.5 304.5,-0.5 161.5,-0.5"/>
<text text-anchor="middle" x="233" y="-7.5" font-family="Helvetica,sans-Serif" font-size="10.00">hFramework::hSemaphore</text>
</a>
</g>
</g>
<!-- Node1&#45;&gt;Node3 -->
<g id="edge2" class="edge"><title>Node1&#45;&gt;Node3</title>
<path fill="none" stroke="midnightblue" d="M126.129,-21.6274C137.679,-20.3589 149.715,-19.0371 161.355,-17.7588"/>
<polygon fill="midnightblue" stroke="midnightblue" points="125.684,-18.1552 116.126,-22.726 126.448,-25.1133 125.684,-18.1552"/>
</g>
</g>
</svg>
