<?xml version="1.0" encoding="UTF-8" standalone="no"?>
<!DOCTYPE svg PUBLIC "-//W3C//DTD SVG 1.1//EN"
 "http://www.w3.org/Graphics/SVG/1.1/DTD/svg11.dtd">
<!-- Generated by graphviz version 2.36.0 (20140111.2315)
 -->
<!-- Title: Graphical Class Hierarchy Pages: 1 -->
<svg width="642pt" height="191pt"
 viewBox="0.00 0.00 642.00 191.00" xmlns="http://www.w3.org/2000/svg" xmlns:xlink="http://www.w3.org/1999/xlink">
<g id="graph0" class="graph" transform="scale(1 1) rotate(0) translate(4 187)">
<title>Graphical Class Hierarchy</title>
<polygon fill="white" stroke="none" points="-4,4 -4,-187 638,-187 638,4 -4,4"/>
<!-- Node1 -->
<g id="node1" class="node"><title>Node1</title>
<g id="a_node1"><a xlink:href="classh_framework_1_1h_stream_dev.html" target="_top" xlink:title="Stream device interface. ">
<polygon fill="white" stroke="black" points="0.5,-68.5 0.5,-87.5 141.5,-87.5 141.5,-68.5 0.5,-68.5"/>
<text text-anchor="middle" x="71" y="-75.5" font-family="Helvetica,sans-Serif" font-size="10.00">hFramework::hStreamDev</text>
</a>
</g>
</g>
<!-- Node2 -->
<g id="node2" class="node"><title>Node2</title>
<g id="a_node2"><a xlink:href="classh_framework_1_1h_printf_dev.html" target="_top" xlink:title="Provides printf and vprintf methods as extension to hStreamDev. ">
<polygon fill="white" stroke="black" points="178,-87.5 178,-106.5 308,-106.5 308,-87.5 178,-87.5"/>
<text text-anchor="middle" x="243" y="-94.5" font-family="Helvetica,sans-Serif" font-size="10.00">hFramework::hPrintfDev</text>
</a>
</g>
</g>
<!-- Node1&#45;&gt;Node2 -->
<g id="edge1" class="edge"><title>Node1&#45;&gt;Node2</title>
<path fill="none" stroke="midnightblue" d="M151.849,-86.9243C160.597,-87.902 169.418,-88.8879 177.939,-89.8403"/>
<polygon fill="midnightblue" stroke="midnightblue" points="151.963,-83.4153 141.636,-85.7828 151.185,-90.372 151.963,-83.4153"/>
</g>
<!-- Node9 -->
<g id="node9" class="node"><title>Node9</title>
<g id="a_node9"><a xlink:href="classh_framework_1_1h_u_s_b.html" target="_top" xlink:title="Provides USB interface to Android Open Accessory. ">
<polygon fill="white" stroke="black" points="189.5,-49.5 189.5,-68.5 296.5,-68.5 296.5,-49.5 189.5,-49.5"/>
<text text-anchor="middle" x="243" y="-56.5" font-family="Helvetica,sans-Serif" font-size="10.00">hFramework::hUSB</text>
</a>
</g>
</g>
<!-- Node1&#45;&gt;Node9 -->
<g id="edge8" class="edge"><title>Node1&#45;&gt;Node9</title>
<path fill="none" stroke="midnightblue" d="M151.81,-69.08C164.566,-67.6544 177.478,-66.2113 189.391,-64.8798"/>
<polygon fill="midnightblue" stroke="midnightblue" points="151.185,-65.628 141.636,-70.2172 151.963,-72.5847 151.185,-65.628"/>
</g>
<!-- Node3 -->
<g id="node3" class="node"><title>Node3</title>
<g id="a_node3"><a xlink:href="classh_framework_1_1_dev_null.html" target="_top" xlink:title="Null device. ">
<polygon fill="white" stroke="black" points="355.5,-163.5 355.5,-182.5 472.5,-182.5 472.5,-163.5 355.5,-163.5"/>
<text text-anchor="middle" x="414" y="-170.5" font-family="Helvetica,sans-Serif" font-size="10.00">hFramework::DevNull</text>
</a>
</g>
</g>
<!-- Node2&#45;&gt;Node3 -->
<g id="edge2" class="edge"><title>Node2&#45;&gt;Node3</title>
<path fill="none" stroke="midnightblue" d="M266.913,-112.262C286.658,-124.866 316.276,-142.494 344,-154 352.722,-157.62 362.346,-160.765 371.569,-163.398"/>
<polygon fill="midnightblue" stroke="midnightblue" points="268.618,-109.196 258.322,-106.696 264.812,-115.071 268.618,-109.196"/>
</g>
<!-- Node4 -->
<g id="node4" class="node"><title>Node4</title>
<g id="a_node4"><a xlink:href="classh_framework_1_1h_cloud_client.html" target="_top" xlink:title="Provides access to the RoboCORE platform. ">
<polygon fill="white" stroke="black" points="344,-125.5 344,-144.5 484,-144.5 484,-125.5 344,-125.5"/>
<text text-anchor="middle" x="414" y="-132.5" font-family="Helvetica,sans-Serif" font-size="10.00">hFramework::hCloudClient</text>
</a>
</g>
</g>
<!-- Node2&#45;&gt;Node4 -->
<g id="edge3" class="edge"><title>Node2&#45;&gt;Node4</title>
<path fill="none" stroke="midnightblue" d="M296.587,-108.824C320.413,-114.182 348.207,-120.431 370.661,-125.48"/>
<polygon fill="midnightblue" stroke="midnightblue" points="297.17,-105.368 286.646,-106.589 295.634,-112.198 297.17,-105.368"/>
</g>
<!-- Node5 -->
<g id="node5" class="node"><title>Node5</title>
<g id="a_node5"><a xlink:href="classh_framework_1_1h_local_serial.html" target="_top" xlink:title="hFramework::hLocalSerial">
<polygon fill="white" stroke="black" points="345,-87.5 345,-106.5 483,-106.5 483,-87.5 345,-87.5"/>
<text text-anchor="middle" x="414" y="-94.5" font-family="Helvetica,sans-Serif" font-size="10.00">hFramework::hLocalSerial</text>
</a>
</g>
</g>
<!-- Node2&#45;&gt;Node5 -->
<g id="edge4" class="edge"><title>Node2&#45;&gt;Node5</title>
<path fill="none" stroke="midnightblue" d="M318.56,-97C327.313,-97 336.211,-97 344.87,-97"/>
<polygon fill="midnightblue" stroke="midnightblue" points="318.374,-93.5001 308.374,-97 318.374,-100.5 318.374,-93.5001"/>
</g>
<!-- Node6 -->
<g id="node6" class="node"><title>Node6</title>
<g id="a_node6"><a xlink:href="classh_framework_1_1h_s_d_log.html" target="_top" xlink:title="Provides SD card based log device. ">
<polygon fill="white" stroke="black" points="355,-49.5 355,-68.5 473,-68.5 473,-49.5 355,-49.5"/>
<text text-anchor="middle" x="414" y="-56.5" font-family="Helvetica,sans-Serif" font-size="10.00">hFramework::hSDLog</text>
</a>
</g>
</g>
<!-- Node2&#45;&gt;Node6 -->
<g id="edge5" class="edge"><title>Node2&#45;&gt;Node6</title>
<path fill="none" stroke="midnightblue" d="M296.587,-85.1757C320.413,-79.8184 348.207,-73.5689 370.661,-68.5201"/>
<polygon fill="midnightblue" stroke="midnightblue" points="295.634,-81.8024 286.646,-87.411 297.17,-88.6319 295.634,-81.8024"/>
</g>
<!-- Node7 -->
<g id="node7" class="node"><title>Node7</title>
<g id="a_node7"><a xlink:href="classh_framework_1_1interfaces_1_1_i_serial.html" target="_top" xlink:title="Interface to the serial port. This is a restricted version of hSerial. ">
<polygon fill="white" stroke="black" points="350,-0 350,-30 478,-30 478,-0 350,-0"/>
<text text-anchor="start" x="358" y="-18" font-family="Helvetica,sans-Serif" font-size="10.00">hFramework::interfaces</text>
<text text-anchor="middle" x="414" y="-7" font-family="Helvetica,sans-Serif" font-size="10.00">::ISerial</text>
</a>
</g>
</g>
<!-- Node2&#45;&gt;Node7 -->
<g id="edge6" class="edge"><title>Node2&#45;&gt;Node7</title>
<path fill="none" stroke="midnightblue" d="M297.188,-83.6333C300.95,-81.9597 304.597,-80.0889 308,-78 327.827,-65.83 324.54,-52.7497 344,-40 349.755,-36.2294 356.152,-32.9371 362.665,-30.0892"/>
<polygon fill="midnightblue" stroke="midnightblue" points="295.68,-80.4658 287.668,-87.3989 298.255,-86.975 295.68,-80.4658"/>
</g>
<!-- Node8 -->
<g id="node8" class="node"><title>Node8</title>
<g id="a_node8"><a xlink:href="classh_framework_1_1h_serial.html" target="_top" xlink:title="Serial port (UART) interface. ">
<polygon fill="white" stroke="black" points="520.5,-5.5 520.5,-24.5 633.5,-24.5 633.5,-5.5 520.5,-5.5"/>
<text text-anchor="middle" x="577" y="-12.5" font-family="Helvetica,sans-Serif" font-size="10.00">hFramework::hSerial</text>
</a>
</g>
</g>
<!-- Node7&#45;&gt;Node8 -->
<g id="edge7" class="edge"><title>Node7&#45;&gt;Node8</title>
<path fill="none" stroke="midnightblue" d="M488.385,-15C499.121,-15 510.026,-15 520.33,-15"/>
<polygon fill="midnightblue" stroke="midnightblue" points="488.169,-11.5001 478.169,-15 488.169,-18.5001 488.169,-11.5001"/>
</g>
</g>
</svg>
