<?xml version="1.0" encoding="UTF-8" standalone="no"?>
<!DOCTYPE svg PUBLIC "-//W3C//DTD SVG 1.1//EN"
 "http://www.w3.org/Graphics/SVG/1.1/DTD/svg11.dtd">
<!-- Generated by graphviz version 2.36.0 (20140111.2315)
 -->
<!-- Title: Graphical Class Hierarchy Pages: 1 -->
<svg width="294pt" height="77pt"
 viewBox="0.00 0.00 294.00 77.00" xmlns="http://www.w3.org/2000/svg" xmlns:xlink="http://www.w3.org/1999/xlink">
<g id="graph0" class="graph" transform="scale(1 1) rotate(0) translate(4 73)">
<title>Graphical Class Hierarchy</title>
<polygon fill="white" stroke="none" points="-4,4 -4,-73 290,-73 290,4 -4,4"/>
<!-- Node1 -->
<g id="node1" class="node"><title>Node1</title>
<g id="a_node1"><a xlink:href="classh_framework_1_1_i_servo.html" target="_top" xlink:title="Provides interface to servo. ">
<polygon fill="white" stroke="black" points="0,-27.5 0,-46.5 110,-46.5 110,-27.5 0,-27.5"/>
<text text-anchor="middle" x="55" y="-34.5" font-family="Helvetica,sans-Serif" font-size="10.00">hFramework::IServo</text>
</a>
</g>
</g>
<!-- Node2 -->
<g id="node2" class="node"><title>Node2</title>
<g id="a_node2"><a xlink:href="classh_framework_1_1h_servo__h_ext.html" target="_top" xlink:title="Provides interface to servo located on hExt Servo controller board. ">
<polygon fill="white" stroke="black" points="146,-49.5 146,-68.5 286,-68.5 286,-49.5 146,-49.5"/>
<text text-anchor="middle" x="216" y="-56.5" font-family="Helvetica,sans-Serif" font-size="10.00">hFramework::hServo_hExt</text>
</a>
</g>
</g>
<!-- Node1&#45;&gt;Node2 -->
<g id="edge1" class="edge"><title>Node1&#45;&gt;Node2</title>
<path fill="none" stroke="midnightblue" d="M120.431,-45.9149C128.875,-47.0833 137.554,-48.2843 146.07,-49.4624"/>
<polygon fill="midnightblue" stroke="midnightblue" points="120.659,-42.4133 110.274,-44.5096 119.7,-49.3473 120.659,-42.4133"/>
</g>
<!-- Node3 -->
<g id="node3" class="node"><title>Node3</title>
<g id="a_node3"><a xlink:href="classh_modules_1_1_servo_driver___servo.html" target="_top" xlink:title="Provides interface to servo located on hExt Servo Driver module. ">
<polygon fill="white" stroke="black" points="153.5,-0 153.5,-30 278.5,-30 278.5,-0 153.5,-0"/>
<text text-anchor="start" x="161.5" y="-18" font-family="Helvetica,sans-Serif" font-size="10.00">hModules::ServoDriver</text>
<text text-anchor="middle" x="216" y="-7" font-family="Helvetica,sans-Serif" font-size="10.00">_Servo</text>
</a>
</g>
</g>
<!-- Node1&#45;&gt;Node3 -->
<g id="edge2" class="edge"><title>Node1&#45;&gt;Node3</title>
<path fill="none" stroke="midnightblue" d="M120.513,-28.0736C131.345,-26.575 142.561,-25.023 153.318,-23.5346"/>
<polygon fill="midnightblue" stroke="midnightblue" points="119.7,-24.6527 110.274,-29.4904 120.659,-31.5867 119.7,-24.6527"/>
</g>
</g>
</svg>
