<?xml version="1.0" encoding="UTF-8" standalone="no"?>
<!DOCTYPE svg PUBLIC "-//W3C//DTD SVG 1.1//EN"
 "http://www.w3.org/Graphics/SVG/1.1/DTD/svg11.dtd">
<!-- Generated by graphviz version 2.36.0 (20140111.2315)
 -->
<!-- Title: Graphical Class Hierarchy Pages: 1 -->
<svg width="260pt" height="66pt"
 viewBox="0.00 0.00 260.00 66.00" xmlns="http://www.w3.org/2000/svg" xmlns:xlink="http://www.w3.org/1999/xlink">
<g id="graph0" class="graph" transform="scale(1 1) rotate(0) translate(4 62)">
<title>Graphical Class Hierarchy</title>
<polygon fill="white" stroke="none" points="-4,4 -4,-62 256,-62 256,4 -4,4"/>
<!-- Node1 -->
<g id="node1" class="node"><title>Node1</title>
<g id="a_node1"><a xlink:href="classh_framework_1_1h_p_i_d.html" target="_top" xlink:title="hFramework::hPID">
<polygon fill="white" stroke="black" points="15,-38.5 15,-57.5 117,-57.5 117,-38.5 15,-38.5"/>
<text text-anchor="middle" x="66" y="-45.5" font-family="Helvetica,sans-Serif" font-size="10.00">hFramework::hPID</text>
</a>
</g>
</g>
<!-- Node2 -->
<g id="node2" class="node"><title>Node2</title>
<g id="a_node2"><a xlink:href="classh_p_i_d_regulator.html" target="_top" xlink:title="hPIDRegulator">
<polygon fill="white" stroke="black" points="168.5,-19.5 168.5,-38.5 251.5,-38.5 251.5,-19.5 168.5,-19.5"/>
<text text-anchor="middle" x="210" y="-26.5" font-family="Helvetica,sans-Serif" font-size="10.00">hPIDRegulator</text>
</a>
</g>
</g>
<!-- Node1&#45;&gt;Node2 -->
<g id="edge1" class="edge"><title>Node1&#45;&gt;Node2</title>
<path fill="none" stroke="midnightblue" d="M127.053,-39.9647C140.955,-38.1046 155.43,-36.1678 168.277,-34.4488"/>
<polygon fill="midnightblue" stroke="midnightblue" points="126.511,-36.5059 117.064,-41.3013 127.44,-43.4441 126.511,-36.5059"/>
</g>
<!-- Node3 -->
<g id="node3" class="node"><title>Node3</title>
<g id="a_node3"><a xlink:href="classh_framework_1_1h_regulator.html" target="_top" xlink:title="Virtual regulator class that provides interface for different types of motor regulators (see hMotor)...">
<polygon fill="white" stroke="black" points="0.5,-0.5 0.5,-19.5 131.5,-19.5 131.5,-0.5 0.5,-0.5"/>
<text text-anchor="middle" x="66" y="-7.5" font-family="Helvetica,sans-Serif" font-size="10.00">hFramework::hRegulator</text>
</a>
</g>
</g>
<!-- Node3&#45;&gt;Node2 -->
<g id="edge2" class="edge"><title>Node3&#45;&gt;Node2</title>
<path fill="none" stroke="midnightblue" d="M141.701,-19.9953C150.854,-21.2199 159.924,-22.4335 168.301,-23.5544"/>
<polygon fill="midnightblue" stroke="midnightblue" points="142.143,-16.5232 131.767,-18.666 141.214,-23.4614 142.143,-16.5232"/>
</g>
</g>
</svg>
