<?xml version="1.0" encoding="UTF-8" standalone="no"?>
<!DOCTYPE svg PUBLIC "-//W3C//DTD SVG 1.1//EN"
 "http://www.w3.org/Graphics/SVG/1.1/DTD/svg11.dtd">
<!-- Generated by graphviz version 2.36.0 (20140111.2315)
 -->
<!-- Title: Graphical Class Hierarchy Pages: 1 -->
<svg width="316pt" height="66pt"
 viewBox="0.00 0.00 316.00 66.00" xmlns="http://www.w3.org/2000/svg" xmlns:xlink="http://www.w3.org/1999/xlink">
<g id="graph0" class="graph" transform="scale(1 1) rotate(0) translate(4 62)">
<title>Graphical Class Hierarchy</title>
<polygon fill="white" stroke="none" points="-4,4 -4,-62 312,-62 312,4 -4,4"/>
<!-- Node1 -->
<g id="node1" class="node"><title>Node1</title>
<g id="a_node1"><a xlink:href="classh_framework_1_1interfaces_1_1_i_i2_c.html" target="_top" xlink:title="Interface for I2C. ">
<polygon fill="white" stroke="black" points="0,-14 0,-44 128,-44 128,-14 0,-14"/>
<text text-anchor="start" x="8" y="-32" font-family="Helvetica,sans-Serif" font-size="10.00">hFramework::interfaces</text>
<text text-anchor="middle" x="64" y="-21" font-family="Helvetica,sans-Serif" font-size="10.00">::II2C</text>
</a>
</g>
</g>
<!-- Node2 -->
<g id="node2" class="node"><title>Node2</title>
<g id="a_node2"><a xlink:href="classh_framework_1_1h_i2_c.html" target="_top" xlink:title="Implementation of on&#45;board I2C interface. ">
<polygon fill="white" stroke="black" points="185.5,-38.5 185.5,-57.5 286.5,-57.5 286.5,-38.5 185.5,-38.5"/>
<text text-anchor="middle" x="236" y="-45.5" font-family="Helvetica,sans-Serif" font-size="10.00">hFramework::hI2C</text>
</a>
</g>
</g>
<!-- Node1&#45;&gt;Node2 -->
<g id="edge1" class="edge"><title>Node1&#45;&gt;Node2</title>
<path fill="none" stroke="midnightblue" d="M138.604,-37.2263C154.435,-38.9957 170.803,-40.825 185.458,-42.4629"/>
<polygon fill="midnightblue" stroke="midnightblue" points="138.629,-33.7074 128.302,-36.0749 137.851,-40.6641 138.629,-33.7074"/>
</g>
<!-- Node3 -->
<g id="node3" class="node"><title>Node3</title>
<g id="a_node3"><a xlink:href="classh_framework_1_1h_software_i2_c.html" target="_top" xlink:title="Implementation of software I2C interface. ">
<polygon fill="white" stroke="black" points="164.5,-0.5 164.5,-19.5 307.5,-19.5 307.5,-0.5 164.5,-0.5"/>
<text text-anchor="middle" x="236" y="-7.5" font-family="Helvetica,sans-Serif" font-size="10.00">hFramework::hSoftwareI2C</text>
</a>
</g>
</g>
<!-- Node1&#45;&gt;Node3 -->
<g id="edge2" class="edge"><title>Node1&#45;&gt;Node3</title>
<path fill="none" stroke="midnightblue" d="M138.296,-20.808C146.893,-19.8473 155.652,-18.8684 164.213,-17.9115"/>
<polygon fill="midnightblue" stroke="midnightblue" points="137.851,-17.3359 128.302,-21.9251 138.629,-24.2926 137.851,-17.3359"/>
</g>
</g>
</svg>
