<?xml version="1.0" encoding="UTF-8" standalone="no"?>
<!DOCTYPE svg PUBLIC "-//W3C//DTD SVG 1.1//EN"
 "http://www.w3.org/Graphics/SVG/1.1/DTD/svg11.dtd">
<!-- Generated by graphviz version 2.36.0 (20140111.2315)
 -->
<!-- Title: hFramework::UiInput Pages: 1 -->
<svg width="174pt" height="212pt"
 viewBox="0.00 0.00 174.00 212.00" xmlns="http://www.w3.org/2000/svg" xmlns:xlink="http://www.w3.org/1999/xlink">
<g id="graph0" class="graph" transform="scale(1 1) rotate(0) translate(4 208)">
<title>hFramework::UiInput</title>
<polygon fill="white" stroke="none" points="-4,4 -4,-208 170,-208 170,4 -4,4"/>
<!-- Node1 -->
<g id="node1" class="node"><title>Node1</title>
<polygon fill="#bfbfbf" stroke="black" points="26,-0.5 26,-19.5 140,-19.5 140,-0.5 26,-0.5"/>
<text text-anchor="middle" x="83" y="-7.5" font-family="Helvetica,sans-Serif" font-size="10.00">hFramework::UiInput</text>
</g>
<!-- Node2 -->
<g id="node2" class="node"><title>Node2</title>
<g id="a_node2"><a xlink:href="structh_framework_1_1___ui_widget_with_text.html" target="_top" xlink:title="hFramework::_UiWidgetWithText">
<polygon fill="white" stroke="black" points="-0.5,-58.5 -0.5,-77.5 166.5,-77.5 166.5,-58.5 -0.5,-58.5"/>
<text text-anchor="middle" x="83" y="-65.5" font-family="Helvetica,sans-Serif" font-size="10.00">hFramework::_UiWidgetWithText</text>
</a>
</g>
</g>
<!-- Node2&#45;&gt;Node1 -->
<g id="edge1" class="edge"><title>Node2&#45;&gt;Node1</title>
<path fill="none" stroke="midnightblue" d="M83,-47.953C83,-38.2875 83,-27.0312 83,-19.5052"/>
<polygon fill="midnightblue" stroke="midnightblue" points="79.5001,-48.25 83,-58.25 86.5001,-48.25 79.5001,-48.25"/>
</g>
<!-- Node3 -->
<g id="node3" class="node"><title>Node3</title>
<g id="a_node3"><a xlink:href="structh_framework_1_1___ui_widget.html" target="_top" xlink:title="hFramework::_UiWidget">
<polygon fill="white" stroke="black" points="19,-116.5 19,-135.5 147,-135.5 147,-116.5 19,-116.5"/>
<text text-anchor="middle" x="83" y="-123.5" font-family="Helvetica,sans-Serif" font-size="10.00">hFramework::_UiWidget</text>
</a>
</g>
</g>
<!-- Node3&#45;&gt;Node2 -->
<g id="edge2" class="edge"><title>Node3&#45;&gt;Node2</title>
<path fill="none" stroke="midnightblue" d="M83,-105.953C83,-96.2875 83,-85.0312 83,-77.5052"/>
<polygon fill="midnightblue" stroke="midnightblue" points="79.5001,-106.25 83,-116.25 86.5001,-106.25 79.5001,-106.25"/>
</g>
<!-- Node4 -->
<g id="node4" class="node"><title>Node4</title>
<g id="a_node4"><a xlink:href="structh_framework_1_1h_id.html" target="_top" xlink:title="hFramework::hId">
<polygon fill="white" stroke="black" points="35.5,-184.5 35.5,-203.5 130.5,-203.5 130.5,-184.5 35.5,-184.5"/>
<text text-anchor="middle" x="83" y="-191.5" font-family="Helvetica,sans-Serif" font-size="10.00">hFramework::hId</text>
</a>
</g>
</g>
<!-- Node4&#45;&gt;Node3 -->
<g id="edge3" class="edge"><title>Node4&#45;&gt;Node3</title>
<path fill="none" stroke="#9a32cd" stroke-dasharray="5,2" d="M83,-174.041C83,-161.472 83,-145.563 83,-135.841"/>
<polygon fill="#9a32cd" stroke="#9a32cd" points="79.5001,-174.372 83,-184.372 86.5001,-174.372 79.5001,-174.372"/>
<text text-anchor="middle" x="89" y="-157.5" font-family="Helvetica,sans-Serif" font-size="10.00"> id</text>
</g>
</g>
</svg>
