<?xml version="1.0" encoding="UTF-8" standalone="no"?>
<!DOCTYPE svg PUBLIC "-//W3C//DTD SVG 1.1//EN"
 "http://www.w3.org/Graphics/SVG/1.1/DTD/svg11.dtd">
<!-- Generated by graphviz version 2.36.0 (20140111.2315)
 -->
<!-- Title: hFramework::_UiWidget Pages: 1 -->
<svg width="526pt" height="256pt"
 viewBox="0.00 0.00 526.00 256.00" xmlns="http://www.w3.org/2000/svg" xmlns:xlink="http://www.w3.org/1999/xlink">
<g id="graph0" class="graph" transform="scale(1 1) rotate(0) translate(4 252)">
<title>hFramework::_UiWidget</title>
<polygon fill="white" stroke="none" points="-4,4 -4,-252 522,-252 522,4 -4,4"/>
<!-- Node1 -->
<g id="node1" class="node"><title>Node1</title>
<polygon fill="#bfbfbf" stroke="black" points="0,-76.5 0,-95.5 128,-95.5 128,-76.5 0,-76.5"/>
<text text-anchor="middle" x="64" y="-83.5" font-family="Helvetica,sans-Serif" font-size="10.00">hFramework::_UiWidget</text>
</g>
<!-- Node2 -->
<g id="node2" class="node"><title>Node2</title>
<g id="a_node2"><a xlink:href="structh_framework_1_1___ui_widget_with_text.html" target="_top" xlink:title="hFramework::_UiWidgetWithText">
<polygon fill="white" stroke="black" points="164.5,-152.5 164.5,-171.5 331.5,-171.5 331.5,-152.5 164.5,-152.5"/>
<text text-anchor="middle" x="248" y="-159.5" font-family="Helvetica,sans-Serif" font-size="10.00">hFramework::_UiWidgetWithText</text>
</a>
</g>
</g>
<!-- Node1&#45;&gt;Node2 -->
<g id="edge1" class="edge"><title>Node1&#45;&gt;Node2</title>
<path fill="none" stroke="midnightblue" d="M87.2023,-101.364C106.657,-114.183 136.106,-132.061 164,-143 173.633,-146.778 184.204,-149.91 194.48,-152.468"/>
<polygon fill="midnightblue" stroke="midnightblue" points="89.0123,-98.364 78.7572,-95.7026 85.1144,-104.178 89.0123,-98.364"/>
</g>
<!-- Node8 -->
<g id="node8" class="node"><title>Node8</title>
<g id="a_node8"><a xlink:href="structh_framework_1_1_ui_console.html" target="_top" xlink:title="hFramework::UiConsole">
<polygon fill="white" stroke="black" points="184,-114.5 184,-133.5 312,-133.5 312,-114.5 184,-114.5"/>
<text text-anchor="middle" x="248" y="-121.5" font-family="Helvetica,sans-Serif" font-size="10.00">hFramework::UiConsole</text>
</a>
</g>
</g>
<!-- Node1&#45;&gt;Node8 -->
<g id="edge7" class="edge"><title>Node1&#45;&gt;Node8</title>
<path fill="none" stroke="midnightblue" d="M120.946,-97.681C146.756,-103.07 177.007,-109.386 201.404,-114.48"/>
<polygon fill="midnightblue" stroke="midnightblue" points="121.431,-94.2068 110.926,-95.589 120,-101.059 121.431,-94.2068"/>
</g>
<!-- Node9 -->
<g id="node9" class="node"><title>Node9</title>
<g id="a_node9"><a xlink:href="structh_framework_1_1_ui_progress_bar.html" target="_top" xlink:title="hFramework::UiProgressBar">
<polygon fill="white" stroke="black" points="173.5,-76.5 173.5,-95.5 322.5,-95.5 322.5,-76.5 173.5,-76.5"/>
<text text-anchor="middle" x="248" y="-83.5" font-family="Helvetica,sans-Serif" font-size="10.00">hFramework::UiProgressBar</text>
</a>
</g>
</g>
<!-- Node1&#45;&gt;Node9 -->
<g id="edge8" class="edge"><title>Node1&#45;&gt;Node9</title>
<path fill="none" stroke="midnightblue" d="M138.196,-86C149.774,-86 161.752,-86 173.341,-86"/>
<polygon fill="midnightblue" stroke="midnightblue" points="138.144,-82.5001 128.144,-86 138.144,-89.5001 138.144,-82.5001"/>
</g>
<!-- Node10 -->
<g id="node10" class="node"><title>Node10</title>
<g id="a_node10"><a xlink:href="structh_framework_1_1_ui_slider.html" target="_top" xlink:title="hFramework::UiSlider">
<polygon fill="white" stroke="black" points="189.5,-38.5 189.5,-57.5 306.5,-57.5 306.5,-38.5 189.5,-38.5"/>
<text text-anchor="middle" x="248" y="-45.5" font-family="Helvetica,sans-Serif" font-size="10.00">hFramework::UiSlider</text>
</a>
</g>
</g>
<!-- Node1&#45;&gt;Node10 -->
<g id="edge9" class="edge"><title>Node1&#45;&gt;Node10</title>
<path fill="none" stroke="midnightblue" d="M120.946,-74.319C146.756,-68.9301 177.007,-62.6139 201.404,-57.5201"/>
<polygon fill="midnightblue" stroke="midnightblue" points="120,-70.941 110.926,-76.411 121.431,-77.7932 120,-70.941"/>
</g>
<!-- Node11 -->
<g id="node11" class="node"><title>Node11</title>
<g id="a_node11"><a xlink:href="structh_framework_1_1_ui_video.html" target="_top" xlink:title="hFramework::UiVideo">
<polygon fill="white" stroke="black" points="189.5,-0.5 189.5,-19.5 306.5,-19.5 306.5,-0.5 189.5,-0.5"/>
<text text-anchor="middle" x="248" y="-7.5" font-family="Helvetica,sans-Serif" font-size="10.00">hFramework::UiVideo</text>
</a>
</g>
</g>
<!-- Node1&#45;&gt;Node11 -->
<g id="edge10" class="edge"><title>Node1&#45;&gt;Node11</title>
<path fill="none" stroke="midnightblue" d="M87.2023,-70.6357C106.657,-57.8175 136.106,-39.9386 164,-29 173.633,-25.2222 184.204,-22.0898 194.48,-19.5323"/>
<polygon fill="midnightblue" stroke="midnightblue" points="85.1144,-67.8217 78.7572,-76.2974 89.0123,-73.636 85.1144,-67.8217"/>
</g>
<!-- Node3 -->
<g id="node3" class="node"><title>Node3</title>
<g id="a_node3"><a xlink:href="structh_framework_1_1_ui_button.html" target="_top" xlink:title="hFramework::UiButton">
<polygon fill="white" stroke="black" points="382,-228.5 382,-247.5 504,-247.5 504,-228.5 382,-228.5"/>
<text text-anchor="middle" x="443" y="-235.5" font-family="Helvetica,sans-Serif" font-size="10.00">hFramework::UiButton</text>
</a>
</g>
</g>
<!-- Node2&#45;&gt;Node3 -->
<g id="edge2" class="edge"><title>Node2&#45;&gt;Node3</title>
<path fill="none" stroke="midnightblue" d="M275.328,-176.453C299.025,-189.012 335.08,-207.02 368,-219 377.847,-222.583 388.663,-225.764 398.913,-228.45"/>
<polygon fill="midnightblue" stroke="midnightblue" points="276.745,-173.242 266.278,-171.603 273.438,-179.411 276.745,-173.242"/>
</g>
<!-- Node4 -->
<g id="node4" class="node"><title>Node4</title>
<g id="a_node4"><a xlink:href="structh_framework_1_1_ui_check_box.html" target="_top" xlink:title="hFramework::UiCheckBox">
<polygon fill="white" stroke="black" points="374.5,-190.5 374.5,-209.5 511.5,-209.5 511.5,-190.5 374.5,-190.5"/>
<text text-anchor="middle" x="443" y="-197.5" font-family="Helvetica,sans-Serif" font-size="10.00">hFramework::UiCheckBox</text>
</a>
</g>
</g>
<!-- Node2&#45;&gt;Node4 -->
<g id="edge3" class="edge"><title>Node2&#45;&gt;Node4</title>
<path fill="none" stroke="midnightblue" d="M307.602,-173.538C335.129,-178.958 367.548,-185.341 393.648,-190.48"/>
<polygon fill="midnightblue" stroke="midnightblue" points="308.19,-170.087 297.702,-171.589 306.838,-176.955 308.19,-170.087"/>
</g>
<!-- Node5 -->
<g id="node5" class="node"><title>Node5</title>
<g id="a_node5"><a xlink:href="structh_framework_1_1_ui_input.html" target="_top" xlink:title="hFramework::UiInput">
<polygon fill="white" stroke="black" points="386,-152.5 386,-171.5 500,-171.5 500,-152.5 386,-152.5"/>
<text text-anchor="middle" x="443" y="-159.5" font-family="Helvetica,sans-Serif" font-size="10.00">hFramework::UiInput</text>
</a>
</g>
</g>
<!-- Node2&#45;&gt;Node5 -->
<g id="edge4" class="edge"><title>Node2&#45;&gt;Node5</title>
<path fill="none" stroke="midnightblue" d="M342.044,-162C357.053,-162 372.174,-162 385.951,-162"/>
<polygon fill="midnightblue" stroke="midnightblue" points="341.689,-158.5 331.689,-162 341.689,-165.5 341.689,-158.5"/>
</g>
<!-- Node6 -->
<g id="node6" class="node"><title>Node6</title>
<g id="a_node6"><a xlink:href="structh_framework_1_1_ui_label.html" target="_top" xlink:title="hFramework::UiLabel">
<polygon fill="white" stroke="black" points="385,-114.5 385,-133.5 501,-133.5 501,-114.5 385,-114.5"/>
<text text-anchor="middle" x="443" y="-121.5" font-family="Helvetica,sans-Serif" font-size="10.00">hFramework::UiLabel</text>
</a>
</g>
</g>
<!-- Node2&#45;&gt;Node6 -->
<g id="edge5" class="edge"><title>Node2&#45;&gt;Node6</title>
<path fill="none" stroke="midnightblue" d="M307.602,-150.462C335.129,-145.042 367.548,-138.659 393.648,-133.52"/>
<polygon fill="midnightblue" stroke="midnightblue" points="306.838,-147.045 297.702,-152.411 308.19,-153.913 306.838,-147.045"/>
</g>
<!-- Node7 -->
<g id="node7" class="node"><title>Node7</title>
<g id="a_node7"><a xlink:href="structh_framework_1_1_ui_radio_button.html" target="_top" xlink:title="hFramework::UiRadioButton">
<polygon fill="white" stroke="black" points="368.5,-76.5 368.5,-95.5 517.5,-95.5 517.5,-76.5 368.5,-76.5"/>
<text text-anchor="middle" x="443" y="-83.5" font-family="Helvetica,sans-Serif" font-size="10.00">hFramework::UiRadioButton</text>
</a>
</g>
</g>
<!-- Node2&#45;&gt;Node7 -->
<g id="edge6" class="edge"><title>Node2&#45;&gt;Node7</title>
<path fill="none" stroke="midnightblue" d="M319.573,-148.972C323.885,-147.226 328.066,-145.246 332,-143 352.204,-131.466 347.949,-116.799 368,-105 374.63,-101.098 382.055,-97.9895 389.573,-95.5143"/>
<polygon fill="midnightblue" stroke="midnightblue" points="318.187,-145.751 309.965,-152.433 320.56,-152.337 318.187,-145.751"/>
</g>
</g>
</svg>
