<?xml version="1.0" encoding="UTF-8" standalone="no"?>
<!DOCTYPE svg PUBLIC "-//W3C//DTD SVG 1.1//EN"
 "http://www.w3.org/Graphics/SVG/1.1/DTD/svg11.dtd">
<!-- Generated by graphviz version 2.36.0 (20140111.2315)
 -->
<!-- Title: hFramework::_UiWidgetWithText Pages: 1 -->
<svg width="526pt" height="180pt"
 viewBox="0.00 0.00 526.00 180.00" xmlns="http://www.w3.org/2000/svg" xmlns:xlink="http://www.w3.org/1999/xlink">
<g id="graph0" class="graph" transform="scale(1 1) rotate(0) translate(4 176)">
<title>hFramework::_UiWidgetWithText</title>
<polygon fill="white" stroke="none" points="-4,4 -4,-176 522,-176 522,4 -4,4"/>
<!-- Node1 -->
<g id="node1" class="node"><title>Node1</title>
<polygon fill="#bfbfbf" stroke="black" points="164.5,-76.5 164.5,-95.5 331.5,-95.5 331.5,-76.5 164.5,-76.5"/>
<text text-anchor="middle" x="248" y="-83.5" font-family="Helvetica,sans-Serif" font-size="10.00">hFramework::_UiWidgetWithText</text>
</g>
<!-- Node3 -->
<g id="node3" class="node"><title>Node3</title>
<g id="a_node3"><a xlink:href="structh_framework_1_1_ui_button.html" target="_top" xlink:title="hFramework::UiButton">
<polygon fill="white" stroke="black" points="382,-152.5 382,-171.5 504,-171.5 504,-152.5 382,-152.5"/>
<text text-anchor="middle" x="443" y="-159.5" font-family="Helvetica,sans-Serif" font-size="10.00">hFramework::UiButton</text>
</a>
</g>
</g>
<!-- Node1&#45;&gt;Node3 -->
<g id="edge2" class="edge"><title>Node1&#45;&gt;Node3</title>
<path fill="none" stroke="midnightblue" d="M275.328,-100.453C299.025,-113.012 335.08,-131.02 368,-143 377.847,-146.583 388.663,-149.764 398.913,-152.45"/>
<polygon fill="midnightblue" stroke="midnightblue" points="276.745,-97.2417 266.278,-95.6026 273.438,-103.411 276.745,-97.2417"/>
</g>
<!-- Node4 -->
<g id="node4" class="node"><title>Node4</title>
<g id="a_node4"><a xlink:href="structh_framework_1_1_ui_check_box.html" target="_top" xlink:title="hFramework::UiCheckBox">
<polygon fill="white" stroke="black" points="374.5,-114.5 374.5,-133.5 511.5,-133.5 511.5,-114.5 374.5,-114.5"/>
<text text-anchor="middle" x="443" y="-121.5" font-family="Helvetica,sans-Serif" font-size="10.00">hFramework::UiCheckBox</text>
</a>
</g>
</g>
<!-- Node1&#45;&gt;Node4 -->
<g id="edge3" class="edge"><title>Node1&#45;&gt;Node4</title>
<path fill="none" stroke="midnightblue" d="M307.602,-97.5381C335.129,-102.958 367.548,-109.341 393.648,-114.48"/>
<polygon fill="midnightblue" stroke="midnightblue" points="308.19,-94.0868 297.702,-95.589 306.838,-100.955 308.19,-94.0868"/>
</g>
<!-- Node5 -->
<g id="node5" class="node"><title>Node5</title>
<g id="a_node5"><a xlink:href="structh_framework_1_1_ui_input.html" target="_top" xlink:title="hFramework::UiInput">
<polygon fill="white" stroke="black" points="386,-76.5 386,-95.5 500,-95.5 500,-76.5 386,-76.5"/>
<text text-anchor="middle" x="443" y="-83.5" font-family="Helvetica,sans-Serif" font-size="10.00">hFramework::UiInput</text>
</a>
</g>
</g>
<!-- Node1&#45;&gt;Node5 -->
<g id="edge4" class="edge"><title>Node1&#45;&gt;Node5</title>
<path fill="none" stroke="midnightblue" d="M342.044,-86C357.053,-86 372.174,-86 385.951,-86"/>
<polygon fill="midnightblue" stroke="midnightblue" points="341.689,-82.5001 331.689,-86 341.689,-89.5001 341.689,-82.5001"/>
</g>
<!-- Node6 -->
<g id="node6" class="node"><title>Node6</title>
<g id="a_node6"><a xlink:href="structh_framework_1_1_ui_label.html" target="_top" xlink:title="hFramework::UiLabel">
<polygon fill="white" stroke="black" points="385,-38.5 385,-57.5 501,-57.5 501,-38.5 385,-38.5"/>
<text text-anchor="middle" x="443" y="-45.5" font-family="Helvetica,sans-Serif" font-size="10.00">hFramework::UiLabel</text>
</a>
</g>
</g>
<!-- Node1&#45;&gt;Node6 -->
<g id="edge5" class="edge"><title>Node1&#45;&gt;Node6</title>
<path fill="none" stroke="midnightblue" d="M307.602,-74.4619C335.129,-69.042 367.548,-62.659 393.648,-57.5201"/>
<polygon fill="midnightblue" stroke="midnightblue" points="306.838,-71.045 297.702,-76.411 308.19,-77.9132 306.838,-71.045"/>
</g>
<!-- Node7 -->
<g id="node7" class="node"><title>Node7</title>
<g id="a_node7"><a xlink:href="structh_framework_1_1_ui_radio_button.html" target="_top" xlink:title="hFramework::UiRadioButton">
<polygon fill="white" stroke="black" points="368.5,-0.5 368.5,-19.5 517.5,-19.5 517.5,-0.5 368.5,-0.5"/>
<text text-anchor="middle" x="443" y="-7.5" font-family="Helvetica,sans-Serif" font-size="10.00">hFramework::UiRadioButton</text>
</a>
</g>
</g>
<!-- Node1&#45;&gt;Node7 -->
<g id="edge6" class="edge"><title>Node1&#45;&gt;Node7</title>
<path fill="none" stroke="midnightblue" d="M275.328,-71.5468C299.025,-58.9881 335.08,-40.98 368,-29 377.847,-25.4167 388.663,-22.2355 398.913,-19.5496"/>
<polygon fill="midnightblue" stroke="midnightblue" points="273.438,-68.5886 266.278,-76.3974 276.745,-74.7583 273.438,-68.5886"/>
</g>
<!-- Node2 -->
<g id="node2" class="node"><title>Node2</title>
<g id="a_node2"><a xlink:href="structh_framework_1_1___ui_widget.html" target="_top" xlink:title="hFramework::_UiWidget">
<polygon fill="white" stroke="black" points="0,-76.5 0,-95.5 128,-95.5 128,-76.5 0,-76.5"/>
<text text-anchor="middle" x="64" y="-83.5" font-family="Helvetica,sans-Serif" font-size="10.00">hFramework::_UiWidget</text>
</a>
</g>
</g>
<!-- Node2&#45;&gt;Node1 -->
<g id="edge1" class="edge"><title>Node2&#45;&gt;Node1</title>
<path fill="none" stroke="midnightblue" d="M138.161,-86C146.798,-86 155.659,-86 164.414,-86"/>
<polygon fill="midnightblue" stroke="midnightblue" points="138.144,-82.5001 128.144,-86 138.144,-89.5001 138.144,-82.5001"/>
</g>
</g>
</svg>
